%TF.GenerationSoftware,KiCad,Pcbnew,(5.1.12-1-10_14)*%
%TF.CreationDate,2022-08-29T02:47:29+08:00*%
%TF.ProjectId,0102_USB-C,30313032-5f55-4534-922d-432e6b696361,rev?*%
%TF.SameCoordinates,Original*%
%TF.FileFunction,Legend,Bot*%
%TF.FilePolarity,Positive*%
%FSLAX46Y46*%
G04 Gerber Fmt 4.6, Leading zero omitted, Abs format (unit mm)*
G04 Created by KiCad (PCBNEW (5.1.12-1-10_14)) date 2022-08-29 02:47:29*
%MOMM*%
%LPD*%
G01*
G04 APERTURE LIST*
%ADD10C,0.120000*%
%ADD11C,0.150000*%
G04 APERTURE END LIST*
D10*
X20797047Y19861905D02*
X20797047Y20433334D01*
X20758952Y20547620D01*
X20682761Y20623810D01*
X20568476Y20661905D01*
X20492285Y20661905D01*
X21558952Y20661905D02*
X21178000Y20661905D01*
X21178000Y19861905D01*
X22282761Y20585715D02*
X22244666Y20623810D01*
X22130380Y20661905D01*
X22054190Y20661905D01*
X21939904Y20623810D01*
X21863714Y20547620D01*
X21825619Y20471429D01*
X21787523Y20319048D01*
X21787523Y20204762D01*
X21825619Y20052381D01*
X21863714Y19976191D01*
X21939904Y19900000D01*
X22054190Y19861905D01*
X22130380Y19861905D01*
X22244666Y19900000D01*
X22282761Y19938096D01*
X22854190Y19861905D02*
X22854190Y20433334D01*
X22816095Y20547620D01*
X22739904Y20623810D01*
X22625619Y20661905D01*
X22549428Y20661905D01*
X23616095Y20661905D02*
X23235142Y20661905D01*
X23235142Y19861905D01*
X24339904Y20585715D02*
X24301809Y20623810D01*
X24187523Y20661905D01*
X24111333Y20661905D01*
X23997047Y20623810D01*
X23920857Y20547620D01*
X23882761Y20471429D01*
X23844666Y20319048D01*
X23844666Y20204762D01*
X23882761Y20052381D01*
X23920857Y19976191D01*
X23997047Y19900000D01*
X24111333Y19861905D01*
X24187523Y19861905D01*
X24301809Y19900000D01*
X24339904Y19938096D01*
X24911333Y19861905D02*
X24911333Y20433334D01*
X24873238Y20547620D01*
X24797047Y20623810D01*
X24682761Y20661905D01*
X24606571Y20661905D01*
X25673238Y20661905D02*
X25292285Y20661905D01*
X25292285Y19861905D01*
X26397047Y20585715D02*
X26358952Y20623810D01*
X26244666Y20661905D01*
X26168476Y20661905D01*
X26054190Y20623810D01*
X25978000Y20547620D01*
X25939904Y20471429D01*
X25901809Y20319048D01*
X25901809Y20204762D01*
X25939904Y20052381D01*
X25978000Y19976191D01*
X26054190Y19900000D01*
X26168476Y19861905D01*
X26244666Y19861905D01*
X26358952Y19900000D01*
X26397047Y19938096D01*
X26968476Y19861905D02*
X26968476Y20433334D01*
X26930380Y20547620D01*
X26854190Y20623810D01*
X26739904Y20661905D01*
X26663714Y20661905D01*
X27730380Y20661905D02*
X27349428Y20661905D01*
X27349428Y19861905D01*
X28454190Y20585715D02*
X28416095Y20623810D01*
X28301809Y20661905D01*
X28225619Y20661905D01*
X28111333Y20623810D01*
X28035142Y20547620D01*
X27997047Y20471429D01*
X27958952Y20319048D01*
X27958952Y20204762D01*
X27997047Y20052381D01*
X28035142Y19976191D01*
X28111333Y19900000D01*
X28225619Y19861905D01*
X28301809Y19861905D01*
X28416095Y19900000D01*
X28454190Y19938096D01*
D11*
X20587976Y11260715D02*
X21302261Y11260715D01*
X20873690Y10832143D02*
X20587976Y12117858D01*
X21207023Y11689286D02*
X20492738Y11689286D01*
X20921309Y12117858D02*
X21207023Y10832143D01*
X21826071Y10927381D02*
X21921309Y10927381D01*
X22016547Y10975000D01*
X22064166Y11022620D01*
X22111785Y11117858D01*
X22159404Y11308334D01*
X22159404Y11546429D01*
X22111785Y11736905D01*
X22064166Y11832143D01*
X22016547Y11879762D01*
X21921309Y11927381D01*
X21826071Y11927381D01*
X21730833Y11879762D01*
X21683214Y11832143D01*
X21635595Y11736905D01*
X21587976Y11546429D01*
X21587976Y11308334D01*
X21635595Y11117858D01*
X21683214Y11022620D01*
X21730833Y10975000D01*
X21826071Y10927381D01*
X23111785Y11927381D02*
X22540357Y11927381D01*
X22826071Y11927381D02*
X22826071Y10927381D01*
X22730833Y11070239D01*
X22635595Y11165477D01*
X22540357Y11213096D01*
X23730833Y10927381D02*
X23826071Y10927381D01*
X23921309Y10975000D01*
X23968928Y11022620D01*
X24016547Y11117858D01*
X24064166Y11308334D01*
X24064166Y11546429D01*
X24016547Y11736905D01*
X23968928Y11832143D01*
X23921309Y11879762D01*
X23826071Y11927381D01*
X23730833Y11927381D01*
X23635595Y11879762D01*
X23587976Y11832143D01*
X23540357Y11736905D01*
X23492738Y11546429D01*
X23492738Y11308334D01*
X23540357Y11117858D01*
X23587976Y11022620D01*
X23635595Y10975000D01*
X23730833Y10927381D01*
X24445119Y11022620D02*
X24492738Y10975000D01*
X24587976Y10927381D01*
X24826071Y10927381D01*
X24921309Y10975000D01*
X24968928Y11022620D01*
X25016547Y11117858D01*
X25016547Y11213096D01*
X24968928Y11355953D01*
X24397500Y11927381D01*
X25016547Y11927381D01*
X26207023Y10927381D02*
X26207023Y11736905D01*
X26254642Y11832143D01*
X26302261Y11879762D01*
X26397500Y11927381D01*
X26587976Y11927381D01*
X26683214Y11879762D01*
X26730833Y11832143D01*
X26778452Y11736905D01*
X26778452Y10927381D01*
X27207023Y11879762D02*
X27349880Y11927381D01*
X27587976Y11927381D01*
X27683214Y11879762D01*
X27730833Y11832143D01*
X27778452Y11736905D01*
X27778452Y11641667D01*
X27730833Y11546429D01*
X27683214Y11498810D01*
X27587976Y11451191D01*
X27397500Y11403572D01*
X27302261Y11355953D01*
X27254642Y11308334D01*
X27207023Y11213096D01*
X27207023Y11117858D01*
X27254642Y11022620D01*
X27302261Y10975000D01*
X27397500Y10927381D01*
X27635595Y10927381D01*
X27778452Y10975000D01*
X28540357Y11403572D02*
X28683214Y11451191D01*
X28730833Y11498810D01*
X28778452Y11594048D01*
X28778452Y11736905D01*
X28730833Y11832143D01*
X28683214Y11879762D01*
X28587976Y11927381D01*
X28207023Y11927381D01*
X28207023Y10927381D01*
X28540357Y10927381D01*
X28635595Y10975000D01*
X28683214Y11022620D01*
X28730833Y11117858D01*
X28730833Y11213096D01*
X28683214Y11308334D01*
X28635595Y11355953D01*
X28540357Y11403572D01*
X28207023Y11403572D01*
X29207023Y11546429D02*
X29968928Y11546429D01*
X31016547Y11832143D02*
X30968928Y11879762D01*
X30826071Y11927381D01*
X30730833Y11927381D01*
X30587976Y11879762D01*
X30492738Y11784524D01*
X30445119Y11689286D01*
X30397500Y11498810D01*
X30397500Y11355953D01*
X30445119Y11165477D01*
X30492738Y11070239D01*
X30587976Y10975000D01*
X30730833Y10927381D01*
X30826071Y10927381D01*
X30968928Y10975000D01*
X31016547Y11022620D01*
X20492738Y12577381D02*
X20826071Y13577381D01*
X21159404Y12577381D01*
X22016547Y13577381D02*
X21445119Y13577381D01*
X21730833Y13577381D02*
X21730833Y12577381D01*
X21635595Y12720239D01*
X21540357Y12815477D01*
X21445119Y12863096D01*
X22445119Y13482143D02*
X22492738Y13529762D01*
X22445119Y13577381D01*
X22397500Y13529762D01*
X22445119Y13482143D01*
X22445119Y13577381D01*
X23111785Y12577381D02*
X23207023Y12577381D01*
X23302261Y12625000D01*
X23349880Y12672620D01*
X23397500Y12767858D01*
X23445119Y12958334D01*
X23445119Y13196429D01*
X23397500Y13386905D01*
X23349880Y13482143D01*
X23302261Y13529762D01*
X23207023Y13577381D01*
X23111785Y13577381D01*
X23016547Y13529762D01*
X22968928Y13482143D01*
X22921309Y13386905D01*
X22873690Y13196429D01*
X22873690Y12958334D01*
X22921309Y12767858D01*
X22968928Y12672620D01*
X23016547Y12625000D01*
X23111785Y12577381D01*
M02*
