%TF.GenerationSoftware,KiCad,Pcbnew,(6.0.7-1)-1*%
%TF.CreationDate,2022-09-13T18:31:53+08:00*%
%TF.ProjectId,0102-USB-SWITCH,30313032-2d55-4534-922d-535749544348,V1.1*%
%TF.SameCoordinates,Original*%
%TF.FileFunction,Legend,Bot*%
%TF.FilePolarity,Positive*%
%FSLAX46Y46*%
G04 Gerber Fmt 4.6, Leading zero omitted, Abs format (unit mm)*
G04 Created by KiCad (PCBNEW (6.0.7-1)-1) date 2022-09-13 18:31:53*
%MOMM*%
%LPD*%
G01*
G04 APERTURE LIST*
%ADD10C,0.120000*%
G04 APERTURE END LIST*
D10*
X29238095Y8604762D02*
X28666666Y8604762D01*
X28552380Y8566667D01*
X28476190Y8490477D01*
X28438095Y8376191D01*
X28438095Y8300000D01*
X28438095Y9366667D02*
X28438095Y8985715D01*
X29238095Y8985715D01*
X28514285Y10090477D02*
X28476190Y10052381D01*
X28438095Y9938096D01*
X28438095Y9861905D01*
X28476190Y9747620D01*
X28552380Y9671429D01*
X28628571Y9633334D01*
X28780952Y9595239D01*
X28895238Y9595239D01*
X29047619Y9633334D01*
X29123809Y9671429D01*
X29200000Y9747620D01*
X29238095Y9861905D01*
X29238095Y9938096D01*
X29200000Y10052381D01*
X29161904Y10090477D01*
X29238095Y10661905D02*
X28666666Y10661905D01*
X28552380Y10623810D01*
X28476190Y10547620D01*
X28438095Y10433334D01*
X28438095Y10357143D01*
X28438095Y11423810D02*
X28438095Y11042858D01*
X29238095Y11042858D01*
X28514285Y12147620D02*
X28476190Y12109524D01*
X28438095Y11995239D01*
X28438095Y11919048D01*
X28476190Y11804762D01*
X28552380Y11728572D01*
X28628571Y11690477D01*
X28780952Y11652381D01*
X28895238Y11652381D01*
X29047619Y11690477D01*
X29123809Y11728572D01*
X29200000Y11804762D01*
X29238095Y11919048D01*
X29238095Y11995239D01*
X29200000Y12109524D01*
X29161904Y12147620D01*
X29238095Y12719048D02*
X28666666Y12719048D01*
X28552380Y12680953D01*
X28476190Y12604762D01*
X28438095Y12490477D01*
X28438095Y12414286D01*
X28438095Y13480953D02*
X28438095Y13100000D01*
X29238095Y13100000D01*
X28514285Y14204762D02*
X28476190Y14166667D01*
X28438095Y14052381D01*
X28438095Y13976191D01*
X28476190Y13861905D01*
X28552380Y13785715D01*
X28628571Y13747620D01*
X28780952Y13709524D01*
X28895238Y13709524D01*
X29047619Y13747620D01*
X29123809Y13785715D01*
X29200000Y13861905D01*
X29238095Y13976191D01*
X29238095Y14052381D01*
X29200000Y14166667D01*
X29161904Y14204762D01*
X29238095Y14776191D02*
X28666666Y14776191D01*
X28552380Y14738096D01*
X28476190Y14661905D01*
X28438095Y14547620D01*
X28438095Y14471429D01*
X28438095Y15538096D02*
X28438095Y15157143D01*
X29238095Y15157143D01*
X28514285Y16261905D02*
X28476190Y16223810D01*
X28438095Y16109524D01*
X28438095Y16033334D01*
X28476190Y15919048D01*
X28552380Y15842858D01*
X28628571Y15804762D01*
X28780952Y15766667D01*
X28895238Y15766667D01*
X29047619Y15804762D01*
X29123809Y15842858D01*
X29200000Y15919048D01*
X29238095Y16033334D01*
X29238095Y16109524D01*
X29200000Y16223810D01*
X29161904Y16261905D01*
%TO.C,J2*%
X26050000Y18850000D02*
X29400000Y18850000D01*
X26050000Y5750000D02*
X29400000Y5750000D01*
X26050000Y18850000D02*
X26050000Y5750000D01*
%TD*%
M02*
