%TF.GenerationSoftware,KiCad,Pcbnew,6.0.7+dfsg-1~bpo11+1*%
%TF.CreationDate,2022-09-24T06:18:19+00:00*%
%TF.ProjectId,0102-USB-SWITCH,30313032-2d55-4534-922d-535749544348,V1.2*%
%TF.SameCoordinates,Original*%
%TF.FileFunction,Legend,Bot*%
%TF.FilePolarity,Positive*%
%FSLAX46Y46*%
G04 Gerber Fmt 4.6, Leading zero omitted, Abs format (unit mm)*
G04 Created by KiCad (PCBNEW 6.0.7+dfsg-1~bpo11+1) date 2022-09-24 06:18:19*
%MOMM*%
%LPD*%
G01*
G04 APERTURE LIST*
G04 APERTURE END LIST*
%TO.C,kibuzzard-632D82D3*%
G36*
X22139240Y13782838D02*
G01*
X23138868Y13782838D01*
X23460760Y13300000D01*
X23138868Y12817162D01*
X22139240Y12817162D01*
X22139240Y13643932D01*
X22375132Y13643932D01*
X22389995Y13573368D01*
X22407914Y13495024D01*
X22428750Y13410708D01*
X22452364Y13322225D01*
X22469588Y13261477D01*
X22487924Y13199987D01*
X22507371Y13137758D01*
X22527620Y13075836D01*
X22548364Y13015273D01*
X22569601Y12956068D01*
X22710730Y12956068D01*
X22738233Y13037745D01*
X22767403Y13129423D01*
X22787035Y13193814D01*
X22805927Y13258081D01*
X22824077Y13322225D01*
X22841240Y13385134D01*
X22857168Y13445697D01*
X22871861Y13503914D01*
X22890196Y13581702D01*
X22902976Y13643932D01*
X22758513Y13643932D01*
X22750179Y13586286D01*
X22738511Y13520028D01*
X22724481Y13448352D01*
X22709063Y13374454D01*
X22692394Y13300000D01*
X22674614Y13226658D01*
X22656417Y13157621D01*
X22638498Y13096086D01*
X22620718Y13156788D01*
X22602938Y13225546D01*
X22585714Y13298889D01*
X22569601Y13373343D01*
X22554599Y13447380D01*
X22540708Y13519472D01*
X22528485Y13586147D01*
X22518483Y13643932D01*
X22375132Y13643932D01*
X22139240Y13643932D01*
X22139240Y13782838D01*
G37*
%TO.C,kibuzzard-632D82DD*%
G36*
X22139240Y11282838D02*
G01*
X23138868Y11282838D01*
X23460760Y10800000D01*
X23138868Y10317162D01*
X22139240Y10317162D01*
X22139240Y10456068D01*
X22412359Y10456068D01*
X22522373Y10456068D01*
X22554414Y10532312D01*
X22588307Y10608433D01*
X22624052Y10684430D01*
X22661649Y10760427D01*
X22701099Y10836548D01*
X22742400Y10912792D01*
X22742400Y10456068D01*
X22865749Y10456068D01*
X22865749Y11143932D01*
X22755735Y11143932D01*
X22724620Y11092953D01*
X22693505Y11037808D01*
X22662807Y10980717D01*
X22632942Y10923904D01*
X22604605Y10868064D01*
X22578491Y10813891D01*
X22555293Y10763884D01*
X22535708Y10720546D01*
X22535708Y11143932D01*
X22412359Y11143932D01*
X22412359Y10456068D01*
X22139240Y10456068D01*
X22139240Y11282838D01*
G37*
%TO.C,kibuzzard-632D82E6*%
G36*
X22137943Y9286728D02*
G01*
X23137572Y9286728D01*
X23462057Y8800000D01*
X23137572Y8313272D01*
X22137943Y8313272D01*
X22137943Y8917793D01*
X22405506Y8917793D01*
X22413594Y8843154D01*
X22437856Y8783702D01*
X22478293Y8739437D01*
X22533547Y8708877D01*
X22602259Y8690542D01*
X22684430Y8684430D01*
X22733325Y8684430D01*
X22733325Y8452179D01*
X22870009Y8452179D01*
X22870009Y9131152D01*
X22825003Y9138931D01*
X22774441Y9143932D01*
X22724435Y9146710D01*
X22681096Y9147821D01*
X22600222Y9141833D01*
X22532436Y9123868D01*
X22477737Y9093926D01*
X22437609Y9050402D01*
X22413532Y8991691D01*
X22405506Y8917793D01*
X22137943Y8917793D01*
X22137943Y9286728D01*
G37*
G36*
X22699432Y9028362D02*
G01*
X22733325Y9025584D01*
X22733325Y8803334D01*
X22677762Y8803334D01*
X22620255Y8809862D01*
X22578861Y8829448D01*
X22553858Y8864869D01*
X22545524Y8918904D01*
X22553719Y8970160D01*
X22578306Y9003914D01*
X22616505Y9022667D01*
X22665539Y9028917D01*
X22699432Y9028362D01*
G37*
%TO.C,kibuzzard-632D82EF*%
G36*
X22134239Y6797840D02*
G01*
X23133868Y6797840D01*
X23465761Y6300000D01*
X23133868Y5802160D01*
X22134239Y5802160D01*
X22134239Y6608928D01*
X22391245Y6608928D01*
X22426805Y6500025D01*
X22486813Y6527806D01*
X22560155Y6540030D01*
X22642388Y6522250D01*
X22697395Y6472799D01*
X22728510Y6397234D01*
X22735594Y6350979D01*
X22737955Y6300000D01*
X22733634Y6224991D01*
X22720669Y6164428D01*
X22699061Y6118311D01*
X22651000Y6074555D01*
X22584603Y6059970D01*
X22557933Y6061081D01*
X22531263Y6064415D01*
X22531263Y6315558D01*
X22394579Y6315558D01*
X22394579Y5972181D01*
X22470700Y5952179D01*
X22527790Y5943844D01*
X22595715Y5941066D01*
X22656973Y5946761D01*
X22711841Y5963847D01*
X22759763Y5992184D01*
X22800185Y6031633D01*
X22832689Y6082195D01*
X22856859Y6143869D01*
X22871861Y6216517D01*
X22876861Y6300000D01*
X22871027Y6382649D01*
X22853525Y6455019D01*
X22826022Y6516833D01*
X22790184Y6567811D01*
X22746567Y6607677D01*
X22695728Y6636153D01*
X22639332Y6653239D01*
X22579046Y6658934D01*
X22507371Y6652822D01*
X22452364Y6638931D01*
X22414026Y6622263D01*
X22391245Y6608928D01*
X22134239Y6608928D01*
X22134239Y6797840D01*
G37*
%TD*%
M02*
