M48
; DRILL file {KiCad 6.0.7+dfsg-1~bpo11+1} date Sat Sep 24 06:18:19 2022
; FORMAT={-:-/ absolute / metric / decimal}
; #@! TF.CreationDate,2022-09-24T06:18:19+00:00
; #@! TF.GenerationSoftware,Kicad,Pcbnew,6.0.7+dfsg-1~bpo11+1
; #@! TF.FileFunction,Plated,1,2,PTH
FMAT,2
METRIC
; #@! TA.AperFunction,Plated,PTH,ViaDrill
T1C0.300
; #@! TA.AperFunction,Plated,PTH,ComponentDrill
T2C0.600
; #@! TA.AperFunction,Plated,PTH,ViaDrill
T3C0.700
; #@! TA.AperFunction,Plated,PTH,ComponentDrill
T4C0.800
; #@! TA.AperFunction,Plated,PTH,ComponentDrill
T5C0.900
; #@! TA.AperFunction,Plated,PTH,ComponentDrill
T6C0.920
%
G90
G05
T1
X0.8Y14.8
X0.8Y12.3
X0.8Y9.8
X0.8Y7.3
X0.8Y4.8
X7.3Y18.8
X7.3Y0.8
X9.8Y15.3
X9.8Y14.3
X9.8Y5.3
X9.8Y4.3
X10.8Y15.3
X10.8Y14.3
X10.8Y5.3
X10.8Y4.3
X12.3Y18.8
X12.3Y0.8
X13.8Y4.8
X14.8Y18.8
X14.8Y0.8
X17.3Y18.8
X17.3Y0.8
X18.3Y3.3
X19.8Y18.8
X19.8Y0.8
X21.8Y15.8
X21.8Y14.8
X21.8Y4.8
X21.8Y3.8
X22.3Y18.8
X22.3Y0.8
X22.8Y15.8
X22.8Y14.8
X22.8Y4.8
X22.8Y3.8
T3
X9.8Y12.2
X9.8Y6.55
T4
X13.8Y12.5
X13.8Y7.1
X16.3Y12.5
X16.3Y7.1
X18.8Y12.5
X18.8Y7.1
T6
X24.55Y13.3
X24.55Y10.8
X24.55Y8.8
X24.55Y6.3
T2
G00X3.04Y14.125
M15
G01X2.44Y14.125
M16
G05
G00X3.04Y5.475
M15
G01X2.44Y5.475
M16
G05
G00X7.47Y14.125
M15
G01X6.37Y14.125
M16
G05
G00X7.47Y5.475
M15
G01X6.37Y5.475
M16
G05
T5
G00X24.7Y17.65
M15
G01X26.1Y17.65
M16
G05
G00X24.7Y1.95
M15
G01X26.1Y1.95
M16
G05
T0
M30
