%TF.GenerationSoftware,KiCad,Pcbnew,(6.0.7-1)-1*%
%TF.CreationDate,2022-09-13T18:31:53+08:00*%
%TF.ProjectId,0102-USB-SWITCH,30313032-2d55-4534-922d-535749544348,V1.1*%
%TF.SameCoordinates,Original*%
%TF.FileFunction,Legend,Top*%
%TF.FilePolarity,Positive*%
%FSLAX46Y46*%
G04 Gerber Fmt 4.6, Leading zero omitted, Abs format (unit mm)*
G04 Created by KiCad (PCBNEW (6.0.7-1)-1) date 2022-09-13 18:31:53*
%MOMM*%
%LPD*%
G01*
G04 APERTURE LIST*
%ADD10C,0.150000*%
%ADD11C,0.120000*%
G04 APERTURE END LIST*
D10*
X3635595Y19347620D02*
X3635595Y18538096D01*
X3683214Y18442858D01*
X3730833Y18395239D01*
X3826071Y18347620D01*
X4016547Y18347620D01*
X4111785Y18395239D01*
X4159404Y18442858D01*
X4207023Y18538096D01*
X4207023Y19347620D01*
X4635595Y18395239D02*
X4778452Y18347620D01*
X5016547Y18347620D01*
X5111785Y18395239D01*
X5159404Y18442858D01*
X5207023Y18538096D01*
X5207023Y18633334D01*
X5159404Y18728572D01*
X5111785Y18776191D01*
X5016547Y18823810D01*
X4826071Y18871429D01*
X4730833Y18919048D01*
X4683214Y18966667D01*
X4635595Y19061905D01*
X4635595Y19157143D01*
X4683214Y19252381D01*
X4730833Y19300000D01*
X4826071Y19347620D01*
X5064166Y19347620D01*
X5207023Y19300000D01*
X5968928Y18871429D02*
X6111785Y18823810D01*
X6159404Y18776191D01*
X6207023Y18680953D01*
X6207023Y18538096D01*
X6159404Y18442858D01*
X6111785Y18395239D01*
X6016547Y18347620D01*
X5635595Y18347620D01*
X5635595Y19347620D01*
X5968928Y19347620D01*
X6064166Y19300000D01*
X6111785Y19252381D01*
X6159404Y19157143D01*
X6159404Y19061905D01*
X6111785Y18966667D01*
X6064166Y18919048D01*
X5968928Y18871429D01*
X5635595Y18871429D01*
X7349880Y18395239D02*
X7492738Y18347620D01*
X7730833Y18347620D01*
X7826071Y18395239D01*
X7873690Y18442858D01*
X7921309Y18538096D01*
X7921309Y18633334D01*
X7873690Y18728572D01*
X7826071Y18776191D01*
X7730833Y18823810D01*
X7540357Y18871429D01*
X7445119Y18919048D01*
X7397500Y18966667D01*
X7349880Y19061905D01*
X7349880Y19157143D01*
X7397500Y19252381D01*
X7445119Y19300000D01*
X7540357Y19347620D01*
X7778452Y19347620D01*
X7921309Y19300000D01*
X8254642Y19347620D02*
X8492738Y18347620D01*
X8683214Y19061905D01*
X8873690Y18347620D01*
X9111785Y19347620D01*
X9492738Y18347620D02*
X9492738Y19347620D01*
X9826071Y19347620D02*
X10397500Y19347620D01*
X10111785Y18347620D02*
X10111785Y19347620D01*
X11302261Y18442858D02*
X11254642Y18395239D01*
X11111785Y18347620D01*
X11016547Y18347620D01*
X10873690Y18395239D01*
X10778452Y18490477D01*
X10730833Y18585715D01*
X10683214Y18776191D01*
X10683214Y18919048D01*
X10730833Y19109524D01*
X10778452Y19204762D01*
X10873690Y19300000D01*
X11016547Y19347620D01*
X11111785Y19347620D01*
X11254642Y19300000D01*
X11302261Y19252381D01*
X11730833Y18347620D02*
X11730833Y19347620D01*
X11730833Y18871429D02*
X12302261Y18871429D01*
X12302261Y18347620D02*
X12302261Y19347620D01*
D11*
%TO.C,R1*%
X20953641Y6920000D02*
X20646359Y6920000D01*
X20953641Y7680000D02*
X20646359Y7680000D01*
%TO.C,R2*%
X18953641Y6920000D02*
X18646359Y6920000D01*
X18953641Y7680000D02*
X18646359Y7680000D01*
%TO.C,SW1*%
X17800000Y10300000D02*
X21800000Y10300000D01*
X18800000Y10800000D02*
X20800000Y10800000D01*
X20800000Y13800000D02*
X18800000Y13800000D01*
X15550000Y16550000D02*
X15550000Y9800000D01*
X17300000Y8050000D02*
X24050000Y8050000D01*
X18800000Y13800000D02*
X18800000Y10800000D01*
X17800000Y14300000D02*
X17800000Y10300000D01*
X24050000Y8050000D02*
X24050000Y16550000D01*
X21800000Y10300000D02*
X21800000Y14300000D01*
X21800000Y14300000D02*
X17800000Y14300000D01*
X20800000Y10800000D02*
X20800000Y13800000D01*
X24050000Y16550000D02*
X15550000Y16550000D01*
%TO.C,D1*%
X21285000Y5065000D02*
X21285000Y6535000D01*
X21285000Y6535000D02*
X19000000Y6535000D01*
X19000000Y5065000D02*
X21285000Y5065000D01*
%TO.C,J1*%
X9580000Y11300000D02*
X9580000Y13300000D01*
X7020000Y11300000D02*
X7020000Y13300000D01*
X7020000Y9410000D02*
G75*
G03*
X9580000Y9410000I1280000J0D01*
G01*
X9580000Y15190000D02*
G75*
G03*
X7020000Y15190000I-1280000J0D01*
G01*
%TO.C,R3*%
X8453641Y6920000D02*
X8146359Y6920000D01*
X8453641Y7680000D02*
X8146359Y7680000D01*
%TO.C,R4*%
X8146359Y16920000D02*
X8453641Y16920000D01*
X8146359Y17680000D02*
X8453641Y17680000D01*
%TO.C,kibuzzard-63200097*%
G36*
X24637943Y13786728D02*
G01*
X25637572Y13786728D01*
X25962057Y13300000D01*
X25637572Y12813272D01*
X24637943Y12813272D01*
X24637943Y12952179D01*
X24974913Y12952179D01*
X25111597Y12952179D01*
X25111597Y13184430D01*
X25160492Y13184430D01*
X25242663Y13190542D01*
X25311375Y13208877D01*
X25366629Y13239437D01*
X25407066Y13283702D01*
X25431328Y13343154D01*
X25439416Y13417793D01*
X25431390Y13491691D01*
X25407313Y13550402D01*
X25367184Y13593926D01*
X25312486Y13623868D01*
X25244700Y13641833D01*
X25163826Y13647821D01*
X25120487Y13646710D01*
X25070481Y13643932D01*
X25019919Y13638931D01*
X24974913Y13631152D01*
X24974913Y12952179D01*
X24637943Y12952179D01*
X24637943Y13786728D01*
G37*
G36*
X25228417Y13522667D02*
G01*
X25266616Y13503914D01*
X25291203Y13470160D01*
X25299398Y13418904D01*
X25291064Y13364869D01*
X25266061Y13329448D01*
X25224667Y13309862D01*
X25167159Y13303334D01*
X25111597Y13303334D01*
X25111597Y13525584D01*
X25145490Y13528362D01*
X25179383Y13528917D01*
X25228417Y13522667D01*
G37*
%TO.C,kibuzzard-632000A4*%
G36*
X24639240Y9282838D02*
G01*
X25638868Y9282838D01*
X25960760Y8800000D01*
X25638868Y8317162D01*
X24639240Y8317162D01*
X24639240Y9143932D01*
X24944539Y9143932D01*
X24957318Y9081702D01*
X24975654Y9003914D01*
X24990347Y8945697D01*
X25006275Y8885134D01*
X25023438Y8822225D01*
X25041588Y8758081D01*
X25060479Y8693814D01*
X25080111Y8629423D01*
X25109282Y8537745D01*
X25136785Y8456068D01*
X25277914Y8456068D01*
X25299151Y8515273D01*
X25319894Y8575836D01*
X25340144Y8637757D01*
X25359591Y8699987D01*
X25377926Y8761477D01*
X25395151Y8822225D01*
X25418765Y8910708D01*
X25439601Y8995024D01*
X25457520Y9073368D01*
X25472383Y9143932D01*
X25329031Y9143932D01*
X25319030Y9086147D01*
X25306806Y9019472D01*
X25292916Y8947380D01*
X25277914Y8873342D01*
X25261801Y8798889D01*
X25244576Y8725546D01*
X25226796Y8656788D01*
X25209016Y8596086D01*
X25191097Y8657621D01*
X25172901Y8726658D01*
X25155121Y8800000D01*
X25138452Y8874454D01*
X25123033Y8948352D01*
X25109004Y9020027D01*
X25097336Y9086286D01*
X25089001Y9143932D01*
X24944539Y9143932D01*
X24639240Y9143932D01*
X24639240Y9282838D01*
G37*
%TO.C,kibuzzard-631FFF07*%
G36*
X28800000Y9546217D02*
G01*
X28231040Y9925523D01*
X28231040Y10642650D01*
X28398680Y10642650D01*
X28402490Y10555020D01*
X28417730Y10454690D01*
X29184810Y10454690D01*
X29199415Y10540415D01*
X29203860Y10622330D01*
X29198304Y10699006D01*
X29181635Y10769015D01*
X29152901Y10831086D01*
X29111150Y10883950D01*
X29055746Y10926971D01*
X28986055Y10959515D01*
X28901124Y10979994D01*
X28800000Y10986820D01*
X28701099Y10980629D01*
X28617755Y10962055D01*
X28548857Y10932369D01*
X28493295Y10892840D01*
X28450909Y10843469D01*
X28421540Y10784255D01*
X28404395Y10716786D01*
X28398680Y10642650D01*
X28231040Y10642650D01*
X28231040Y11101120D01*
X28407570Y11101120D01*
X29193700Y11101120D01*
X29193700Y11605310D01*
X29064160Y11605310D01*
X29064160Y11257330D01*
X28843180Y11257330D01*
X28843180Y11535460D01*
X28713640Y11535460D01*
X28713640Y11257330D01*
X28537110Y11257330D01*
X28537110Y11577370D01*
X28407570Y11577370D01*
X28407570Y11101120D01*
X28231040Y11101120D01*
X28231040Y11672620D01*
X28407570Y11672620D01*
X28478690Y11687225D01*
X28567590Y11708180D01*
X28634124Y11724972D01*
X28703339Y11743176D01*
X28775235Y11762790D01*
X28848542Y11783533D01*
X28921991Y11805123D01*
X28995580Y11827560D01*
X29100355Y11860897D01*
X29193700Y11892330D01*
X29193700Y12053620D01*
X29126037Y12077891D01*
X29056822Y12101598D01*
X28986055Y12124740D01*
X28914935Y12146965D01*
X28844662Y12167920D01*
X28775235Y12187605D01*
X28674111Y12214593D01*
X28577750Y12238405D01*
X28488215Y12258884D01*
X28407570Y12275870D01*
X28407570Y12112040D01*
X28473610Y12100610D01*
X28549810Y12086640D01*
X28632201Y12070765D01*
X28716815Y12053620D01*
X28801905Y12035205D01*
X28885725Y12015520D01*
X28964306Y11995200D01*
X29033680Y11974880D01*
X28963354Y11954401D01*
X28884455Y11933605D01*
X28800635Y11913285D01*
X28715545Y11894235D01*
X28631090Y11876614D01*
X28549175Y11860580D01*
X28473451Y11847245D01*
X28407570Y11837720D01*
X28407570Y11672620D01*
X28231040Y11672620D01*
X28231040Y12359690D01*
X28407570Y12359690D01*
X28537110Y12359690D01*
X28537110Y12531140D01*
X29064160Y12531140D01*
X29064160Y12359690D01*
X29193700Y12359690D01*
X29193700Y12858800D01*
X29064160Y12858800D01*
X29064160Y12688620D01*
X28537110Y12688620D01*
X28537110Y12858800D01*
X28407570Y12858800D01*
X28407570Y12359690D01*
X28231040Y12359690D01*
X28231040Y13317270D01*
X28389790Y13317270D01*
X28396616Y13242816D01*
X28417095Y13174395D01*
X28450750Y13113435D01*
X28497105Y13061365D01*
X28555684Y13018979D01*
X28626010Y12987070D01*
X28707607Y12967068D01*
X28800000Y12960400D01*
X28892789Y12965877D01*
X28974307Y12982308D01*
X29044554Y13009692D01*
X29103530Y13048030D01*
X29162797Y13115199D01*
X29198357Y13199866D01*
X29210210Y13302030D01*
X29205924Y13371404D01*
X29193065Y13432205D01*
X29155600Y13521740D01*
X29032410Y13482370D01*
X29060350Y13418235D01*
X29074320Y13317270D01*
X29056381Y13226624D01*
X29002565Y13165505D01*
X28947743Y13139752D01*
X28878952Y13124301D01*
X28796190Y13119150D01*
X28725070Y13123436D01*
X28666650Y13136295D01*
X28583465Y13180745D01*
X28539015Y13242975D01*
X28525680Y13314730D01*
X28539015Y13409345D01*
X28571400Y13479830D01*
X28446940Y13520470D01*
X28431700Y13494435D01*
X28412650Y13451890D01*
X28396775Y13392835D01*
X28389790Y13317270D01*
X28231040Y13317270D01*
X28231040Y13641120D01*
X28407570Y13641120D01*
X29193700Y13641120D01*
X29193700Y14145310D01*
X29064160Y14145310D01*
X29064160Y13797330D01*
X28843180Y13797330D01*
X28843180Y14075460D01*
X28713640Y14075460D01*
X28713640Y13797330D01*
X28537110Y13797330D01*
X28537110Y14117370D01*
X28407570Y14117370D01*
X28407570Y13641120D01*
X28231040Y13641120D01*
X28231040Y14674477D01*
X28800000Y15053783D01*
X29368960Y14674477D01*
X29368960Y9925523D01*
X28800000Y9546217D01*
G37*
G36*
X28856039Y10825689D02*
G01*
X28907315Y10818545D01*
X28991770Y10786795D01*
X29047650Y10728375D01*
X29067970Y10638840D01*
X29067970Y10624870D01*
X29066700Y10610900D01*
X28538380Y10610900D01*
X28535205Y10633760D01*
X28534570Y10656620D01*
X28556795Y10741710D01*
X28615850Y10793780D01*
X28700940Y10820450D01*
X28800000Y10828070D01*
X28856039Y10825689D01*
G37*
%TO.C,kibuzzard-631FFF00*%
G36*
X12305245Y12753549D02*
G01*
X12356680Y12750215D01*
X12443675Y12732435D01*
X12502730Y12694970D01*
X12524320Y12630200D01*
X12502730Y12565430D01*
X12444310Y12527965D01*
X12357315Y12510185D01*
X12305404Y12506851D01*
X12250000Y12505740D01*
X12194755Y12506851D01*
X12143320Y12510185D01*
X12056325Y12527965D01*
X11997270Y12566065D01*
X11975680Y12630200D01*
X11997270Y12694970D01*
X12055690Y12732435D01*
X12142685Y12750215D01*
X12194596Y12753549D01*
X12250000Y12754660D01*
X12305245Y12753549D01*
G37*
G36*
X12250000Y14054717D02*
G01*
X12818960Y14434023D01*
X12818960Y10165977D01*
X12250000Y10545283D01*
X11681040Y10165977D01*
X11681040Y11281460D01*
X11856300Y11281460D01*
X12512890Y11281460D01*
X12512890Y11074450D01*
X12642430Y11074450D01*
X12642430Y11645950D01*
X12512890Y11645950D01*
X12512890Y11438940D01*
X11856300Y11438940D01*
X11856300Y11281460D01*
X11681040Y11281460D01*
X11681040Y12018060D01*
X11839790Y12018060D01*
X11846493Y11928948D01*
X11866601Y11856347D01*
X11900115Y11800255D01*
X11972981Y11746439D01*
X12070930Y11728500D01*
X12130144Y11733897D01*
X12178245Y11750090D01*
X12249365Y11805335D01*
X12295085Y11878995D01*
X12326200Y11955830D01*
X12345250Y12004725D01*
X12368745Y12049175D01*
X12399225Y12081560D01*
X12439230Y12094260D01*
X12489324Y12080431D01*
X12519381Y12038944D01*
X12529400Y11969800D01*
X12516700Y11880265D01*
X12486220Y11809780D01*
X12606870Y11764060D01*
X12643700Y11854865D01*
X12656083Y11913444D01*
X12660210Y11981230D01*
X12653296Y12059053D01*
X12632552Y12124881D01*
X12597980Y12178715D01*
X12523685Y12232531D01*
X12425260Y12250470D01*
X12331915Y12230150D01*
X12269050Y12178715D01*
X12227140Y12109500D01*
X12197930Y12035840D01*
X12175705Y11982500D01*
X12149035Y11934240D01*
X12115380Y11898680D01*
X12072200Y11884710D01*
X12034735Y11890425D01*
X12001715Y11911380D01*
X11978855Y11952655D01*
X11970600Y12018060D01*
X11975045Y12081401D01*
X11988380Y12134265D01*
X12026480Y12216180D01*
X11899480Y12261900D01*
X11860745Y12174270D01*
X11845029Y12106008D01*
X11839790Y12018060D01*
X11681040Y12018060D01*
X11681040Y12628930D01*
X11839790Y12628930D01*
X11851291Y12545957D01*
X11885792Y12476530D01*
X11943295Y12420650D01*
X12001278Y12388424D01*
X12071724Y12365405D01*
X12154631Y12351594D01*
X12250000Y12346990D01*
X12345369Y12351514D01*
X12428276Y12365088D01*
X12498722Y12387709D01*
X12556705Y12419380D01*
X12614208Y12474978D01*
X12648709Y12545251D01*
X12660210Y12630200D01*
X12648709Y12712609D01*
X12614208Y12782036D01*
X12556705Y12838480D01*
X12498722Y12871262D01*
X12428276Y12894678D01*
X12345369Y12908727D01*
X12250000Y12913410D01*
X12154631Y12908846D01*
X12071724Y12895154D01*
X12001278Y12872333D01*
X11943295Y12840385D01*
X11885792Y12784434D01*
X11851291Y12713949D01*
X11839790Y12628930D01*
X11681040Y12628930D01*
X11681040Y13004850D01*
X11856300Y13004850D01*
X12642430Y13004850D01*
X12642430Y13161060D01*
X12332550Y13161060D01*
X12332550Y13369340D01*
X12642430Y13369340D01*
X12642430Y13525550D01*
X11856300Y13525550D01*
X11856300Y13369340D01*
X12203010Y13369340D01*
X12203010Y13161060D01*
X11856300Y13161060D01*
X11856300Y13004850D01*
X11681040Y13004850D01*
X11681040Y14434023D01*
X12250000Y14054717D01*
G37*
%TO.C,kibuzzard-6320009C*%
G36*
X24634239Y16297840D02*
G01*
X25633868Y16297840D01*
X25965761Y15800000D01*
X25633868Y15302160D01*
X24634239Y15302160D01*
X24634239Y15800000D01*
X24960652Y15800000D01*
X24965653Y15716517D01*
X24980655Y15643869D01*
X25004824Y15582195D01*
X25037328Y15531633D01*
X25077750Y15492184D01*
X25125673Y15463847D01*
X25180541Y15446761D01*
X25241798Y15441066D01*
X25309723Y15443844D01*
X25366814Y15452179D01*
X25442935Y15472181D01*
X25442935Y15815558D01*
X25306251Y15815558D01*
X25306251Y15564415D01*
X25279581Y15561081D01*
X25252911Y15559970D01*
X25186514Y15574555D01*
X25138452Y15618311D01*
X25116844Y15664428D01*
X25103880Y15724991D01*
X25099558Y15800000D01*
X25101920Y15850979D01*
X25109004Y15897234D01*
X25140119Y15972799D01*
X25195126Y16022250D01*
X25277358Y16040030D01*
X25350701Y16027806D01*
X25410708Y16000025D01*
X25446268Y16108928D01*
X25423488Y16122263D01*
X25385150Y16138931D01*
X25330143Y16152822D01*
X25258467Y16158934D01*
X25198182Y16153239D01*
X25141786Y16136153D01*
X25090946Y16107677D01*
X25047330Y16067811D01*
X25011492Y16016833D01*
X24983988Y15955019D01*
X24966486Y15882649D01*
X24960652Y15800000D01*
X24634239Y15800000D01*
X24634239Y16297840D01*
G37*
%TO.C,kibuzzard-631FFEA9*%
G36*
X22394512Y5781017D02*
G01*
X22343889Y5788527D01*
X22294246Y5800962D01*
X22246060Y5818203D01*
X22199797Y5840084D01*
X22155901Y5866394D01*
X22114795Y5896880D01*
X22081194Y5927334D01*
X22445727Y5927334D01*
X22592173Y5927334D01*
X22592173Y6176175D01*
X22644561Y6176175D01*
X22732601Y6182723D01*
X22806221Y6202369D01*
X22865422Y6235111D01*
X22908747Y6282537D01*
X22934743Y6346236D01*
X22943408Y6426206D01*
X22934809Y6505383D01*
X22909012Y6568287D01*
X22866017Y6614920D01*
X22807412Y6647001D01*
X22742021Y6664331D01*
X23004130Y6664331D01*
X23006809Y6573397D01*
X23010083Y6479189D01*
X23014101Y6383641D01*
X23019012Y6288689D01*
X23024817Y6194630D01*
X23031514Y6101761D01*
X23039253Y6012018D01*
X23048183Y5927334D01*
X23169627Y5927334D01*
X23194630Y6005618D01*
X23222014Y6090450D01*
X23249994Y6175282D01*
X23276783Y6253566D01*
X23302977Y6173050D01*
X23329170Y6088664D01*
X23355364Y6005171D01*
X23381558Y5927334D01*
X23503002Y5927334D01*
X23636352Y5927334D01*
X23782798Y5927334D01*
X23782798Y6198797D01*
X23858998Y6198797D01*
X23899331Y6131378D01*
X23936984Y6064852D01*
X23971066Y5997432D01*
X24000683Y5927334D01*
X24154273Y5927334D01*
X24120341Y6005320D01*
X24079264Y6087473D01*
X24035211Y6166055D01*
X23992348Y6234516D01*
X24044438Y6268151D01*
X24079264Y6314288D01*
X24098909Y6369652D01*
X24105458Y6430969D01*
X24100546Y6488863D01*
X24085812Y6538720D01*
X24029258Y6614325D01*
X23988777Y6640221D01*
X23941152Y6658378D01*
X23886978Y6669094D01*
X23826852Y6672666D01*
X23785180Y6671475D01*
X23735173Y6668498D01*
X23683381Y6662545D01*
X23636352Y6653616D01*
X23636352Y5927334D01*
X23503002Y5927334D01*
X23510889Y6011869D01*
X23517884Y6101166D01*
X23523986Y6193588D01*
X23529195Y6287498D01*
X23533660Y6382451D01*
X23537530Y6477998D01*
X23541102Y6572504D01*
X23544673Y6664331D01*
X23408942Y6664331D01*
X23409240Y6592745D01*
X23410133Y6518480D01*
X23411323Y6443321D01*
X23412514Y6369056D01*
X23413705Y6295982D01*
X23414895Y6224395D01*
X23415788Y6155786D01*
X23416086Y6091641D01*
X23389297Y6186891D01*
X23364294Y6273806D01*
X23343458Y6347625D01*
X23329170Y6403584D01*
X23222014Y6403584D01*
X23205345Y6345244D01*
X23182128Y6264281D01*
X23155934Y6174984D01*
X23131527Y6091641D01*
X23131824Y6155786D01*
X23132717Y6224395D01*
X23133908Y6296130D01*
X23135098Y6369652D01*
X23136289Y6444214D01*
X23137480Y6519075D01*
X23138670Y6592894D01*
X23139861Y6664331D01*
X23004130Y6664331D01*
X22742021Y6664331D01*
X22734784Y6666249D01*
X22648133Y6672666D01*
X22601698Y6671475D01*
X22548120Y6668498D01*
X22493947Y6663141D01*
X22445727Y6654806D01*
X22445727Y5927334D01*
X22081194Y5927334D01*
X22076876Y5931248D01*
X22042507Y5969168D01*
X22012021Y6010274D01*
X21985711Y6054170D01*
X21963830Y6100433D01*
X21946589Y6148618D01*
X21934154Y6198262D01*
X21926645Y6248885D01*
X21924134Y6300000D01*
X21926645Y6351115D01*
X21934154Y6401738D01*
X21946589Y6451382D01*
X21963830Y6499567D01*
X21985711Y6545830D01*
X22012021Y6589726D01*
X22042507Y6630832D01*
X22076876Y6668752D01*
X22114795Y6703120D01*
X22155901Y6733606D01*
X22199797Y6759916D01*
X22246060Y6781797D01*
X22294246Y6799038D01*
X22343889Y6811473D01*
X22394512Y6818983D01*
X22445627Y6821494D01*
X24154373Y6821494D01*
X24205488Y6818983D01*
X24256111Y6811473D01*
X24305754Y6799038D01*
X24353940Y6781797D01*
X24400203Y6759916D01*
X24444099Y6733606D01*
X24485205Y6703120D01*
X24523124Y6668752D01*
X24557493Y6630832D01*
X24587979Y6589726D01*
X24614289Y6545830D01*
X24636170Y6499567D01*
X24653411Y6451382D01*
X24665846Y6401738D01*
X24673355Y6351115D01*
X24675866Y6300000D01*
X24673355Y6248885D01*
X24665846Y6198262D01*
X24653411Y6148618D01*
X24636170Y6100433D01*
X24614289Y6054170D01*
X24587979Y6010274D01*
X24557493Y5969168D01*
X24523124Y5931248D01*
X24485205Y5896880D01*
X24444099Y5866394D01*
X24400203Y5840084D01*
X24353940Y5818203D01*
X24305754Y5800962D01*
X24256111Y5788527D01*
X24205488Y5781017D01*
X24154373Y5778506D01*
X22445627Y5778506D01*
X22394512Y5781017D01*
G37*
G36*
X23879537Y6538423D02*
G01*
X23920911Y6517884D01*
X23947700Y6482761D01*
X23956630Y6432159D01*
X23923292Y6349411D01*
X23879537Y6327533D01*
X23814945Y6320241D01*
X23782798Y6320241D01*
X23782798Y6541697D01*
X23806611Y6544673D01*
X23826852Y6545269D01*
X23879537Y6538423D01*
G37*
G36*
X22717338Y6538571D02*
G01*
X22758266Y6518480D01*
X22784608Y6482314D01*
X22793389Y6427397D01*
X22784459Y6369503D01*
X22757670Y6331552D01*
X22713320Y6310567D01*
X22651705Y6303572D01*
X22592173Y6303572D01*
X22592173Y6541697D01*
X22628487Y6544673D01*
X22664802Y6545269D01*
X22717338Y6538571D01*
G37*
%TO.C,kibuzzard-631FFD46*%
G36*
X3670736Y3313404D02*
G01*
X3623272Y3320445D01*
X3576726Y3332104D01*
X3531548Y3348269D01*
X3488172Y3368785D01*
X3447015Y3393453D01*
X3408475Y3422037D01*
X3372921Y3454260D01*
X3340698Y3489813D01*
X3312114Y3528354D01*
X3287446Y3569511D01*
X3266930Y3612887D01*
X3250765Y3658065D01*
X3239106Y3704611D01*
X3232066Y3752075D01*
X3229711Y3800000D01*
X3232066Y3847925D01*
X3239106Y3895389D01*
X3250765Y3941935D01*
X3266930Y3987113D01*
X3287446Y4030489D01*
X3312114Y4071646D01*
X3340698Y4110187D01*
X3372921Y4145740D01*
X3377670Y4150044D01*
X3718754Y4150044D01*
X3731533Y4087814D01*
X3749869Y4010026D01*
X3764562Y3951809D01*
X3780490Y3891246D01*
X3797653Y3828337D01*
X3815803Y3764193D01*
X3834694Y3699926D01*
X3854326Y3635535D01*
X3883497Y3543857D01*
X3911000Y3462180D01*
X4052129Y3462180D01*
X4073366Y3521385D01*
X4094109Y3581948D01*
X4114359Y3643869D01*
X4133806Y3706099D01*
X4152141Y3767589D01*
X4169366Y3828337D01*
X4192980Y3916820D01*
X4213816Y4001136D01*
X4215087Y4006693D01*
X4313273Y4006693D01*
X4357723Y3893345D01*
X4425509Y3920571D01*
X4496629Y3960020D01*
X4496629Y3575528D01*
X4352166Y3575528D01*
X4352166Y3462180D01*
X4769996Y3462180D01*
X4769996Y3549969D01*
X4994469Y3549969D01*
X5002803Y3507186D01*
X5025028Y3476071D01*
X5056699Y3456624D01*
X5094481Y3449956D01*
X5163379Y3475515D01*
X5193383Y3549969D01*
X5163379Y3622200D01*
X5094481Y3647759D01*
X5056699Y3641091D01*
X5025028Y3622200D01*
X5002803Y3591641D01*
X4994469Y3549969D01*
X4769996Y3549969D01*
X4769996Y3575528D01*
X4633313Y3575528D01*
X4633313Y4006693D01*
X5424523Y4006693D01*
X5468973Y3893345D01*
X5536759Y3920571D01*
X5607879Y3960020D01*
X5607879Y3575528D01*
X5463416Y3575528D01*
X5463416Y3462180D01*
X5881246Y3462180D01*
X5881246Y3575528D01*
X5744563Y3575528D01*
X5744563Y4150044D01*
X5651218Y4150044D01*
X5603434Y4106705D01*
X5544538Y4066700D01*
X5482308Y4032251D01*
X5424523Y4006693D01*
X4633313Y4006693D01*
X4633313Y4150044D01*
X4539968Y4150044D01*
X4492184Y4106705D01*
X4433288Y4066700D01*
X4371058Y4032251D01*
X4313273Y4006693D01*
X4215087Y4006693D01*
X4231735Y4079479D01*
X4246598Y4150044D01*
X4103246Y4150044D01*
X4093245Y4092259D01*
X4081021Y4025584D01*
X4067131Y3953491D01*
X4052129Y3879454D01*
X4036016Y3805001D01*
X4018791Y3731658D01*
X4001011Y3662900D01*
X3983231Y3602198D01*
X3965312Y3663733D01*
X3947116Y3732769D01*
X3929336Y3806112D01*
X3912667Y3880566D01*
X3897248Y3954464D01*
X3883219Y4026139D01*
X3871551Y4092398D01*
X3863216Y4150044D01*
X3718754Y4150044D01*
X3377670Y4150044D01*
X3408475Y4177963D01*
X3447015Y4206547D01*
X3488172Y4231215D01*
X3531548Y4251731D01*
X3576726Y4267896D01*
X3623272Y4279555D01*
X3670736Y4286596D01*
X3718661Y4288950D01*
X5881339Y4288950D01*
X5929264Y4286596D01*
X5976728Y4279555D01*
X6023274Y4267896D01*
X6068452Y4251731D01*
X6111828Y4231215D01*
X6152985Y4206547D01*
X6191525Y4177963D01*
X6227079Y4145740D01*
X6259302Y4110187D01*
X6287886Y4071646D01*
X6312554Y4030489D01*
X6333070Y3987113D01*
X6349235Y3941935D01*
X6360894Y3895389D01*
X6367934Y3847925D01*
X6370289Y3800000D01*
X6367934Y3752075D01*
X6360894Y3704611D01*
X6349235Y3658065D01*
X6333070Y3612887D01*
X6312554Y3569511D01*
X6287886Y3528354D01*
X6259302Y3489813D01*
X6227079Y3454260D01*
X6191525Y3422037D01*
X6152985Y3393453D01*
X6111828Y3368785D01*
X6068452Y3348269D01*
X6023274Y3332104D01*
X5976728Y3320445D01*
X5929264Y3313404D01*
X5881339Y3311050D01*
X3718661Y3311050D01*
X3670736Y3313404D01*
G37*
%TO.C,kibuzzard-631FFD2B*%
G36*
X3738003Y20163002D02*
G01*
X3675869Y20172219D01*
X3614937Y20187482D01*
X3555794Y20208643D01*
X3499011Y20235500D01*
X3445133Y20267793D01*
X3394680Y20305211D01*
X3348137Y20347395D01*
X3305954Y20393938D01*
X3268535Y20444391D01*
X3236242Y20498268D01*
X3209385Y20555052D01*
X3202002Y20575686D01*
X4054068Y20575686D01*
X4139793Y20575686D01*
X4098359Y20357087D01*
X4244091Y20357087D01*
X4284096Y20575686D01*
X4398396Y20575686D01*
X4356963Y20357087D01*
X4502695Y20357087D01*
X4544129Y20575686D01*
X4718436Y20575686D01*
X4718436Y20721419D01*
X4571275Y20721419D01*
X4586550Y20801429D01*
X4792731Y20801429D01*
X4797643Y20691772D01*
X4812377Y20597117D01*
X4836933Y20517465D01*
X4871313Y20452814D01*
X4931638Y20389314D01*
X5007838Y20351214D01*
X5099913Y20338514D01*
X5191988Y20351214D01*
X5268188Y20389314D01*
X5328513Y20452814D01*
X5362892Y20517465D01*
X5387448Y20597117D01*
X5402182Y20691772D01*
X5407094Y20801429D01*
X5402182Y20910416D01*
X5387448Y21004490D01*
X5371105Y21057175D01*
X5525680Y21057175D01*
X5582830Y20911442D01*
X5669984Y20946447D01*
X5761424Y20997167D01*
X5761424Y20502820D01*
X5575686Y20502820D01*
X5575686Y20357087D01*
X6112896Y20357087D01*
X6112896Y20502820D01*
X5937160Y20502820D01*
X5937160Y20801429D01*
X6221481Y20801429D01*
X6226393Y20691772D01*
X6241127Y20597117D01*
X6265683Y20517465D01*
X6300063Y20452814D01*
X6360388Y20389314D01*
X6436588Y20351214D01*
X6528663Y20338514D01*
X6620738Y20351214D01*
X6696938Y20389314D01*
X6757263Y20452814D01*
X6791642Y20517465D01*
X6816198Y20597117D01*
X6830932Y20691772D01*
X6835844Y20801429D01*
X6830932Y20910416D01*
X6816198Y21004490D01*
X6791642Y21083652D01*
X6759174Y21144329D01*
X6947286Y21144329D01*
X7034440Y21021456D01*
X7124451Y21088607D01*
X7211605Y21108610D01*
X7294473Y21079321D01*
X7327334Y20995739D01*
X7300902Y20920015D01*
X7233751Y20842862D01*
X7191603Y20801965D01*
X7146597Y20759281D01*
X7101591Y20713918D01*
X7059443Y20664983D01*
X7022296Y20611941D01*
X6992292Y20554255D01*
X6972468Y20491390D01*
X6965860Y20422810D01*
X6965146Y20392806D01*
X6968718Y20357087D01*
X7545933Y20357087D01*
X7545933Y20502820D01*
X7165885Y20502820D01*
X7180887Y20549969D01*
X7217320Y20600689D01*
X7263040Y20649267D01*
X7305903Y20689986D01*
X7378769Y20761424D01*
X7443063Y20838576D01*
X7488783Y20920729D01*
X7505928Y21008597D01*
X7483068Y21119326D01*
X7421631Y21198621D01*
X7333049Y21245770D01*
X7228750Y21261486D01*
X7154276Y21254342D01*
X7079446Y21232911D01*
X7008901Y21196478D01*
X6947286Y21144329D01*
X6759174Y21144329D01*
X6757263Y21147901D01*
X6696938Y21211004D01*
X6620738Y21248866D01*
X6528663Y21261486D01*
X6438016Y21248786D01*
X6362293Y21210686D01*
X6301491Y21147186D01*
X6266487Y21082714D01*
X6241484Y21003597D01*
X6226482Y20909835D01*
X6221481Y20801429D01*
X5937160Y20801429D01*
X5937160Y21241484D01*
X5817145Y21241484D01*
X5755709Y21185762D01*
X5679985Y21134328D01*
X5599975Y21090036D01*
X5525680Y21057175D01*
X5371105Y21057175D01*
X5362892Y21083652D01*
X5328513Y21147901D01*
X5268188Y21211004D01*
X5191988Y21248866D01*
X5099913Y21261486D01*
X5009266Y21248786D01*
X4933543Y21210686D01*
X4872741Y21147186D01*
X4837737Y21082714D01*
X4812734Y21003597D01*
X4797732Y20909835D01*
X4792731Y20801429D01*
X4586550Y20801429D01*
X4601279Y20878581D01*
X4718436Y20878581D01*
X4718436Y21024314D01*
X4629854Y21024314D01*
X4671288Y21241484D01*
X4525555Y21241484D01*
X4484121Y21024314D01*
X4369821Y21024314D01*
X4412684Y21241484D01*
X4266951Y21241484D01*
X4225518Y21024314D01*
X4054068Y21024314D01*
X4054068Y20878581D01*
X4196943Y20878581D01*
X4166939Y20721419D01*
X4054068Y20721419D01*
X4054068Y20575686D01*
X3202002Y20575686D01*
X3188224Y20614195D01*
X3172961Y20675127D01*
X3163744Y20737261D01*
X3160662Y20800000D01*
X3163744Y20862739D01*
X3172961Y20924873D01*
X3188224Y20985805D01*
X3209385Y21044948D01*
X3236242Y21101732D01*
X3268535Y21155609D01*
X3305954Y21206062D01*
X3348137Y21252605D01*
X3394680Y21294789D01*
X3445133Y21332207D01*
X3499011Y21364500D01*
X3555794Y21391357D01*
X3614937Y21412518D01*
X3675869Y21427781D01*
X3738003Y21436998D01*
X3800742Y21440080D01*
X7799258Y21440080D01*
X7861997Y21436998D01*
X7924131Y21427781D01*
X7985063Y21412518D01*
X8044206Y21391357D01*
X8100989Y21364500D01*
X8154867Y21332207D01*
X8205320Y21294789D01*
X8251863Y21252605D01*
X8294046Y21206062D01*
X8331465Y21155609D01*
X8363758Y21101732D01*
X8390615Y21044948D01*
X8411776Y20985805D01*
X8427039Y20924873D01*
X8436256Y20862739D01*
X8439338Y20800000D01*
X8436256Y20737261D01*
X8427039Y20675127D01*
X8411776Y20614195D01*
X8390615Y20555052D01*
X8363758Y20498268D01*
X8331465Y20444391D01*
X8294046Y20393938D01*
X8251863Y20347395D01*
X8205320Y20305211D01*
X8154867Y20267793D01*
X8100989Y20235500D01*
X8044206Y20208643D01*
X7985063Y20187482D01*
X7924131Y20172219D01*
X7861997Y20163002D01*
X7799258Y20159920D01*
X3800742Y20159920D01*
X3738003Y20163002D01*
G37*
G36*
X6528663Y20489961D02*
G01*
X6465440Y20509785D01*
X6418649Y20569257D01*
X6397218Y20630296D01*
X6384359Y20707687D01*
X6380073Y20801429D01*
X6380732Y20815716D01*
X6450081Y20815716D01*
X6471513Y20749279D01*
X6530091Y20721419D01*
X6586527Y20749279D01*
X6608673Y20815716D01*
X6586527Y20882867D01*
X6530091Y20911442D01*
X6471513Y20882867D01*
X6450081Y20815716D01*
X6380732Y20815716D01*
X6384359Y20894377D01*
X6397218Y20971291D01*
X6418649Y21032172D01*
X6465440Y21091644D01*
X6528663Y21111467D01*
X6592778Y21091644D01*
X6639391Y21032172D01*
X6660425Y20971291D01*
X6673046Y20894377D01*
X6677253Y20801429D01*
X6673046Y20707687D01*
X6660425Y20630296D01*
X6639391Y20569257D01*
X6592778Y20509785D01*
X6530091Y20490403D01*
X6528663Y20489961D01*
G37*
G36*
X4426971Y20721419D02*
G01*
X4312671Y20721419D01*
X4342675Y20878581D01*
X4455546Y20878581D01*
X4426971Y20721419D01*
G37*
G36*
X5099913Y20489961D02*
G01*
X5036690Y20509785D01*
X4989899Y20569257D01*
X4968468Y20630296D01*
X4955609Y20707687D01*
X4951323Y20801429D01*
X4951982Y20815716D01*
X5021331Y20815716D01*
X5042763Y20749279D01*
X5101341Y20721419D01*
X5157777Y20749279D01*
X5179923Y20815716D01*
X5157777Y20882867D01*
X5101341Y20911442D01*
X5042763Y20882867D01*
X5021331Y20815716D01*
X4951982Y20815716D01*
X4955609Y20894377D01*
X4968468Y20971291D01*
X4989899Y21032172D01*
X5036690Y21091644D01*
X5099913Y21111467D01*
X5164028Y21091644D01*
X5210641Y21032172D01*
X5231675Y20971291D01*
X5244296Y20894377D01*
X5248503Y20801429D01*
X5244296Y20707687D01*
X5231675Y20630296D01*
X5210641Y20569257D01*
X5164028Y20509785D01*
X5101341Y20490403D01*
X5099913Y20489961D01*
G37*
%TO.C,kibuzzard-632000A0*%
G36*
X24639240Y11782838D02*
G01*
X25638868Y11782838D01*
X25960760Y11300000D01*
X25638868Y10817162D01*
X24639240Y10817162D01*
X24639240Y10956068D01*
X24981766Y10956068D01*
X25105115Y10956068D01*
X25105115Y11412792D01*
X25146416Y11336548D01*
X25185865Y11260427D01*
X25223463Y11184430D01*
X25259208Y11108433D01*
X25293101Y11032312D01*
X25325142Y10956068D01*
X25435156Y10956068D01*
X25435156Y11643932D01*
X25311807Y11643932D01*
X25311807Y11220546D01*
X25292221Y11263884D01*
X25269024Y11313891D01*
X25242910Y11368064D01*
X25214573Y11423904D01*
X25184708Y11480717D01*
X25154010Y11537807D01*
X25122895Y11592953D01*
X25091780Y11643932D01*
X24981766Y11643932D01*
X24981766Y10956068D01*
X24639240Y10956068D01*
X24639240Y11782838D01*
G37*
%TD*%
M02*
