%TF.GenerationSoftware,KiCad,Pcbnew,(6.0.7-1)-1*%
%TF.CreationDate,2022-09-13T18:31:53+08:00*%
%TF.ProjectId,0102-USB-SWITCH,30313032-2d55-4534-922d-535749544348,V1.1*%
%TF.SameCoordinates,Original*%
%TF.FileFunction,Soldermask,Top*%
%TF.FilePolarity,Negative*%
%FSLAX46Y46*%
G04 Gerber Fmt 4.6, Leading zero omitted, Abs format (unit mm)*
G04 Created by KiCad (PCBNEW (6.0.7-1)-1) date 2022-09-13 18:31:53*
%MOMM*%
%LPD*%
G01*
G04 APERTURE LIST*
G04 Aperture macros list*
%AMRoundRect*
0 Rectangle with rounded corners*
0 $1 Rounding radius*
0 $2 $3 $4 $5 $6 $7 $8 $9 X,Y pos of 4 corners*
0 Add a 4 corners polygon primitive as box body*
4,1,4,$2,$3,$4,$5,$6,$7,$8,$9,$2,$3,0*
0 Add four circle primitives for the rounded corners*
1,1,$1+$1,$2,$3*
1,1,$1+$1,$4,$5*
1,1,$1+$1,$6,$7*
1,1,$1+$1,$8,$9*
0 Add four rect primitives between the rounded corners*
20,1,$1+$1,$2,$3,$4,$5,0*
20,1,$1+$1,$4,$5,$6,$7,0*
20,1,$1+$1,$6,$7,$8,$9,0*
20,1,$1+$1,$8,$9,$2,$3,0*%
G04 Aperture macros list end*
%ADD10RoundRect,0.185000X0.135000X0.185000X-0.135000X0.185000X-0.135000X-0.185000X0.135000X-0.185000X0*%
%ADD11RoundRect,0.050000X0.650000X-0.650000X0.650000X0.650000X-0.650000X0.650000X-0.650000X-0.650000X0*%
%ADD12C,1.500000*%
%ADD13C,2.300000*%
%ADD14RoundRect,0.268750X0.218750X0.256250X-0.218750X0.256250X-0.218750X-0.256250X0.218750X-0.256250X0*%
%ADD15C,0.700000*%
%ADD16O,1.300000X2.200000*%
%ADD17RoundRect,0.185000X-0.135000X-0.185000X0.135000X-0.185000X0.135000X0.185000X-0.135000X0.185000X0*%
%ADD18C,1.520000*%
%ADD19O,3.400000X2.000000*%
G04 APERTURE END LIST*
D10*
%TO.C,R1*%
X21310000Y7300000D03*
X20290000Y7300000D03*
%TD*%
%TO.C,R2*%
X19310000Y7300000D03*
X18290000Y7300000D03*
%TD*%
D11*
%TO.C,SW1*%
X17300000Y9600000D03*
D12*
X19800000Y9600000D03*
X22300000Y9600000D03*
X17300000Y15000000D03*
X19800000Y15000000D03*
X22300000Y15000000D03*
%TD*%
D13*
%TO.C,H1*%
X32300000Y22300000D03*
%TD*%
%TO.C,H2*%
X2300000Y12300000D03*
%TD*%
%TO.C,H3*%
X32300000Y2300000D03*
%TD*%
D14*
%TO.C,D1*%
X20587500Y5800000D03*
X19012500Y5800000D03*
%TD*%
D15*
%TO.C,J1*%
X7600000Y9050000D03*
X7600000Y10000000D03*
X7600000Y10950000D03*
X7600000Y11850000D03*
X7600000Y12750000D03*
X7600000Y14600000D03*
X7600000Y15550000D03*
X9000000Y15550000D03*
X9000000Y14600000D03*
X9000000Y13650000D03*
X9000000Y12750000D03*
X9000000Y11850000D03*
X9000000Y10000000D03*
X9000000Y9050000D03*
D16*
X10230000Y10300000D03*
X10230000Y14300000D03*
X6370000Y14300000D03*
X6370000Y10300000D03*
%TD*%
D10*
%TO.C,R3*%
X8810000Y7300000D03*
X7790000Y7300000D03*
%TD*%
D17*
%TO.C,R4*%
X7790000Y17300000D03*
X8810000Y17300000D03*
%TD*%
D18*
%TO.C,J2*%
X27050000Y8800000D03*
X27050000Y11300000D03*
X27050000Y13300000D03*
X27050000Y15800000D03*
D19*
X27900000Y4450000D03*
X27900000Y20150000D03*
%TD*%
M02*
