%TF.GenerationSoftware,KiCad,Pcbnew,6.0.7+dfsg-1~bpo11+1*%
%TF.CreationDate,2022-09-24T06:18:19+00:00*%
%TF.ProjectId,0102-USB-SWITCH,30313032-2d55-4534-922d-535749544348,V1.2*%
%TF.SameCoordinates,Original*%
%TF.FileFunction,Soldermask,Top*%
%TF.FilePolarity,Negative*%
%FSLAX46Y46*%
G04 Gerber Fmt 4.6, Leading zero omitted, Abs format (unit mm)*
G04 Created by KiCad (PCBNEW 6.0.7+dfsg-1~bpo11+1) date 2022-09-24 06:18:19*
%MOMM*%
%LPD*%
G01*
G04 APERTURE LIST*
G04 Aperture macros list*
%AMRoundRect*
0 Rectangle with rounded corners*
0 $1 Rounding radius*
0 $2 $3 $4 $5 $6 $7 $8 $9 X,Y pos of 4 corners*
0 Add a 4 corners polygon primitive as box body*
4,1,4,$2,$3,$4,$5,$6,$7,$8,$9,$2,$3,0*
0 Add four circle primitives for the rounded corners*
1,1,$1+$1,$2,$3*
1,1,$1+$1,$4,$5*
1,1,$1+$1,$6,$7*
1,1,$1+$1,$8,$9*
0 Add four rect primitives between the rounded corners*
20,1,$1+$1,$2,$3,$4,$5,0*
20,1,$1+$1,$4,$5,$6,$7,0*
20,1,$1+$1,$6,$7,$8,$9,0*
20,1,$1+$1,$8,$9,$2,$3,0*%
G04 Aperture macros list end*
%ADD10RoundRect,0.185000X0.135000X0.185000X-0.135000X0.185000X-0.135000X-0.185000X0.135000X-0.185000X0*%
%ADD11RoundRect,0.050000X0.650000X-0.650000X0.650000X0.650000X-0.650000X0.650000X-0.650000X-0.650000X0*%
%ADD12C,1.500000*%
%ADD13RoundRect,0.268750X0.218750X0.256250X-0.218750X0.256250X-0.218750X-0.256250X0.218750X-0.256250X0*%
%ADD14C,1.520000*%
%ADD15O,3.400000X2.000000*%
%ADD16RoundRect,0.050000X1.300000X-1.050000X1.300000X1.050000X-1.300000X1.050000X-1.300000X-1.050000X0*%
%ADD17C,0.750000*%
%ADD18RoundRect,0.050000X-0.725000X0.300000X-0.725000X-0.300000X0.725000X-0.300000X0.725000X0.300000X0*%
%ADD19RoundRect,0.050000X-0.725000X0.150000X-0.725000X-0.150000X0.725000X-0.150000X0.725000X0.150000X0*%
%ADD20RoundRect,0.400000X-0.650000X0.350000X-0.650000X-0.350000X0.650000X-0.350000X0.650000X0.350000X0*%
%ADD21RoundRect,0.400000X-0.700000X0.350000X-0.700000X-0.350000X0.700000X-0.350000X0.700000X0.350000X0*%
G04 APERTURE END LIST*
D10*
%TO.C,R1*%
X17810000Y4800000D03*
X16790000Y4800000D03*
%TD*%
%TO.C,R2*%
X15810000Y4800000D03*
X14790000Y4800000D03*
%TD*%
D11*
%TO.C,SW1*%
X13800000Y7100000D03*
D12*
X16300000Y7100000D03*
X18800000Y7100000D03*
X13800000Y12500000D03*
X16300000Y12500000D03*
X18800000Y12500000D03*
%TD*%
D13*
%TO.C,D1*%
X17087500Y3300000D03*
X15512500Y3300000D03*
%TD*%
D14*
%TO.C,J2*%
X24550000Y13300000D03*
X24550000Y10800000D03*
X24550000Y8800000D03*
X24550000Y6300000D03*
D15*
X25400000Y17650000D03*
X25400000Y1950000D03*
D16*
X34500000Y1700000D03*
X34500000Y17900000D03*
%TD*%
D17*
%TO.C,J1*%
X6390000Y6900000D03*
X6390000Y12700000D03*
D18*
X7835000Y13000000D03*
X7835000Y12200000D03*
D19*
X7835000Y11050000D03*
X7835000Y10050000D03*
X7835000Y9550000D03*
X7835000Y8550000D03*
D18*
X7835000Y7400000D03*
X7835000Y6600000D03*
X7835000Y6600000D03*
X7835000Y7400000D03*
D19*
X7835000Y8050000D03*
X7835000Y9050000D03*
X7835000Y10550000D03*
X7835000Y11550000D03*
D18*
X7835000Y12200000D03*
X7835000Y13000000D03*
D20*
X2940000Y14325000D03*
D21*
X6920000Y14325000D03*
X6920000Y5275000D03*
D20*
X2940000Y5275000D03*
%TD*%
D10*
%TO.C,R3*%
X10560000Y11050000D03*
X9540000Y11050000D03*
%TD*%
%TO.C,R4*%
X10560000Y8050000D03*
X9540000Y8050000D03*
%TD*%
M02*
