%TF.GenerationSoftware,KiCad,Pcbnew,(5.1.12-1-10_14)*%
%TF.CreationDate,2022-08-29T02:47:29+08:00*%
%TF.ProjectId,0102_USB-C,30313032-5f55-4534-922d-432e6b696361,rev?*%
%TF.SameCoordinates,Original*%
%TF.FileFunction,Copper,L2,Bot*%
%TF.FilePolarity,Positive*%
%FSLAX46Y46*%
G04 Gerber Fmt 4.6, Leading zero omitted, Abs format (unit mm)*
G04 Created by KiCad (PCBNEW (5.1.12-1-10_14)) date 2022-08-29 02:47:29*
%MOMM*%
%LPD*%
G01*
G04 APERTURE LIST*
%TA.AperFunction,ComponentPad*%
%ADD10C,3.300000*%
%TD*%
%TA.AperFunction,ComponentPad*%
%ADD11C,1.500000*%
%TD*%
%TA.AperFunction,ComponentPad*%
%ADD12C,1.400000*%
%TD*%
%TA.AperFunction,ComponentPad*%
%ADD13R,1.300000X1.300000*%
%TD*%
%TA.AperFunction,ComponentPad*%
%ADD14C,0.700000*%
%TD*%
%TA.AperFunction,ComponentPad*%
%ADD15O,1.200000X2.100000*%
%TD*%
%TA.AperFunction,ViaPad*%
%ADD16C,0.500000*%
%TD*%
%TA.AperFunction,Conductor*%
%ADD17C,0.280000*%
%TD*%
%TA.AperFunction,Conductor*%
%ADD18C,0.254000*%
%TD*%
%TA.AperFunction,Conductor*%
%ADD19C,0.350000*%
%TD*%
%ADD20C,0.300000*%
%ADD21C,0.350000*%
%ADD22O,0.600000X1.500000*%
G04 APERTURE END LIST*
D10*
%TO.P,J2,5*%
%TO.N,Net-(J2-Pad5)*%
X34800000Y5730000D03*
X34800000Y18870000D03*
D11*
%TO.P,J2,4*%
%TO.N,GND*%
X37300000Y8800000D03*
%TO.P,J2,3*%
%TO.N,/D-*%
X37300000Y11300000D03*
%TO.P,J2,2*%
%TO.N,/D+*%
X37300000Y13300000D03*
%TO.P,J2,1*%
%TO.N,/VOUT*%
X37300000Y15800000D03*
%TD*%
D12*
%TO.P,SW1,6*%
%TO.N,N/C*%
X29800000Y15000000D03*
%TO.P,SW1,5*%
X27300000Y15000000D03*
%TO.P,SW1,4*%
X24800000Y15000000D03*
%TO.P,SW1,3*%
%TO.N,/VOUT*%
X29800000Y9600000D03*
%TO.P,SW1,2*%
%TO.N,/VIN*%
X27300000Y9600000D03*
D13*
%TO.P,SW1,1*%
%TO.N,N/C*%
X24800000Y9600000D03*
%TD*%
D14*
%TO.P,J1,B12*%
%TO.N,GND*%
X10500000Y9050000D03*
%TO.P,J1,B9*%
%TO.N,/VIN*%
X10500000Y10000000D03*
%TO.P,J1,B7*%
%TO.N,/D-*%
X10500000Y11850000D03*
%TO.P,J1,B6*%
%TO.N,/D+*%
X10500000Y12750000D03*
%TO.P,J1,B5*%
%TO.N,Net-(J1-PadB5)*%
X10500000Y13650000D03*
%TO.P,J1,B4*%
%TO.N,/VIN*%
X10500000Y14600000D03*
%TO.P,J1,B1*%
%TO.N,GND*%
X10500000Y15550000D03*
%TO.P,J1,A12*%
X9100000Y15550000D03*
%TO.P,J1,A9*%
%TO.N,/VIN*%
X9100000Y14600000D03*
%TO.P,J1,A7*%
%TO.N,/D-*%
X9100000Y12750000D03*
%TO.P,J1,A6*%
%TO.N,/D+*%
X9100000Y11850000D03*
%TO.P,J1,A5*%
%TO.N,Net-(J1-PadA5)*%
X9100000Y10950000D03*
%TO.P,J1,A4*%
%TO.N,/VIN*%
X9100000Y10000000D03*
%TO.P,J1,A1*%
%TO.N,GND*%
X9100000Y9050000D03*
D15*
%TO.P,J1,S4*%
%TO.N,N/C*%
X11730000Y14300000D03*
%TO.P,J1,S1*%
%TO.N,Net-(J1-PadS1)*%
X7870000Y14300000D03*
X11730000Y10300000D03*
X7870000Y10300000D03*
%TD*%
D16*
%TO.N,GND*%
X4800000Y21300000D03*
X7300000Y21300000D03*
X3300000Y17300000D03*
X3300000Y7300000D03*
X7300000Y3300000D03*
X17300000Y3300000D03*
X22300000Y3300000D03*
X27300000Y3300000D03*
X37300000Y3300000D03*
X41300000Y4800000D03*
X41300000Y7300000D03*
X41300000Y17300000D03*
X39800000Y21300000D03*
X37300000Y21300000D03*
X27300000Y21300000D03*
X22300000Y21300000D03*
X17300000Y21300000D03*
X3300000Y19800000D03*
X3300000Y14800000D03*
X3300000Y9800000D03*
X3300000Y4800000D03*
X4800000Y3300000D03*
X19800000Y3300000D03*
X24800000Y3300000D03*
X19800000Y21300000D03*
X24800000Y21300000D03*
X29800000Y21300000D03*
X29800000Y3300000D03*
X34800000Y3300000D03*
X34800000Y21300000D03*
X41300000Y19800000D03*
X39800000Y3300000D03*
X9800000Y19800000D03*
X14800000Y19800000D03*
X12300000Y18800000D03*
X12300000Y5800000D03*
X9800000Y4800000D03*
X14800000Y4800000D03*
X7300000Y7300000D03*
X8300000Y7300000D03*
X7300000Y17300000D03*
X8300000Y17300000D03*
X13300000Y17300000D03*
X13300000Y16300000D03*
X16800000Y14800000D03*
X16800000Y13800000D03*
X16800000Y10800000D03*
X16800000Y9800000D03*
X17800000Y10800000D03*
X18800000Y10800000D03*
X19800000Y10800000D03*
X17800000Y13800000D03*
X18800000Y13800000D03*
X19800000Y13800000D03*
X17800000Y14800000D03*
X18800000Y14800000D03*
X19800000Y14800000D03*
X17800000Y9800000D03*
X18800000Y9800000D03*
X19800000Y9800000D03*
X37800000Y5800000D03*
X37800000Y4800000D03*
X38800000Y5800000D03*
X38800000Y4800000D03*
X37800000Y18800000D03*
X38800000Y18800000D03*
X38800000Y19800000D03*
X37800000Y19800000D03*
X8300000Y6300000D03*
X7300000Y6300000D03*
X8300000Y18300000D03*
X7300000Y18300000D03*
X31800000Y8300000D03*
X32800000Y8300000D03*
X32800000Y7300000D03*
X31800000Y7300000D03*
X14300000Y17300000D03*
X14300000Y16300000D03*
X14300000Y8300000D03*
X13300000Y7300000D03*
X14300000Y7300000D03*
X13300000Y8300000D03*
X31800000Y16300000D03*
X32800000Y16300000D03*
X32800000Y17300000D03*
X31800000Y17300000D03*
X38800000Y12300000D03*
X39800000Y14800000D03*
X39800000Y9800000D03*
%TD*%
D17*
%TO.N,/D+*%
X10378798Y12750000D02*
X10500000Y12750000D01*
X9478798Y11850000D02*
X10378798Y12750000D01*
X9100000Y11850000D02*
X9478798Y11850000D01*
%TD*%
D18*
%TO.N,GND*%
X32674115Y24261188D02*
X33047924Y24151170D01*
X33393239Y23970643D01*
X33696911Y23726484D01*
X33947383Y23427984D01*
X34135100Y23086527D01*
X34252922Y22715105D01*
X34297893Y22314180D01*
X34298004Y22298285D01*
X34298007Y22297522D01*
X34299339Y22284420D01*
X34299247Y22271234D01*
X34299659Y22267038D01*
X34303739Y22228217D01*
X34309233Y22201453D01*
X34314371Y22174519D01*
X34315590Y22170482D01*
X34327133Y22133195D01*
X34337712Y22108029D01*
X34347992Y22082584D01*
X34349972Y22078861D01*
X34368537Y22044525D01*
X34383815Y22021875D01*
X34398834Y21998923D01*
X34401500Y21995655D01*
X34426381Y21965580D01*
X34445798Y21946299D01*
X34464953Y21926739D01*
X34468202Y21924051D01*
X34498451Y21899381D01*
X34521227Y21884249D01*
X34543831Y21868772D01*
X34547541Y21866766D01*
X34582005Y21848441D01*
X34607293Y21838018D01*
X34632468Y21827228D01*
X34636497Y21825981D01*
X34673864Y21814699D01*
X34700671Y21809391D01*
X34727489Y21803691D01*
X34731683Y21803250D01*
X34770530Y21799441D01*
X34770536Y21799441D01*
X34785167Y21798000D01*
X41285226Y21798000D01*
X41396447Y21787094D01*
X41489222Y21759084D01*
X41574784Y21713591D01*
X41649887Y21652339D01*
X41711662Y21577666D01*
X41757754Y21492420D01*
X41786410Y21399843D01*
X41798000Y21289572D01*
X41798001Y15260613D01*
X41350384Y15154276D01*
X41324523Y15145390D01*
X41298491Y15136849D01*
X41294643Y15135122D01*
X40814071Y14915469D01*
X40790475Y14901756D01*
X40766550Y14888295D01*
X40763112Y14885854D01*
X40334356Y14577039D01*
X40313847Y14558981D01*
X40293020Y14541153D01*
X40290120Y14538090D01*
X39929512Y14151878D01*
X39912919Y14130204D01*
X39895932Y14108645D01*
X39893683Y14105077D01*
X39614960Y13656179D01*
X39602890Y13631688D01*
X39590417Y13607247D01*
X39588904Y13603311D01*
X39402680Y13108824D01*
X39395589Y13082427D01*
X39388109Y13056057D01*
X39387389Y13051902D01*
X39300758Y12530661D01*
X39298929Y12503392D01*
X39296713Y12476069D01*
X39296814Y12471853D01*
X39313075Y11943712D01*
X39316573Y11916650D01*
X39319711Y11889374D01*
X39320629Y11885258D01*
X39439164Y11370334D01*
X39447862Y11344436D01*
X39456228Y11318320D01*
X39457928Y11314461D01*
X39674221Y10832367D01*
X39687771Y10808672D01*
X39701063Y10784657D01*
X39703480Y10781202D01*
X40009293Y10350301D01*
X40027220Y10329652D01*
X40044891Y10308714D01*
X40047933Y10305793D01*
X40431618Y9942499D01*
X40453209Y9925729D01*
X40474616Y9908618D01*
X40478167Y9906344D01*
X40925109Y9624493D01*
X40949526Y9612246D01*
X40973868Y9599609D01*
X40977794Y9598069D01*
X41470969Y9408397D01*
X41497304Y9401125D01*
X41523633Y9393458D01*
X41527783Y9392709D01*
X41798001Y9345857D01*
X41798000Y3314774D01*
X41787095Y3203553D01*
X41759084Y3110778D01*
X41713589Y3025213D01*
X41652337Y2950111D01*
X41577666Y2888338D01*
X41492422Y2842247D01*
X41399844Y2813590D01*
X41289581Y2802000D01*
X34785167Y2802000D01*
X34772422Y2800745D01*
X34771235Y2800753D01*
X34767038Y2800341D01*
X34747886Y2798328D01*
X34740798Y2797630D01*
X34740562Y2797558D01*
X34728218Y2796261D01*
X34701454Y2790767D01*
X34674519Y2785629D01*
X34670482Y2784410D01*
X34633195Y2772868D01*
X34608016Y2762283D01*
X34582585Y2752009D01*
X34578861Y2750028D01*
X34544525Y2731463D01*
X34521875Y2716185D01*
X34498923Y2701166D01*
X34495655Y2698500D01*
X34465580Y2673619D01*
X34446317Y2654221D01*
X34426738Y2635047D01*
X34424051Y2631797D01*
X34399381Y2601549D01*
X34384260Y2578788D01*
X34368772Y2556169D01*
X34366766Y2552459D01*
X34348441Y2517995D01*
X34338018Y2492707D01*
X34327228Y2467532D01*
X34325981Y2463503D01*
X34314699Y2426136D01*
X34309390Y2399322D01*
X34303691Y2372511D01*
X34303250Y2368317D01*
X34299441Y2329470D01*
X34258528Y1912201D01*
X34145905Y1539175D01*
X33962971Y1195125D01*
X33716695Y893161D01*
X33416458Y644784D01*
X33073693Y459452D01*
X32701464Y344228D01*
X32313935Y303497D01*
X31925885Y338812D01*
X31552075Y448830D01*
X31206762Y629357D01*
X30903086Y873518D01*
X30652616Y1172018D01*
X30464900Y1513474D01*
X30347078Y1884895D01*
X30302107Y2285819D01*
X30301996Y2301715D01*
X30301993Y2302478D01*
X30300661Y2315580D01*
X30300753Y2328765D01*
X30300341Y2332962D01*
X30296261Y2371782D01*
X30290767Y2398546D01*
X30285629Y2425481D01*
X30284410Y2429518D01*
X30282521Y2435623D01*
X30923000Y2435623D01*
X30923000Y2164377D01*
X30975917Y1898344D01*
X31079718Y1647746D01*
X31230414Y1422213D01*
X31422213Y1230414D01*
X31647746Y1079718D01*
X31898344Y975917D01*
X32164377Y923000D01*
X32435623Y923000D01*
X32701656Y975917D01*
X32952254Y1079718D01*
X33177787Y1230414D01*
X33369586Y1422213D01*
X33520282Y1647746D01*
X33624083Y1898344D01*
X33677000Y2164377D01*
X33677000Y2435623D01*
X33624083Y2701656D01*
X33520282Y2952254D01*
X33369586Y3177787D01*
X33177787Y3369586D01*
X32952254Y3520282D01*
X32701656Y3624083D01*
X32435623Y3677000D01*
X32164377Y3677000D01*
X31898344Y3624083D01*
X31647746Y3520282D01*
X31422213Y3369586D01*
X31230414Y3177787D01*
X31079718Y2952254D01*
X30975917Y2701656D01*
X30923000Y2435623D01*
X30282521Y2435623D01*
X30272868Y2466805D01*
X30262283Y2491984D01*
X30252009Y2517415D01*
X30250028Y2521139D01*
X30231463Y2555475D01*
X30216185Y2578125D01*
X30201166Y2601077D01*
X30198500Y2604345D01*
X30173619Y2634420D01*
X30154221Y2653683D01*
X30135047Y2673262D01*
X30131797Y2675949D01*
X30101549Y2700619D01*
X30078788Y2715740D01*
X30056169Y2731228D01*
X30052459Y2733234D01*
X30017995Y2751559D01*
X29992707Y2761982D01*
X29967532Y2772772D01*
X29963503Y2774019D01*
X29926136Y2785301D01*
X29899322Y2790610D01*
X29872511Y2796309D01*
X29868317Y2796750D01*
X29829470Y2800559D01*
X29829464Y2800559D01*
X29814833Y2802000D01*
X15260614Y2802000D01*
X15154277Y3249617D01*
X15145398Y3275457D01*
X15136850Y3301511D01*
X15135123Y3305359D01*
X14915469Y3785930D01*
X14901744Y3809546D01*
X14888295Y3833450D01*
X14885854Y3836889D01*
X14577040Y4265645D01*
X14558974Y4286164D01*
X14541152Y4306983D01*
X14538090Y4309882D01*
X14151878Y4670489D01*
X14130204Y4687082D01*
X14108645Y4704069D01*
X14105077Y4706318D01*
X13656179Y4985041D01*
X13631688Y4997111D01*
X13607247Y5009584D01*
X13603311Y5011097D01*
X13108823Y5197322D01*
X13082391Y5204422D01*
X13056056Y5211892D01*
X13051901Y5212612D01*
X12530660Y5299243D01*
X12503391Y5301072D01*
X12476068Y5303288D01*
X12471852Y5303187D01*
X12471851Y5303187D01*
X11943711Y5286926D01*
X11916649Y5283428D01*
X11889373Y5280290D01*
X11885257Y5279372D01*
X11370333Y5160837D01*
X11344435Y5152139D01*
X11318319Y5143773D01*
X11314459Y5142073D01*
X10832365Y4925779D01*
X10808640Y4912211D01*
X10784656Y4898937D01*
X10781201Y4896520D01*
X10350300Y4590707D01*
X10329705Y4572827D01*
X10308712Y4555109D01*
X10305792Y4552066D01*
X9942497Y4168381D01*
X9925722Y4146782D01*
X9908617Y4125383D01*
X9906343Y4121832D01*
X9624492Y3674890D01*
X9612245Y3650473D01*
X9599608Y3626131D01*
X9598068Y3622205D01*
X9408396Y3129030D01*
X9401127Y3102706D01*
X9393457Y3076367D01*
X9392708Y3072217D01*
X9345857Y2802000D01*
X3314774Y2802000D01*
X3203553Y2812905D01*
X3110778Y2840916D01*
X3025213Y2886411D01*
X2950111Y2947663D01*
X2888338Y3022334D01*
X2842247Y3107578D01*
X2813590Y3200156D01*
X2802000Y3310419D01*
X2802000Y5919793D01*
X32873000Y5919793D01*
X32873000Y5540207D01*
X32947053Y5167915D01*
X33092315Y4817223D01*
X33303201Y4501609D01*
X33571609Y4233201D01*
X33887223Y4022315D01*
X34237915Y3877053D01*
X34610207Y3803000D01*
X34989793Y3803000D01*
X35362085Y3877053D01*
X35712777Y4022315D01*
X36028391Y4233201D01*
X36296799Y4501609D01*
X36507685Y4817223D01*
X36652947Y5167915D01*
X36727000Y5540207D01*
X36727000Y5919793D01*
X36652947Y6292085D01*
X36507685Y6642777D01*
X36296799Y6958391D01*
X36028391Y7226799D01*
X35712777Y7437685D01*
X35362085Y7582947D01*
X34989793Y7657000D01*
X34610207Y7657000D01*
X34237915Y7582947D01*
X33887223Y7437685D01*
X33571609Y7226799D01*
X33303201Y6958391D01*
X33092315Y6642777D01*
X32947053Y6292085D01*
X32873000Y5919793D01*
X2802000Y5919793D01*
X2802000Y9814833D01*
X2800745Y9827578D01*
X2800753Y9828765D01*
X2800341Y9832962D01*
X2798328Y9852114D01*
X2797630Y9859202D01*
X2797558Y9859438D01*
X2796261Y9871782D01*
X2790767Y9898546D01*
X2785629Y9925481D01*
X2784410Y9929518D01*
X2772868Y9966805D01*
X2762283Y9991984D01*
X2752009Y10017415D01*
X2750028Y10021139D01*
X2731463Y10055475D01*
X2716185Y10078125D01*
X2701166Y10101077D01*
X2698500Y10104345D01*
X2673619Y10134420D01*
X2654221Y10153683D01*
X2635047Y10173262D01*
X2631797Y10175949D01*
X2601549Y10200619D01*
X2578788Y10215740D01*
X2556169Y10231228D01*
X2552459Y10233234D01*
X2517995Y10251559D01*
X2492707Y10261982D01*
X2467532Y10272772D01*
X2463503Y10274019D01*
X2426136Y10285301D01*
X2399322Y10290610D01*
X2372511Y10296309D01*
X2368317Y10296750D01*
X2329470Y10300559D01*
X1912201Y10341472D01*
X1539175Y10454095D01*
X1195125Y10637029D01*
X893161Y10883305D01*
X644784Y11183542D01*
X459452Y11526307D01*
X344228Y11898536D01*
X303497Y12286064D01*
X317107Y12435623D01*
X923000Y12435623D01*
X923000Y12164377D01*
X975917Y11898344D01*
X1079718Y11647746D01*
X1230414Y11422213D01*
X1422213Y11230414D01*
X1647746Y11079718D01*
X1898344Y10975917D01*
X2164377Y10923000D01*
X2435623Y10923000D01*
X2701656Y10975917D01*
X2952254Y11079718D01*
X3177787Y11230414D01*
X3369586Y11422213D01*
X3520282Y11647746D01*
X3624083Y11898344D01*
X3677000Y12164377D01*
X3677000Y12435623D01*
X3624083Y12701656D01*
X3520282Y12952254D01*
X3369586Y13177787D01*
X3177787Y13369586D01*
X2952254Y13520282D01*
X2701656Y13624083D01*
X2435623Y13677000D01*
X2164377Y13677000D01*
X1898344Y13624083D01*
X1647746Y13520282D01*
X1422213Y13369586D01*
X1230414Y13177787D01*
X1079718Y12952254D01*
X975917Y12701656D01*
X923000Y12435623D01*
X317107Y12435623D01*
X338812Y12674115D01*
X448830Y13047924D01*
X629357Y13393239D01*
X873516Y13696911D01*
X1172016Y13947383D01*
X1513473Y14135100D01*
X1884895Y14252922D01*
X2285820Y14297893D01*
X2301715Y14298004D01*
X2302478Y14298007D01*
X2315580Y14299339D01*
X2328766Y14299247D01*
X2332962Y14299659D01*
X2371783Y14303739D01*
X2398547Y14309233D01*
X2425481Y14314371D01*
X2429518Y14315590D01*
X2466805Y14327133D01*
X2491971Y14337712D01*
X2517416Y14347992D01*
X2521139Y14349972D01*
X2555475Y14368537D01*
X2578125Y14383815D01*
X2601077Y14398834D01*
X2604345Y14401500D01*
X2634420Y14426381D01*
X2653701Y14445798D01*
X2673261Y14464953D01*
X2675949Y14468202D01*
X2700619Y14498451D01*
X2715751Y14521227D01*
X2731228Y14543831D01*
X2733234Y14547541D01*
X2751559Y14582005D01*
X2761982Y14607293D01*
X2772772Y14632468D01*
X2774019Y14636497D01*
X2785301Y14673864D01*
X2790609Y14700671D01*
X2796309Y14727489D01*
X2796750Y14731683D01*
X2800559Y14770530D01*
X2800559Y14770536D01*
X2802000Y14785167D01*
X2802000Y15800000D01*
X6523000Y15800000D01*
X6523000Y8800000D01*
X6524334Y8772849D01*
X6543549Y8577759D01*
X6554142Y8524502D01*
X6611047Y8336909D01*
X6631828Y8286740D01*
X6724238Y8113853D01*
X6754406Y8068703D01*
X6878769Y7917166D01*
X6917166Y7878769D01*
X7068703Y7754406D01*
X7113853Y7724238D01*
X7286740Y7631828D01*
X7336909Y7611047D01*
X7524502Y7554142D01*
X7577759Y7543549D01*
X7772849Y7524334D01*
X7800000Y7523000D01*
X11800000Y7523000D01*
X11827151Y7524334D01*
X12022241Y7543549D01*
X12075498Y7554142D01*
X12263091Y7611047D01*
X12313260Y7631828D01*
X12486147Y7724238D01*
X12531297Y7754406D01*
X12682834Y7878769D01*
X12721231Y7917166D01*
X12818264Y8035402D01*
X36715007Y8035402D01*
X36800780Y7896817D01*
X36986575Y7816778D01*
X37184415Y7774524D01*
X37386696Y7771679D01*
X37585646Y7808352D01*
X37773618Y7883134D01*
X37799220Y7896817D01*
X37884993Y8035402D01*
X37300000Y8620395D01*
X36715007Y8035402D01*
X12818264Y8035402D01*
X12845594Y8068703D01*
X12875762Y8113853D01*
X12968172Y8286740D01*
X12988953Y8336909D01*
X13045858Y8524502D01*
X13056451Y8577759D01*
X13075666Y8772849D01*
X13077000Y8800000D01*
X13077000Y10250000D01*
X23871660Y10250000D01*
X23871660Y8950000D01*
X23877008Y8895699D01*
X23892847Y8843484D01*
X23918569Y8795363D01*
X23953184Y8753184D01*
X23995363Y8718569D01*
X24043484Y8692847D01*
X24095699Y8677008D01*
X24150000Y8671660D01*
X25450000Y8671660D01*
X25504301Y8677008D01*
X25556516Y8692847D01*
X25604637Y8718569D01*
X25646816Y8753184D01*
X25681431Y8795363D01*
X25707153Y8843484D01*
X25722992Y8895699D01*
X25728340Y8950000D01*
X25728340Y10250000D01*
X25722992Y10304301D01*
X25707153Y10356516D01*
X25681431Y10404637D01*
X25646816Y10446816D01*
X25604637Y10481431D01*
X25556516Y10507153D01*
X25504301Y10522992D01*
X25450000Y10528340D01*
X24150000Y10528340D01*
X24095699Y10522992D01*
X24043484Y10507153D01*
X23995363Y10481431D01*
X23953184Y10446816D01*
X23918569Y10404637D01*
X23892847Y10356516D01*
X23877008Y10304301D01*
X23871660Y10250000D01*
X13077000Y10250000D01*
X13077000Y10286393D01*
X13092207Y10440787D01*
X13133274Y10576169D01*
X13199961Y10700932D01*
X13289709Y10810291D01*
X13399068Y10900039D01*
X13523831Y10966726D01*
X13659213Y11007793D01*
X13813607Y11023000D01*
X25172179Y11023000D01*
X25326574Y11007793D01*
X25461956Y10966726D01*
X25586722Y10900037D01*
X25706637Y10801625D01*
X25801625Y10706637D01*
X25900037Y10586722D01*
X25966726Y10461956D01*
X26007793Y10326574D01*
X26023000Y10172179D01*
X26023000Y9600000D01*
X26024334Y9572849D01*
X26043549Y9377759D01*
X26054142Y9324502D01*
X26111047Y9136909D01*
X26131828Y9086740D01*
X26224238Y8913853D01*
X26254406Y8868703D01*
X26378769Y8717166D01*
X26417166Y8678769D01*
X26568703Y8554406D01*
X26613853Y8524238D01*
X26786740Y8431828D01*
X26836909Y8411047D01*
X27024502Y8354142D01*
X27077759Y8343549D01*
X27272849Y8324334D01*
X27327151Y8324334D01*
X27522241Y8343549D01*
X27575498Y8354142D01*
X27763091Y8411047D01*
X27813260Y8431828D01*
X27986147Y8524238D01*
X28031297Y8554406D01*
X28182834Y8678769D01*
X28221231Y8717166D01*
X28345594Y8868703D01*
X28375762Y8913853D01*
X28468172Y9086740D01*
X28488953Y9136909D01*
X28545858Y9324502D01*
X28550000Y9345326D01*
X28554142Y9324502D01*
X28611047Y9136909D01*
X28631828Y9086740D01*
X28724238Y8913853D01*
X28754406Y8868703D01*
X28878769Y8717166D01*
X28917166Y8678769D01*
X29068703Y8554406D01*
X29113853Y8524238D01*
X29286740Y8431828D01*
X29336909Y8411047D01*
X29524502Y8354142D01*
X29577759Y8343549D01*
X29772849Y8324334D01*
X29827151Y8324334D01*
X30022241Y8343549D01*
X30075498Y8354142D01*
X30263091Y8411047D01*
X30313260Y8431828D01*
X30486147Y8524238D01*
X30531297Y8554406D01*
X30682834Y8678769D01*
X30717369Y8713304D01*
X36271679Y8713304D01*
X36308352Y8514354D01*
X36383134Y8326382D01*
X36396817Y8300780D01*
X36535402Y8215007D01*
X37120395Y8800000D01*
X37479605Y8800000D01*
X38064598Y8215007D01*
X38203183Y8300780D01*
X38283222Y8486575D01*
X38325476Y8684415D01*
X38328321Y8886696D01*
X38291648Y9085646D01*
X38216866Y9273618D01*
X38203183Y9299220D01*
X38064598Y9384993D01*
X37479605Y8800000D01*
X37120395Y8800000D01*
X36535402Y9384993D01*
X36396817Y9299220D01*
X36316778Y9113425D01*
X36274524Y8915585D01*
X36271679Y8713304D01*
X30717369Y8713304D01*
X30721231Y8717166D01*
X30845594Y8868703D01*
X30875762Y8913853D01*
X30968172Y9086740D01*
X30988953Y9136909D01*
X31045858Y9324502D01*
X31056451Y9377759D01*
X31074853Y9564598D01*
X36715007Y9564598D01*
X37300000Y8979605D01*
X37884993Y9564598D01*
X37799220Y9703183D01*
X37613425Y9783222D01*
X37415585Y9825476D01*
X37213304Y9828321D01*
X37014354Y9791648D01*
X36826382Y9716866D01*
X36800780Y9703183D01*
X36715007Y9564598D01*
X31074853Y9564598D01*
X31075666Y9572849D01*
X31077000Y9600000D01*
X31077000Y10172179D01*
X31092207Y10326574D01*
X31133274Y10461956D01*
X31199963Y10586722D01*
X31298375Y10706637D01*
X33992889Y13401151D01*
X36273000Y13401151D01*
X36273000Y13198849D01*
X36312467Y13000435D01*
X36389885Y12813533D01*
X36502277Y12645326D01*
X36645326Y12502277D01*
X36813533Y12389885D01*
X37000435Y12312467D01*
X37063111Y12300000D01*
X37000435Y12287533D01*
X36813533Y12210115D01*
X36645326Y12097723D01*
X36502277Y11954674D01*
X36389885Y11786467D01*
X36312467Y11599565D01*
X36273000Y11401151D01*
X36273000Y11198849D01*
X36312467Y11000435D01*
X36389885Y10813533D01*
X36502277Y10645326D01*
X36645326Y10502277D01*
X36813533Y10389885D01*
X37000435Y10312467D01*
X37198849Y10273000D01*
X37401151Y10273000D01*
X37599565Y10312467D01*
X37786467Y10389885D01*
X37954674Y10502277D01*
X38097723Y10645326D01*
X38210115Y10813533D01*
X38287533Y11000435D01*
X38327000Y11198849D01*
X38327000Y11401151D01*
X38287533Y11599565D01*
X38210115Y11786467D01*
X38097723Y11954674D01*
X37954674Y12097723D01*
X37786467Y12210115D01*
X37599565Y12287533D01*
X37536889Y12300000D01*
X37599565Y12312467D01*
X37786467Y12389885D01*
X37954674Y12502277D01*
X38097723Y12645326D01*
X38210115Y12813533D01*
X38287533Y13000435D01*
X38327000Y13198849D01*
X38327000Y13401151D01*
X38287533Y13599565D01*
X38210115Y13786467D01*
X38097723Y13954674D01*
X37954674Y14097723D01*
X37786467Y14210115D01*
X37599565Y14287533D01*
X37401151Y14327000D01*
X37198849Y14327000D01*
X37000435Y14287533D01*
X36813533Y14210115D01*
X36645326Y14097723D01*
X36502277Y13954674D01*
X36389885Y13786467D01*
X36312467Y13599565D01*
X36273000Y13401151D01*
X33992889Y13401151D01*
X34893363Y14301625D01*
X35013278Y14400037D01*
X35138044Y14466726D01*
X35273426Y14507793D01*
X35427821Y14523000D01*
X37300000Y14523000D01*
X37327151Y14524334D01*
X37522241Y14543549D01*
X37575498Y14554142D01*
X37763091Y14611047D01*
X37813260Y14631828D01*
X37986147Y14724238D01*
X38031297Y14754406D01*
X38182834Y14878769D01*
X38221231Y14917166D01*
X38345594Y15068703D01*
X38375762Y15113853D01*
X38468172Y15286740D01*
X38488953Y15336909D01*
X38545858Y15524502D01*
X38556451Y15577759D01*
X38575666Y15772849D01*
X38575666Y15827151D01*
X38556451Y16022241D01*
X38545858Y16075498D01*
X38488953Y16263091D01*
X38468172Y16313260D01*
X38375762Y16486147D01*
X38345594Y16531297D01*
X38221231Y16682834D01*
X38182834Y16721231D01*
X38031297Y16845594D01*
X37986147Y16875762D01*
X37813260Y16968172D01*
X37763091Y16988953D01*
X37575498Y17045858D01*
X37522241Y17056451D01*
X37327151Y17075666D01*
X37300000Y17077000D01*
X35506809Y17077000D01*
X35712777Y17162315D01*
X36028391Y17373201D01*
X36296799Y17641609D01*
X36507685Y17957223D01*
X36652947Y18307915D01*
X36727000Y18680207D01*
X36727000Y19059793D01*
X36652947Y19432085D01*
X36507685Y19782777D01*
X36296799Y20098391D01*
X36028391Y20366799D01*
X35712777Y20577685D01*
X35362085Y20722947D01*
X34989793Y20797000D01*
X34610207Y20797000D01*
X34237915Y20722947D01*
X33887223Y20577685D01*
X33571609Y20366799D01*
X33303201Y20098391D01*
X33092315Y19782777D01*
X32947053Y19432085D01*
X32873000Y19059793D01*
X32873000Y18680207D01*
X32947053Y18307915D01*
X33092315Y17957223D01*
X33303201Y17641609D01*
X33571609Y17373201D01*
X33887223Y17162315D01*
X34237915Y17017053D01*
X34301839Y17004338D01*
X34251122Y16988953D01*
X34200953Y16968172D01*
X34028066Y16875762D01*
X33982916Y16845593D01*
X33831380Y16721230D01*
X33811238Y16702976D01*
X28897024Y11788762D01*
X28878770Y11768620D01*
X28754407Y11617084D01*
X28724238Y11571934D01*
X28631828Y11399047D01*
X28611047Y11348878D01*
X28554142Y11161285D01*
X28550000Y11140461D01*
X28545858Y11161285D01*
X28488953Y11348878D01*
X28468172Y11399047D01*
X28375762Y11571934D01*
X28345593Y11617084D01*
X28221230Y11768620D01*
X28202976Y11788762D01*
X26788762Y13202976D01*
X26768620Y13221230D01*
X26617084Y13345593D01*
X26571934Y13375762D01*
X26399047Y13468172D01*
X26348878Y13488953D01*
X26161285Y13545858D01*
X26108028Y13556451D01*
X25912937Y13575666D01*
X25885786Y13577000D01*
X13813607Y13577000D01*
X13659213Y13592207D01*
X13523831Y13633274D01*
X13399068Y13699961D01*
X13289709Y13789709D01*
X13199961Y13899068D01*
X13133274Y14023831D01*
X13092207Y14159213D01*
X13077000Y14313607D01*
X13077000Y15096226D01*
X23823000Y15096226D01*
X23823000Y14903774D01*
X23860546Y14715020D01*
X23934194Y14537217D01*
X24041115Y14377199D01*
X24177199Y14241115D01*
X24337217Y14134194D01*
X24515020Y14060546D01*
X24703774Y14023000D01*
X24896226Y14023000D01*
X25084980Y14060546D01*
X25262783Y14134194D01*
X25422801Y14241115D01*
X25558885Y14377199D01*
X25665806Y14537217D01*
X25739454Y14715020D01*
X25777000Y14903774D01*
X25777000Y15096226D01*
X26323000Y15096226D01*
X26323000Y14903774D01*
X26360546Y14715020D01*
X26434194Y14537217D01*
X26541115Y14377199D01*
X26677199Y14241115D01*
X26837217Y14134194D01*
X27015020Y14060546D01*
X27203774Y14023000D01*
X27396226Y14023000D01*
X27584980Y14060546D01*
X27762783Y14134194D01*
X27922801Y14241115D01*
X28058885Y14377199D01*
X28165806Y14537217D01*
X28239454Y14715020D01*
X28277000Y14903774D01*
X28277000Y15096226D01*
X28823000Y15096226D01*
X28823000Y14903774D01*
X28860546Y14715020D01*
X28934194Y14537217D01*
X29041115Y14377199D01*
X29177199Y14241115D01*
X29337217Y14134194D01*
X29515020Y14060546D01*
X29703774Y14023000D01*
X29896226Y14023000D01*
X30084980Y14060546D01*
X30262783Y14134194D01*
X30422801Y14241115D01*
X30558885Y14377199D01*
X30665806Y14537217D01*
X30739454Y14715020D01*
X30777000Y14903774D01*
X30777000Y15096226D01*
X30739454Y15284980D01*
X30665806Y15462783D01*
X30558885Y15622801D01*
X30422801Y15758885D01*
X30262783Y15865806D01*
X30084980Y15939454D01*
X29896226Y15977000D01*
X29703774Y15977000D01*
X29515020Y15939454D01*
X29337217Y15865806D01*
X29177199Y15758885D01*
X29041115Y15622801D01*
X28934194Y15462783D01*
X28860546Y15284980D01*
X28823000Y15096226D01*
X28277000Y15096226D01*
X28239454Y15284980D01*
X28165806Y15462783D01*
X28058885Y15622801D01*
X27922801Y15758885D01*
X27762783Y15865806D01*
X27584980Y15939454D01*
X27396226Y15977000D01*
X27203774Y15977000D01*
X27015020Y15939454D01*
X26837217Y15865806D01*
X26677199Y15758885D01*
X26541115Y15622801D01*
X26434194Y15462783D01*
X26360546Y15284980D01*
X26323000Y15096226D01*
X25777000Y15096226D01*
X25739454Y15284980D01*
X25665806Y15462783D01*
X25558885Y15622801D01*
X25422801Y15758885D01*
X25262783Y15865806D01*
X25084980Y15939454D01*
X24896226Y15977000D01*
X24703774Y15977000D01*
X24515020Y15939454D01*
X24337217Y15865806D01*
X24177199Y15758885D01*
X24041115Y15622801D01*
X23934194Y15462783D01*
X23860546Y15284980D01*
X23823000Y15096226D01*
X13077000Y15096226D01*
X13077000Y15800000D01*
X13075666Y15827151D01*
X13056451Y16022241D01*
X13045858Y16075498D01*
X12988953Y16263091D01*
X12968172Y16313260D01*
X12875762Y16486147D01*
X12845594Y16531297D01*
X12721231Y16682834D01*
X12682834Y16721231D01*
X12531297Y16845594D01*
X12486147Y16875762D01*
X12313260Y16968172D01*
X12263091Y16988953D01*
X12075498Y17045858D01*
X12022241Y17056451D01*
X11827151Y17075666D01*
X11800000Y17077000D01*
X7800000Y17077000D01*
X7772849Y17075666D01*
X7577759Y17056451D01*
X7524502Y17045858D01*
X7336909Y16988953D01*
X7286740Y16968172D01*
X7113853Y16875762D01*
X7068703Y16845594D01*
X6917166Y16721231D01*
X6878769Y16682834D01*
X6754406Y16531297D01*
X6724238Y16486147D01*
X6631828Y16313260D01*
X6611047Y16263091D01*
X6554142Y16075498D01*
X6543549Y16022241D01*
X6524334Y15827151D01*
X6523000Y15800000D01*
X2802000Y15800000D01*
X2802000Y21285226D01*
X2812906Y21396447D01*
X2840916Y21489222D01*
X2886409Y21574784D01*
X2947661Y21649887D01*
X3022334Y21711662D01*
X3107580Y21757754D01*
X3200157Y21786410D01*
X3310428Y21798000D01*
X9339386Y21798000D01*
X9445723Y21350383D01*
X9454602Y21324543D01*
X9463150Y21298489D01*
X9464877Y21294642D01*
X9684531Y20814070D01*
X9698253Y20790460D01*
X9711705Y20766549D01*
X9714146Y20763111D01*
X10022961Y20334354D01*
X10041008Y20313858D01*
X10058848Y20293017D01*
X10061910Y20290118D01*
X10448122Y19929511D01*
X10469825Y19912897D01*
X10491355Y19895932D01*
X10494922Y19893683D01*
X10943821Y19614959D01*
X10968325Y19602882D01*
X10992753Y19590416D01*
X10996689Y19588902D01*
X11491178Y19402678D01*
X11517600Y19395581D01*
X11543944Y19388108D01*
X11548099Y19387388D01*
X12069340Y19300757D01*
X12096609Y19298928D01*
X12123932Y19296712D01*
X12128148Y19296813D01*
X12128149Y19296813D01*
X12656289Y19313074D01*
X12683351Y19316572D01*
X12710627Y19319710D01*
X12714743Y19320628D01*
X13229667Y19439163D01*
X13255553Y19447857D01*
X13281682Y19456227D01*
X13285541Y19457927D01*
X13767635Y19674221D01*
X13791360Y19687789D01*
X13815344Y19701063D01*
X13818799Y19703480D01*
X14249700Y20009293D01*
X14270332Y20027206D01*
X14291287Y20044891D01*
X14294208Y20047933D01*
X14657503Y20431619D01*
X14674278Y20453218D01*
X14691383Y20474617D01*
X14693657Y20478168D01*
X14975508Y20925110D01*
X14987755Y20949527D01*
X15000392Y20973869D01*
X15001932Y20977795D01*
X15191604Y21470970D01*
X15198876Y21497305D01*
X15206543Y21523634D01*
X15207292Y21527784D01*
X15254144Y21798000D01*
X29814833Y21798000D01*
X29827578Y21799255D01*
X29828766Y21799247D01*
X29832962Y21799659D01*
X29852122Y21801673D01*
X29859202Y21802370D01*
X29859438Y21802442D01*
X29871783Y21803739D01*
X29898547Y21809233D01*
X29925481Y21814371D01*
X29929518Y21815590D01*
X29966805Y21827133D01*
X29991971Y21837712D01*
X30017416Y21847992D01*
X30021139Y21849972D01*
X30055475Y21868537D01*
X30078125Y21883815D01*
X30101077Y21898834D01*
X30104345Y21901500D01*
X30134420Y21926381D01*
X30153701Y21945798D01*
X30173261Y21964953D01*
X30175949Y21968202D01*
X30200619Y21998451D01*
X30215751Y22021227D01*
X30231228Y22043831D01*
X30233234Y22047541D01*
X30251559Y22082005D01*
X30261982Y22107293D01*
X30272772Y22132468D01*
X30274019Y22136497D01*
X30285301Y22173864D01*
X30290609Y22200671D01*
X30296309Y22227489D01*
X30296750Y22231683D01*
X30300559Y22270530D01*
X30316746Y22435623D01*
X30923000Y22435623D01*
X30923000Y22164377D01*
X30975917Y21898344D01*
X31079718Y21647746D01*
X31230414Y21422213D01*
X31422213Y21230414D01*
X31647746Y21079718D01*
X31898344Y20975917D01*
X32164377Y20923000D01*
X32435623Y20923000D01*
X32701656Y20975917D01*
X32952254Y21079718D01*
X33177787Y21230414D01*
X33369586Y21422213D01*
X33520282Y21647746D01*
X33624083Y21898344D01*
X33677000Y22164377D01*
X33677000Y22435623D01*
X33624083Y22701656D01*
X33520282Y22952254D01*
X33369586Y23177787D01*
X33177787Y23369586D01*
X32952254Y23520282D01*
X32701656Y23624083D01*
X32435623Y23677000D01*
X32164377Y23677000D01*
X31898344Y23624083D01*
X31647746Y23520282D01*
X31422213Y23369586D01*
X31230414Y23177787D01*
X31079718Y22952254D01*
X30975917Y22701656D01*
X30923000Y22435623D01*
X30316746Y22435623D01*
X30341473Y22687802D01*
X30454096Y23060827D01*
X30637029Y23404874D01*
X30883305Y23706839D01*
X31183540Y23955215D01*
X31526307Y24140548D01*
X31898536Y24255772D01*
X32286064Y24296503D01*
X32674115Y24261188D01*
%TA.AperFunction,Conductor*%
D19*
G36*
X32674115Y24261188D02*
G01*
X33047924Y24151170D01*
X33393239Y23970643D01*
X33696911Y23726484D01*
X33947383Y23427984D01*
X34135100Y23086527D01*
X34252922Y22715105D01*
X34297893Y22314180D01*
X34298004Y22298285D01*
X34298007Y22297522D01*
X34299339Y22284420D01*
X34299247Y22271234D01*
X34299659Y22267038D01*
X34303739Y22228217D01*
X34309233Y22201453D01*
X34314371Y22174519D01*
X34315590Y22170482D01*
X34327133Y22133195D01*
X34337712Y22108029D01*
X34347992Y22082584D01*
X34349972Y22078861D01*
X34368537Y22044525D01*
X34383815Y22021875D01*
X34398834Y21998923D01*
X34401500Y21995655D01*
X34426381Y21965580D01*
X34445798Y21946299D01*
X34464953Y21926739D01*
X34468202Y21924051D01*
X34498451Y21899381D01*
X34521227Y21884249D01*
X34543831Y21868772D01*
X34547541Y21866766D01*
X34582005Y21848441D01*
X34607293Y21838018D01*
X34632468Y21827228D01*
X34636497Y21825981D01*
X34673864Y21814699D01*
X34700671Y21809391D01*
X34727489Y21803691D01*
X34731683Y21803250D01*
X34770530Y21799441D01*
X34770536Y21799441D01*
X34785167Y21798000D01*
X41285226Y21798000D01*
X41396447Y21787094D01*
X41489222Y21759084D01*
X41574784Y21713591D01*
X41649887Y21652339D01*
X41711662Y21577666D01*
X41757754Y21492420D01*
X41786410Y21399843D01*
X41798000Y21289572D01*
X41798001Y15260613D01*
X41350384Y15154276D01*
X41324523Y15145390D01*
X41298491Y15136849D01*
X41294643Y15135122D01*
X40814071Y14915469D01*
X40790475Y14901756D01*
X40766550Y14888295D01*
X40763112Y14885854D01*
X40334356Y14577039D01*
X40313847Y14558981D01*
X40293020Y14541153D01*
X40290120Y14538090D01*
X39929512Y14151878D01*
X39912919Y14130204D01*
X39895932Y14108645D01*
X39893683Y14105077D01*
X39614960Y13656179D01*
X39602890Y13631688D01*
X39590417Y13607247D01*
X39588904Y13603311D01*
X39402680Y13108824D01*
X39395589Y13082427D01*
X39388109Y13056057D01*
X39387389Y13051902D01*
X39300758Y12530661D01*
X39298929Y12503392D01*
X39296713Y12476069D01*
X39296814Y12471853D01*
X39313075Y11943712D01*
X39316573Y11916650D01*
X39319711Y11889374D01*
X39320629Y11885258D01*
X39439164Y11370334D01*
X39447862Y11344436D01*
X39456228Y11318320D01*
X39457928Y11314461D01*
X39674221Y10832367D01*
X39687771Y10808672D01*
X39701063Y10784657D01*
X39703480Y10781202D01*
X40009293Y10350301D01*
X40027220Y10329652D01*
X40044891Y10308714D01*
X40047933Y10305793D01*
X40431618Y9942499D01*
X40453209Y9925729D01*
X40474616Y9908618D01*
X40478167Y9906344D01*
X40925109Y9624493D01*
X40949526Y9612246D01*
X40973868Y9599609D01*
X40977794Y9598069D01*
X41470969Y9408397D01*
X41497304Y9401125D01*
X41523633Y9393458D01*
X41527783Y9392709D01*
X41798001Y9345857D01*
X41798000Y3314774D01*
X41787095Y3203553D01*
X41759084Y3110778D01*
X41713589Y3025213D01*
X41652337Y2950111D01*
X41577666Y2888338D01*
X41492422Y2842247D01*
X41399844Y2813590D01*
X41289581Y2802000D01*
X34785167Y2802000D01*
X34772422Y2800745D01*
X34771235Y2800753D01*
X34767038Y2800341D01*
X34747886Y2798328D01*
X34740798Y2797630D01*
X34740562Y2797558D01*
X34728218Y2796261D01*
X34701454Y2790767D01*
X34674519Y2785629D01*
X34670482Y2784410D01*
X34633195Y2772868D01*
X34608016Y2762283D01*
X34582585Y2752009D01*
X34578861Y2750028D01*
X34544525Y2731463D01*
X34521875Y2716185D01*
X34498923Y2701166D01*
X34495655Y2698500D01*
X34465580Y2673619D01*
X34446317Y2654221D01*
X34426738Y2635047D01*
X34424051Y2631797D01*
X34399381Y2601549D01*
X34384260Y2578788D01*
X34368772Y2556169D01*
X34366766Y2552459D01*
X34348441Y2517995D01*
X34338018Y2492707D01*
X34327228Y2467532D01*
X34325981Y2463503D01*
X34314699Y2426136D01*
X34309390Y2399322D01*
X34303691Y2372511D01*
X34303250Y2368317D01*
X34299441Y2329470D01*
X34258528Y1912201D01*
X34145905Y1539175D01*
X33962971Y1195125D01*
X33716695Y893161D01*
X33416458Y644784D01*
X33073693Y459452D01*
X32701464Y344228D01*
X32313935Y303497D01*
X31925885Y338812D01*
X31552075Y448830D01*
X31206762Y629357D01*
X30903086Y873518D01*
X30652616Y1172018D01*
X30464900Y1513474D01*
X30347078Y1884895D01*
X30302107Y2285819D01*
X30301996Y2301715D01*
X30301993Y2302478D01*
X30300661Y2315580D01*
X30300753Y2328765D01*
X30300341Y2332962D01*
X30296261Y2371782D01*
X30290767Y2398546D01*
X30285629Y2425481D01*
X30284410Y2429518D01*
X30282521Y2435623D01*
X30923000Y2435623D01*
X30923000Y2164377D01*
X30975917Y1898344D01*
X31079718Y1647746D01*
X31230414Y1422213D01*
X31422213Y1230414D01*
X31647746Y1079718D01*
X31898344Y975917D01*
X32164377Y923000D01*
X32435623Y923000D01*
X32701656Y975917D01*
X32952254Y1079718D01*
X33177787Y1230414D01*
X33369586Y1422213D01*
X33520282Y1647746D01*
X33624083Y1898344D01*
X33677000Y2164377D01*
X33677000Y2435623D01*
X33624083Y2701656D01*
X33520282Y2952254D01*
X33369586Y3177787D01*
X33177787Y3369586D01*
X32952254Y3520282D01*
X32701656Y3624083D01*
X32435623Y3677000D01*
X32164377Y3677000D01*
X31898344Y3624083D01*
X31647746Y3520282D01*
X31422213Y3369586D01*
X31230414Y3177787D01*
X31079718Y2952254D01*
X30975917Y2701656D01*
X30923000Y2435623D01*
X30282521Y2435623D01*
X30272868Y2466805D01*
X30262283Y2491984D01*
X30252009Y2517415D01*
X30250028Y2521139D01*
X30231463Y2555475D01*
X30216185Y2578125D01*
X30201166Y2601077D01*
X30198500Y2604345D01*
X30173619Y2634420D01*
X30154221Y2653683D01*
X30135047Y2673262D01*
X30131797Y2675949D01*
X30101549Y2700619D01*
X30078788Y2715740D01*
X30056169Y2731228D01*
X30052459Y2733234D01*
X30017995Y2751559D01*
X29992707Y2761982D01*
X29967532Y2772772D01*
X29963503Y2774019D01*
X29926136Y2785301D01*
X29899322Y2790610D01*
X29872511Y2796309D01*
X29868317Y2796750D01*
X29829470Y2800559D01*
X29829464Y2800559D01*
X29814833Y2802000D01*
X15260614Y2802000D01*
X15154277Y3249617D01*
X15145398Y3275457D01*
X15136850Y3301511D01*
X15135123Y3305359D01*
X14915469Y3785930D01*
X14901744Y3809546D01*
X14888295Y3833450D01*
X14885854Y3836889D01*
X14577040Y4265645D01*
X14558974Y4286164D01*
X14541152Y4306983D01*
X14538090Y4309882D01*
X14151878Y4670489D01*
X14130204Y4687082D01*
X14108645Y4704069D01*
X14105077Y4706318D01*
X13656179Y4985041D01*
X13631688Y4997111D01*
X13607247Y5009584D01*
X13603311Y5011097D01*
X13108823Y5197322D01*
X13082391Y5204422D01*
X13056056Y5211892D01*
X13051901Y5212612D01*
X12530660Y5299243D01*
X12503391Y5301072D01*
X12476068Y5303288D01*
X12471852Y5303187D01*
X12471851Y5303187D01*
X11943711Y5286926D01*
X11916649Y5283428D01*
X11889373Y5280290D01*
X11885257Y5279372D01*
X11370333Y5160837D01*
X11344435Y5152139D01*
X11318319Y5143773D01*
X11314459Y5142073D01*
X10832365Y4925779D01*
X10808640Y4912211D01*
X10784656Y4898937D01*
X10781201Y4896520D01*
X10350300Y4590707D01*
X10329705Y4572827D01*
X10308712Y4555109D01*
X10305792Y4552066D01*
X9942497Y4168381D01*
X9925722Y4146782D01*
X9908617Y4125383D01*
X9906343Y4121832D01*
X9624492Y3674890D01*
X9612245Y3650473D01*
X9599608Y3626131D01*
X9598068Y3622205D01*
X9408396Y3129030D01*
X9401127Y3102706D01*
X9393457Y3076367D01*
X9392708Y3072217D01*
X9345857Y2802000D01*
X3314774Y2802000D01*
X3203553Y2812905D01*
X3110778Y2840916D01*
X3025213Y2886411D01*
X2950111Y2947663D01*
X2888338Y3022334D01*
X2842247Y3107578D01*
X2813590Y3200156D01*
X2802000Y3310419D01*
X2802000Y5919793D01*
X32873000Y5919793D01*
X32873000Y5540207D01*
X32947053Y5167915D01*
X33092315Y4817223D01*
X33303201Y4501609D01*
X33571609Y4233201D01*
X33887223Y4022315D01*
X34237915Y3877053D01*
X34610207Y3803000D01*
X34989793Y3803000D01*
X35362085Y3877053D01*
X35712777Y4022315D01*
X36028391Y4233201D01*
X36296799Y4501609D01*
X36507685Y4817223D01*
X36652947Y5167915D01*
X36727000Y5540207D01*
X36727000Y5919793D01*
X36652947Y6292085D01*
X36507685Y6642777D01*
X36296799Y6958391D01*
X36028391Y7226799D01*
X35712777Y7437685D01*
X35362085Y7582947D01*
X34989793Y7657000D01*
X34610207Y7657000D01*
X34237915Y7582947D01*
X33887223Y7437685D01*
X33571609Y7226799D01*
X33303201Y6958391D01*
X33092315Y6642777D01*
X32947053Y6292085D01*
X32873000Y5919793D01*
X2802000Y5919793D01*
X2802000Y9814833D01*
X2800745Y9827578D01*
X2800753Y9828765D01*
X2800341Y9832962D01*
X2798328Y9852114D01*
X2797630Y9859202D01*
X2797558Y9859438D01*
X2796261Y9871782D01*
X2790767Y9898546D01*
X2785629Y9925481D01*
X2784410Y9929518D01*
X2772868Y9966805D01*
X2762283Y9991984D01*
X2752009Y10017415D01*
X2750028Y10021139D01*
X2731463Y10055475D01*
X2716185Y10078125D01*
X2701166Y10101077D01*
X2698500Y10104345D01*
X2673619Y10134420D01*
X2654221Y10153683D01*
X2635047Y10173262D01*
X2631797Y10175949D01*
X2601549Y10200619D01*
X2578788Y10215740D01*
X2556169Y10231228D01*
X2552459Y10233234D01*
X2517995Y10251559D01*
X2492707Y10261982D01*
X2467532Y10272772D01*
X2463503Y10274019D01*
X2426136Y10285301D01*
X2399322Y10290610D01*
X2372511Y10296309D01*
X2368317Y10296750D01*
X2329470Y10300559D01*
X1912201Y10341472D01*
X1539175Y10454095D01*
X1195125Y10637029D01*
X893161Y10883305D01*
X644784Y11183542D01*
X459452Y11526307D01*
X344228Y11898536D01*
X303497Y12286064D01*
X317107Y12435623D01*
X923000Y12435623D01*
X923000Y12164377D01*
X975917Y11898344D01*
X1079718Y11647746D01*
X1230414Y11422213D01*
X1422213Y11230414D01*
X1647746Y11079718D01*
X1898344Y10975917D01*
X2164377Y10923000D01*
X2435623Y10923000D01*
X2701656Y10975917D01*
X2952254Y11079718D01*
X3177787Y11230414D01*
X3369586Y11422213D01*
X3520282Y11647746D01*
X3624083Y11898344D01*
X3677000Y12164377D01*
X3677000Y12435623D01*
X3624083Y12701656D01*
X3520282Y12952254D01*
X3369586Y13177787D01*
X3177787Y13369586D01*
X2952254Y13520282D01*
X2701656Y13624083D01*
X2435623Y13677000D01*
X2164377Y13677000D01*
X1898344Y13624083D01*
X1647746Y13520282D01*
X1422213Y13369586D01*
X1230414Y13177787D01*
X1079718Y12952254D01*
X975917Y12701656D01*
X923000Y12435623D01*
X317107Y12435623D01*
X338812Y12674115D01*
X448830Y13047924D01*
X629357Y13393239D01*
X873516Y13696911D01*
X1172016Y13947383D01*
X1513473Y14135100D01*
X1884895Y14252922D01*
X2285820Y14297893D01*
X2301715Y14298004D01*
X2302478Y14298007D01*
X2315580Y14299339D01*
X2328766Y14299247D01*
X2332962Y14299659D01*
X2371783Y14303739D01*
X2398547Y14309233D01*
X2425481Y14314371D01*
X2429518Y14315590D01*
X2466805Y14327133D01*
X2491971Y14337712D01*
X2517416Y14347992D01*
X2521139Y14349972D01*
X2555475Y14368537D01*
X2578125Y14383815D01*
X2601077Y14398834D01*
X2604345Y14401500D01*
X2634420Y14426381D01*
X2653701Y14445798D01*
X2673261Y14464953D01*
X2675949Y14468202D01*
X2700619Y14498451D01*
X2715751Y14521227D01*
X2731228Y14543831D01*
X2733234Y14547541D01*
X2751559Y14582005D01*
X2761982Y14607293D01*
X2772772Y14632468D01*
X2774019Y14636497D01*
X2785301Y14673864D01*
X2790609Y14700671D01*
X2796309Y14727489D01*
X2796750Y14731683D01*
X2800559Y14770530D01*
X2800559Y14770536D01*
X2802000Y14785167D01*
X2802000Y15800000D01*
X6523000Y15800000D01*
X6523000Y8800000D01*
X6524334Y8772849D01*
X6543549Y8577759D01*
X6554142Y8524502D01*
X6611047Y8336909D01*
X6631828Y8286740D01*
X6724238Y8113853D01*
X6754406Y8068703D01*
X6878769Y7917166D01*
X6917166Y7878769D01*
X7068703Y7754406D01*
X7113853Y7724238D01*
X7286740Y7631828D01*
X7336909Y7611047D01*
X7524502Y7554142D01*
X7577759Y7543549D01*
X7772849Y7524334D01*
X7800000Y7523000D01*
X11800000Y7523000D01*
X11827151Y7524334D01*
X12022241Y7543549D01*
X12075498Y7554142D01*
X12263091Y7611047D01*
X12313260Y7631828D01*
X12486147Y7724238D01*
X12531297Y7754406D01*
X12682834Y7878769D01*
X12721231Y7917166D01*
X12818264Y8035402D01*
X36715007Y8035402D01*
X36800780Y7896817D01*
X36986575Y7816778D01*
X37184415Y7774524D01*
X37386696Y7771679D01*
X37585646Y7808352D01*
X37773618Y7883134D01*
X37799220Y7896817D01*
X37884993Y8035402D01*
X37300000Y8620395D01*
X36715007Y8035402D01*
X12818264Y8035402D01*
X12845594Y8068703D01*
X12875762Y8113853D01*
X12968172Y8286740D01*
X12988953Y8336909D01*
X13045858Y8524502D01*
X13056451Y8577759D01*
X13075666Y8772849D01*
X13077000Y8800000D01*
X13077000Y10250000D01*
X23871660Y10250000D01*
X23871660Y8950000D01*
X23877008Y8895699D01*
X23892847Y8843484D01*
X23918569Y8795363D01*
X23953184Y8753184D01*
X23995363Y8718569D01*
X24043484Y8692847D01*
X24095699Y8677008D01*
X24150000Y8671660D01*
X25450000Y8671660D01*
X25504301Y8677008D01*
X25556516Y8692847D01*
X25604637Y8718569D01*
X25646816Y8753184D01*
X25681431Y8795363D01*
X25707153Y8843484D01*
X25722992Y8895699D01*
X25728340Y8950000D01*
X25728340Y10250000D01*
X25722992Y10304301D01*
X25707153Y10356516D01*
X25681431Y10404637D01*
X25646816Y10446816D01*
X25604637Y10481431D01*
X25556516Y10507153D01*
X25504301Y10522992D01*
X25450000Y10528340D01*
X24150000Y10528340D01*
X24095699Y10522992D01*
X24043484Y10507153D01*
X23995363Y10481431D01*
X23953184Y10446816D01*
X23918569Y10404637D01*
X23892847Y10356516D01*
X23877008Y10304301D01*
X23871660Y10250000D01*
X13077000Y10250000D01*
X13077000Y10286393D01*
X13092207Y10440787D01*
X13133274Y10576169D01*
X13199961Y10700932D01*
X13289709Y10810291D01*
X13399068Y10900039D01*
X13523831Y10966726D01*
X13659213Y11007793D01*
X13813607Y11023000D01*
X25172179Y11023000D01*
X25326574Y11007793D01*
X25461956Y10966726D01*
X25586722Y10900037D01*
X25706637Y10801625D01*
X25801625Y10706637D01*
X25900037Y10586722D01*
X25966726Y10461956D01*
X26007793Y10326574D01*
X26023000Y10172179D01*
X26023000Y9600000D01*
X26024334Y9572849D01*
X26043549Y9377759D01*
X26054142Y9324502D01*
X26111047Y9136909D01*
X26131828Y9086740D01*
X26224238Y8913853D01*
X26254406Y8868703D01*
X26378769Y8717166D01*
X26417166Y8678769D01*
X26568703Y8554406D01*
X26613853Y8524238D01*
X26786740Y8431828D01*
X26836909Y8411047D01*
X27024502Y8354142D01*
X27077759Y8343549D01*
X27272849Y8324334D01*
X27327151Y8324334D01*
X27522241Y8343549D01*
X27575498Y8354142D01*
X27763091Y8411047D01*
X27813260Y8431828D01*
X27986147Y8524238D01*
X28031297Y8554406D01*
X28182834Y8678769D01*
X28221231Y8717166D01*
X28345594Y8868703D01*
X28375762Y8913853D01*
X28468172Y9086740D01*
X28488953Y9136909D01*
X28545858Y9324502D01*
X28550000Y9345326D01*
X28554142Y9324502D01*
X28611047Y9136909D01*
X28631828Y9086740D01*
X28724238Y8913853D01*
X28754406Y8868703D01*
X28878769Y8717166D01*
X28917166Y8678769D01*
X29068703Y8554406D01*
X29113853Y8524238D01*
X29286740Y8431828D01*
X29336909Y8411047D01*
X29524502Y8354142D01*
X29577759Y8343549D01*
X29772849Y8324334D01*
X29827151Y8324334D01*
X30022241Y8343549D01*
X30075498Y8354142D01*
X30263091Y8411047D01*
X30313260Y8431828D01*
X30486147Y8524238D01*
X30531297Y8554406D01*
X30682834Y8678769D01*
X30717369Y8713304D01*
X36271679Y8713304D01*
X36308352Y8514354D01*
X36383134Y8326382D01*
X36396817Y8300780D01*
X36535402Y8215007D01*
X37120395Y8800000D01*
X37479605Y8800000D01*
X38064598Y8215007D01*
X38203183Y8300780D01*
X38283222Y8486575D01*
X38325476Y8684415D01*
X38328321Y8886696D01*
X38291648Y9085646D01*
X38216866Y9273618D01*
X38203183Y9299220D01*
X38064598Y9384993D01*
X37479605Y8800000D01*
X37120395Y8800000D01*
X36535402Y9384993D01*
X36396817Y9299220D01*
X36316778Y9113425D01*
X36274524Y8915585D01*
X36271679Y8713304D01*
X30717369Y8713304D01*
X30721231Y8717166D01*
X30845594Y8868703D01*
X30875762Y8913853D01*
X30968172Y9086740D01*
X30988953Y9136909D01*
X31045858Y9324502D01*
X31056451Y9377759D01*
X31074853Y9564598D01*
X36715007Y9564598D01*
X37300000Y8979605D01*
X37884993Y9564598D01*
X37799220Y9703183D01*
X37613425Y9783222D01*
X37415585Y9825476D01*
X37213304Y9828321D01*
X37014354Y9791648D01*
X36826382Y9716866D01*
X36800780Y9703183D01*
X36715007Y9564598D01*
X31074853Y9564598D01*
X31075666Y9572849D01*
X31077000Y9600000D01*
X31077000Y10172179D01*
X31092207Y10326574D01*
X31133274Y10461956D01*
X31199963Y10586722D01*
X31298375Y10706637D01*
X33992889Y13401151D01*
X36273000Y13401151D01*
X36273000Y13198849D01*
X36312467Y13000435D01*
X36389885Y12813533D01*
X36502277Y12645326D01*
X36645326Y12502277D01*
X36813533Y12389885D01*
X37000435Y12312467D01*
X37063111Y12300000D01*
X37000435Y12287533D01*
X36813533Y12210115D01*
X36645326Y12097723D01*
X36502277Y11954674D01*
X36389885Y11786467D01*
X36312467Y11599565D01*
X36273000Y11401151D01*
X36273000Y11198849D01*
X36312467Y11000435D01*
X36389885Y10813533D01*
X36502277Y10645326D01*
X36645326Y10502277D01*
X36813533Y10389885D01*
X37000435Y10312467D01*
X37198849Y10273000D01*
X37401151Y10273000D01*
X37599565Y10312467D01*
X37786467Y10389885D01*
X37954674Y10502277D01*
X38097723Y10645326D01*
X38210115Y10813533D01*
X38287533Y11000435D01*
X38327000Y11198849D01*
X38327000Y11401151D01*
X38287533Y11599565D01*
X38210115Y11786467D01*
X38097723Y11954674D01*
X37954674Y12097723D01*
X37786467Y12210115D01*
X37599565Y12287533D01*
X37536889Y12300000D01*
X37599565Y12312467D01*
X37786467Y12389885D01*
X37954674Y12502277D01*
X38097723Y12645326D01*
X38210115Y12813533D01*
X38287533Y13000435D01*
X38327000Y13198849D01*
X38327000Y13401151D01*
X38287533Y13599565D01*
X38210115Y13786467D01*
X38097723Y13954674D01*
X37954674Y14097723D01*
X37786467Y14210115D01*
X37599565Y14287533D01*
X37401151Y14327000D01*
X37198849Y14327000D01*
X37000435Y14287533D01*
X36813533Y14210115D01*
X36645326Y14097723D01*
X36502277Y13954674D01*
X36389885Y13786467D01*
X36312467Y13599565D01*
X36273000Y13401151D01*
X33992889Y13401151D01*
X34893363Y14301625D01*
X35013278Y14400037D01*
X35138044Y14466726D01*
X35273426Y14507793D01*
X35427821Y14523000D01*
X37300000Y14523000D01*
X37327151Y14524334D01*
X37522241Y14543549D01*
X37575498Y14554142D01*
X37763091Y14611047D01*
X37813260Y14631828D01*
X37986147Y14724238D01*
X38031297Y14754406D01*
X38182834Y14878769D01*
X38221231Y14917166D01*
X38345594Y15068703D01*
X38375762Y15113853D01*
X38468172Y15286740D01*
X38488953Y15336909D01*
X38545858Y15524502D01*
X38556451Y15577759D01*
X38575666Y15772849D01*
X38575666Y15827151D01*
X38556451Y16022241D01*
X38545858Y16075498D01*
X38488953Y16263091D01*
X38468172Y16313260D01*
X38375762Y16486147D01*
X38345594Y16531297D01*
X38221231Y16682834D01*
X38182834Y16721231D01*
X38031297Y16845594D01*
X37986147Y16875762D01*
X37813260Y16968172D01*
X37763091Y16988953D01*
X37575498Y17045858D01*
X37522241Y17056451D01*
X37327151Y17075666D01*
X37300000Y17077000D01*
X35506809Y17077000D01*
X35712777Y17162315D01*
X36028391Y17373201D01*
X36296799Y17641609D01*
X36507685Y17957223D01*
X36652947Y18307915D01*
X36727000Y18680207D01*
X36727000Y19059793D01*
X36652947Y19432085D01*
X36507685Y19782777D01*
X36296799Y20098391D01*
X36028391Y20366799D01*
X35712777Y20577685D01*
X35362085Y20722947D01*
X34989793Y20797000D01*
X34610207Y20797000D01*
X34237915Y20722947D01*
X33887223Y20577685D01*
X33571609Y20366799D01*
X33303201Y20098391D01*
X33092315Y19782777D01*
X32947053Y19432085D01*
X32873000Y19059793D01*
X32873000Y18680207D01*
X32947053Y18307915D01*
X33092315Y17957223D01*
X33303201Y17641609D01*
X33571609Y17373201D01*
X33887223Y17162315D01*
X34237915Y17017053D01*
X34301839Y17004338D01*
X34251122Y16988953D01*
X34200953Y16968172D01*
X34028066Y16875762D01*
X33982916Y16845593D01*
X33831380Y16721230D01*
X33811238Y16702976D01*
X28897024Y11788762D01*
X28878770Y11768620D01*
X28754407Y11617084D01*
X28724238Y11571934D01*
X28631828Y11399047D01*
X28611047Y11348878D01*
X28554142Y11161285D01*
X28550000Y11140461D01*
X28545858Y11161285D01*
X28488953Y11348878D01*
X28468172Y11399047D01*
X28375762Y11571934D01*
X28345593Y11617084D01*
X28221230Y11768620D01*
X28202976Y11788762D01*
X26788762Y13202976D01*
X26768620Y13221230D01*
X26617084Y13345593D01*
X26571934Y13375762D01*
X26399047Y13468172D01*
X26348878Y13488953D01*
X26161285Y13545858D01*
X26108028Y13556451D01*
X25912937Y13575666D01*
X25885786Y13577000D01*
X13813607Y13577000D01*
X13659213Y13592207D01*
X13523831Y13633274D01*
X13399068Y13699961D01*
X13289709Y13789709D01*
X13199961Y13899068D01*
X13133274Y14023831D01*
X13092207Y14159213D01*
X13077000Y14313607D01*
X13077000Y15096226D01*
X23823000Y15096226D01*
X23823000Y14903774D01*
X23860546Y14715020D01*
X23934194Y14537217D01*
X24041115Y14377199D01*
X24177199Y14241115D01*
X24337217Y14134194D01*
X24515020Y14060546D01*
X24703774Y14023000D01*
X24896226Y14023000D01*
X25084980Y14060546D01*
X25262783Y14134194D01*
X25422801Y14241115D01*
X25558885Y14377199D01*
X25665806Y14537217D01*
X25739454Y14715020D01*
X25777000Y14903774D01*
X25777000Y15096226D01*
X26323000Y15096226D01*
X26323000Y14903774D01*
X26360546Y14715020D01*
X26434194Y14537217D01*
X26541115Y14377199D01*
X26677199Y14241115D01*
X26837217Y14134194D01*
X27015020Y14060546D01*
X27203774Y14023000D01*
X27396226Y14023000D01*
X27584980Y14060546D01*
X27762783Y14134194D01*
X27922801Y14241115D01*
X28058885Y14377199D01*
X28165806Y14537217D01*
X28239454Y14715020D01*
X28277000Y14903774D01*
X28277000Y15096226D01*
X28823000Y15096226D01*
X28823000Y14903774D01*
X28860546Y14715020D01*
X28934194Y14537217D01*
X29041115Y14377199D01*
X29177199Y14241115D01*
X29337217Y14134194D01*
X29515020Y14060546D01*
X29703774Y14023000D01*
X29896226Y14023000D01*
X30084980Y14060546D01*
X30262783Y14134194D01*
X30422801Y14241115D01*
X30558885Y14377199D01*
X30665806Y14537217D01*
X30739454Y14715020D01*
X30777000Y14903774D01*
X30777000Y15096226D01*
X30739454Y15284980D01*
X30665806Y15462783D01*
X30558885Y15622801D01*
X30422801Y15758885D01*
X30262783Y15865806D01*
X30084980Y15939454D01*
X29896226Y15977000D01*
X29703774Y15977000D01*
X29515020Y15939454D01*
X29337217Y15865806D01*
X29177199Y15758885D01*
X29041115Y15622801D01*
X28934194Y15462783D01*
X28860546Y15284980D01*
X28823000Y15096226D01*
X28277000Y15096226D01*
X28239454Y15284980D01*
X28165806Y15462783D01*
X28058885Y15622801D01*
X27922801Y15758885D01*
X27762783Y15865806D01*
X27584980Y15939454D01*
X27396226Y15977000D01*
X27203774Y15977000D01*
X27015020Y15939454D01*
X26837217Y15865806D01*
X26677199Y15758885D01*
X26541115Y15622801D01*
X26434194Y15462783D01*
X26360546Y15284980D01*
X26323000Y15096226D01*
X25777000Y15096226D01*
X25739454Y15284980D01*
X25665806Y15462783D01*
X25558885Y15622801D01*
X25422801Y15758885D01*
X25262783Y15865806D01*
X25084980Y15939454D01*
X24896226Y15977000D01*
X24703774Y15977000D01*
X24515020Y15939454D01*
X24337217Y15865806D01*
X24177199Y15758885D01*
X24041115Y15622801D01*
X23934194Y15462783D01*
X23860546Y15284980D01*
X23823000Y15096226D01*
X13077000Y15096226D01*
X13077000Y15800000D01*
X13075666Y15827151D01*
X13056451Y16022241D01*
X13045858Y16075498D01*
X12988953Y16263091D01*
X12968172Y16313260D01*
X12875762Y16486147D01*
X12845594Y16531297D01*
X12721231Y16682834D01*
X12682834Y16721231D01*
X12531297Y16845594D01*
X12486147Y16875762D01*
X12313260Y16968172D01*
X12263091Y16988953D01*
X12075498Y17045858D01*
X12022241Y17056451D01*
X11827151Y17075666D01*
X11800000Y17077000D01*
X7800000Y17077000D01*
X7772849Y17075666D01*
X7577759Y17056451D01*
X7524502Y17045858D01*
X7336909Y16988953D01*
X7286740Y16968172D01*
X7113853Y16875762D01*
X7068703Y16845594D01*
X6917166Y16721231D01*
X6878769Y16682834D01*
X6754406Y16531297D01*
X6724238Y16486147D01*
X6631828Y16313260D01*
X6611047Y16263091D01*
X6554142Y16075498D01*
X6543549Y16022241D01*
X6524334Y15827151D01*
X6523000Y15800000D01*
X2802000Y15800000D01*
X2802000Y21285226D01*
X2812906Y21396447D01*
X2840916Y21489222D01*
X2886409Y21574784D01*
X2947661Y21649887D01*
X3022334Y21711662D01*
X3107580Y21757754D01*
X3200157Y21786410D01*
X3310428Y21798000D01*
X9339386Y21798000D01*
X9445723Y21350383D01*
X9454602Y21324543D01*
X9463150Y21298489D01*
X9464877Y21294642D01*
X9684531Y20814070D01*
X9698253Y20790460D01*
X9711705Y20766549D01*
X9714146Y20763111D01*
X10022961Y20334354D01*
X10041008Y20313858D01*
X10058848Y20293017D01*
X10061910Y20290118D01*
X10448122Y19929511D01*
X10469825Y19912897D01*
X10491355Y19895932D01*
X10494922Y19893683D01*
X10943821Y19614959D01*
X10968325Y19602882D01*
X10992753Y19590416D01*
X10996689Y19588902D01*
X11491178Y19402678D01*
X11517600Y19395581D01*
X11543944Y19388108D01*
X11548099Y19387388D01*
X12069340Y19300757D01*
X12096609Y19298928D01*
X12123932Y19296712D01*
X12128148Y19296813D01*
X12128149Y19296813D01*
X12656289Y19313074D01*
X12683351Y19316572D01*
X12710627Y19319710D01*
X12714743Y19320628D01*
X13229667Y19439163D01*
X13255553Y19447857D01*
X13281682Y19456227D01*
X13285541Y19457927D01*
X13767635Y19674221D01*
X13791360Y19687789D01*
X13815344Y19701063D01*
X13818799Y19703480D01*
X14249700Y20009293D01*
X14270332Y20027206D01*
X14291287Y20044891D01*
X14294208Y20047933D01*
X14657503Y20431619D01*
X14674278Y20453218D01*
X14691383Y20474617D01*
X14693657Y20478168D01*
X14975508Y20925110D01*
X14987755Y20949527D01*
X15000392Y20973869D01*
X15001932Y20977795D01*
X15191604Y21470970D01*
X15198876Y21497305D01*
X15206543Y21523634D01*
X15207292Y21527784D01*
X15254144Y21798000D01*
X29814833Y21798000D01*
X29827578Y21799255D01*
X29828766Y21799247D01*
X29832962Y21799659D01*
X29852122Y21801673D01*
X29859202Y21802370D01*
X29859438Y21802442D01*
X29871783Y21803739D01*
X29898547Y21809233D01*
X29925481Y21814371D01*
X29929518Y21815590D01*
X29966805Y21827133D01*
X29991971Y21837712D01*
X30017416Y21847992D01*
X30021139Y21849972D01*
X30055475Y21868537D01*
X30078125Y21883815D01*
X30101077Y21898834D01*
X30104345Y21901500D01*
X30134420Y21926381D01*
X30153701Y21945798D01*
X30173261Y21964953D01*
X30175949Y21968202D01*
X30200619Y21998451D01*
X30215751Y22021227D01*
X30231228Y22043831D01*
X30233234Y22047541D01*
X30251559Y22082005D01*
X30261982Y22107293D01*
X30272772Y22132468D01*
X30274019Y22136497D01*
X30285301Y22173864D01*
X30290609Y22200671D01*
X30296309Y22227489D01*
X30296750Y22231683D01*
X30300559Y22270530D01*
X30316746Y22435623D01*
X30923000Y22435623D01*
X30923000Y22164377D01*
X30975917Y21898344D01*
X31079718Y21647746D01*
X31230414Y21422213D01*
X31422213Y21230414D01*
X31647746Y21079718D01*
X31898344Y20975917D01*
X32164377Y20923000D01*
X32435623Y20923000D01*
X32701656Y20975917D01*
X32952254Y21079718D01*
X33177787Y21230414D01*
X33369586Y21422213D01*
X33520282Y21647746D01*
X33624083Y21898344D01*
X33677000Y22164377D01*
X33677000Y22435623D01*
X33624083Y22701656D01*
X33520282Y22952254D01*
X33369586Y23177787D01*
X33177787Y23369586D01*
X32952254Y23520282D01*
X32701656Y23624083D01*
X32435623Y23677000D01*
X32164377Y23677000D01*
X31898344Y23624083D01*
X31647746Y23520282D01*
X31422213Y23369586D01*
X31230414Y23177787D01*
X31079718Y22952254D01*
X30975917Y22701656D01*
X30923000Y22435623D01*
X30316746Y22435623D01*
X30341473Y22687802D01*
X30454096Y23060827D01*
X30637029Y23404874D01*
X30883305Y23706839D01*
X31183540Y23955215D01*
X31526307Y24140548D01*
X31898536Y24255772D01*
X32286064Y24296503D01*
X32674115Y24261188D01*
G37*
%TD.AperFunction*%
%TD*%
D18*
%TO.N,/VIN*%
X11970189Y16655624D02*
X12133850Y16605978D01*
X12284672Y16525362D01*
X12416870Y16416870D01*
X12525362Y16284672D01*
X12605978Y16133850D01*
X12655624Y15970189D01*
X12673000Y15793766D01*
X12673000Y14300000D01*
X12673612Y14287552D01*
X12692827Y14092462D01*
X12697683Y14068044D01*
X12754588Y13880451D01*
X12764116Y13857450D01*
X12856526Y13684563D01*
X12870358Y13663862D01*
X12994721Y13512325D01*
X13012325Y13494721D01*
X13163862Y13370358D01*
X13184563Y13356526D01*
X13357450Y13264116D01*
X13380451Y13254588D01*
X13568044Y13197683D01*
X13592462Y13192827D01*
X13787552Y13173612D01*
X13800000Y13173000D01*
X25879552Y13173000D01*
X26055976Y13155624D01*
X26219637Y13105978D01*
X26370458Y13025363D01*
X26507496Y12912898D01*
X27912898Y11507496D01*
X28025363Y11370458D01*
X28105978Y11219637D01*
X28155624Y11055976D01*
X28173000Y10879552D01*
X28173000Y9606234D01*
X28155624Y9429811D01*
X28105978Y9266150D01*
X28025362Y9115328D01*
X27916870Y8983130D01*
X27784672Y8874638D01*
X27633850Y8794022D01*
X27470189Y8744376D01*
X27300000Y8727614D01*
X27129811Y8744376D01*
X26966150Y8794022D01*
X26815328Y8874638D01*
X26683130Y8983130D01*
X26574638Y9115328D01*
X26494022Y9266150D01*
X26444376Y9429811D01*
X26427000Y9606234D01*
X26427000Y10185786D01*
X26426388Y10198234D01*
X26407173Y10393325D01*
X26402317Y10417743D01*
X26345412Y10605336D01*
X26335884Y10628337D01*
X26243474Y10801224D01*
X26229642Y10821925D01*
X26105279Y10973461D01*
X26096910Y10982696D01*
X25982696Y11096910D01*
X25973461Y11105279D01*
X25821925Y11229642D01*
X25801224Y11243474D01*
X25628337Y11335884D01*
X25605336Y11345412D01*
X25417743Y11402317D01*
X25393325Y11407173D01*
X25198234Y11426388D01*
X25185786Y11427000D01*
X13800000Y11427000D01*
X13787552Y11426388D01*
X13592462Y11407173D01*
X13568044Y11402317D01*
X13380451Y11345412D01*
X13357450Y11335884D01*
X13184563Y11243474D01*
X13163862Y11229642D01*
X13012325Y11105279D01*
X12994721Y11087675D01*
X12870358Y10936138D01*
X12856526Y10915437D01*
X12764116Y10742550D01*
X12754588Y10719549D01*
X12697683Y10531956D01*
X12692827Y10507538D01*
X12673612Y10312448D01*
X12673000Y10300000D01*
X12673000Y8806234D01*
X12655624Y8629811D01*
X12605978Y8466150D01*
X12525362Y8315328D01*
X12416870Y8183130D01*
X12284672Y8074638D01*
X12133850Y7994022D01*
X11970189Y7944376D01*
X11793766Y7927000D01*
X7806234Y7927000D01*
X7629811Y7944376D01*
X7466150Y7994022D01*
X7315328Y8074638D01*
X7183130Y8183130D01*
X7074638Y8315328D01*
X6994022Y8466150D01*
X6944376Y8629811D01*
X6927000Y8806234D01*
X6927000Y10793078D01*
X6993000Y10793078D01*
X6993000Y9806921D01*
X7005691Y9678078D01*
X7055839Y9512763D01*
X7137274Y9360408D01*
X7246868Y9226867D01*
X7380409Y9117273D01*
X7532764Y9035838D01*
X7698079Y8985690D01*
X7870000Y8968757D01*
X8041922Y8985690D01*
X8207237Y9035838D01*
X8359592Y9117273D01*
X8493133Y9226867D01*
X8496781Y9231313D01*
X8473000Y9111754D01*
X8473000Y8988246D01*
X8497095Y8867111D01*
X8544360Y8753004D01*
X8612977Y8650311D01*
X8700311Y8562977D01*
X8803004Y8494360D01*
X8917111Y8447095D01*
X9038246Y8423000D01*
X9161754Y8423000D01*
X9282889Y8447095D01*
X9396996Y8494360D01*
X9499689Y8562977D01*
X9587023Y8650311D01*
X9655640Y8753004D01*
X9702905Y8867111D01*
X9727000Y8988246D01*
X9727000Y9111754D01*
X9873000Y9111754D01*
X9873000Y8988246D01*
X9897095Y8867111D01*
X9944360Y8753004D01*
X10012977Y8650311D01*
X10100311Y8562977D01*
X10203004Y8494360D01*
X10317111Y8447095D01*
X10438246Y8423000D01*
X10561754Y8423000D01*
X10682889Y8447095D01*
X10796996Y8494360D01*
X10899689Y8562977D01*
X10987023Y8650311D01*
X11055640Y8753004D01*
X11102905Y8867111D01*
X11127000Y8988246D01*
X11127000Y9111754D01*
X11103218Y9231314D01*
X11106868Y9226867D01*
X11240409Y9117273D01*
X11392764Y9035838D01*
X11558079Y8985690D01*
X11730000Y8968757D01*
X11901922Y8985690D01*
X12067237Y9035838D01*
X12219592Y9117273D01*
X12353133Y9226867D01*
X12462727Y9360408D01*
X12544162Y9512763D01*
X12594310Y9678078D01*
X12607000Y9806921D01*
X12607000Y10793079D01*
X12594310Y10921922D01*
X12544162Y11087237D01*
X12462727Y11239592D01*
X12353133Y11373133D01*
X12219591Y11482727D01*
X12067236Y11564162D01*
X11901921Y11614310D01*
X11730000Y11631243D01*
X11558078Y11614310D01*
X11392763Y11564162D01*
X11240408Y11482727D01*
X11106867Y11373133D01*
X10997273Y11239591D01*
X10915838Y11087236D01*
X10865690Y10921921D01*
X10853000Y10793078D01*
X10853000Y9806921D01*
X10865691Y9678078D01*
X10912308Y9524404D01*
X10899689Y9537023D01*
X10796996Y9605640D01*
X10682889Y9652905D01*
X10561754Y9677000D01*
X10438246Y9677000D01*
X10317111Y9652905D01*
X10203004Y9605640D01*
X10100311Y9537023D01*
X10012977Y9449689D01*
X9944360Y9346996D01*
X9897095Y9232889D01*
X9873000Y9111754D01*
X9727000Y9111754D01*
X9702905Y9232889D01*
X9655640Y9346996D01*
X9587023Y9449689D01*
X9499689Y9537023D01*
X9396996Y9605640D01*
X9282889Y9652905D01*
X9161754Y9677000D01*
X9038246Y9677000D01*
X8917111Y9652905D01*
X8803004Y9605640D01*
X8700311Y9537023D01*
X8687694Y9524406D01*
X8734310Y9678078D01*
X8747000Y9806921D01*
X8747000Y10431781D01*
X8803004Y10394360D01*
X8917111Y10347095D01*
X9038246Y10323000D01*
X9161754Y10323000D01*
X9282889Y10347095D01*
X9396996Y10394360D01*
X9499689Y10462977D01*
X9587023Y10550311D01*
X9655640Y10653004D01*
X9702905Y10767111D01*
X9727000Y10888246D01*
X9727000Y11011754D01*
X9702905Y11132889D01*
X9655640Y11246996D01*
X9587023Y11349689D01*
X9536712Y11400000D01*
X9582366Y11445654D01*
X9639149Y11462879D01*
X9711591Y11501600D01*
X9775088Y11553710D01*
X9788149Y11569625D01*
X9895194Y11676670D01*
X9897095Y11667111D01*
X9944360Y11553004D01*
X10012977Y11450311D01*
X10100311Y11362977D01*
X10203004Y11294360D01*
X10317111Y11247095D01*
X10438246Y11223000D01*
X10561754Y11223000D01*
X10682889Y11247095D01*
X10796996Y11294360D01*
X10899689Y11362977D01*
X10987023Y11450311D01*
X11055640Y11553004D01*
X11102905Y11667111D01*
X11127000Y11788246D01*
X11127000Y11911754D01*
X11102905Y12032889D01*
X11055640Y12146996D01*
X10987023Y12249689D01*
X10936712Y12300000D01*
X10987023Y12350311D01*
X11055640Y12453004D01*
X11102905Y12567111D01*
X11127000Y12688246D01*
X11127000Y12811754D01*
X11102905Y12932889D01*
X11055640Y13046996D01*
X10987023Y13149689D01*
X10936712Y13200000D01*
X10987023Y13250311D01*
X11032173Y13317883D01*
X11106868Y13226867D01*
X11240409Y13117273D01*
X11392764Y13035838D01*
X11558079Y12985690D01*
X11730000Y12968757D01*
X11901922Y12985690D01*
X12067237Y13035838D01*
X12219592Y13117273D01*
X12353133Y13226867D01*
X12462727Y13360408D01*
X12544162Y13512763D01*
X12594310Y13678078D01*
X12607000Y13806921D01*
X12607000Y14793079D01*
X12594310Y14921922D01*
X12544162Y15087237D01*
X12462727Y15239592D01*
X12353133Y15373133D01*
X12219591Y15482727D01*
X12067236Y15564162D01*
X11901921Y15614310D01*
X11730000Y15631243D01*
X11558078Y15614310D01*
X11392763Y15564162D01*
X11240408Y15482727D01*
X11106867Y15373133D01*
X11103219Y15368687D01*
X11127000Y15488246D01*
X11127000Y15611754D01*
X11102905Y15732889D01*
X11055640Y15846996D01*
X10987023Y15949689D01*
X10899689Y16037023D01*
X10796996Y16105640D01*
X10682889Y16152905D01*
X10561754Y16177000D01*
X10438246Y16177000D01*
X10317111Y16152905D01*
X10203004Y16105640D01*
X10100311Y16037023D01*
X10012977Y15949689D01*
X9944360Y15846996D01*
X9897095Y15732889D01*
X9873000Y15611754D01*
X9873000Y15488246D01*
X9897095Y15367111D01*
X9944360Y15253004D01*
X10012977Y15150311D01*
X10100311Y15062977D01*
X10203004Y14994360D01*
X10317111Y14947095D01*
X10438246Y14923000D01*
X10561754Y14923000D01*
X10682889Y14947095D01*
X10796996Y14994360D01*
X10899689Y15062977D01*
X10912307Y15075595D01*
X10865690Y14921921D01*
X10853000Y14793078D01*
X10853000Y14168219D01*
X10796996Y14205640D01*
X10682889Y14252905D01*
X10561754Y14277000D01*
X10438246Y14277000D01*
X10317111Y14252905D01*
X10203004Y14205640D01*
X10100311Y14137023D01*
X10012977Y14049689D01*
X9944360Y13946996D01*
X9897095Y13832889D01*
X9873000Y13711754D01*
X9873000Y13588246D01*
X9897095Y13467111D01*
X9944360Y13353004D01*
X10012977Y13250311D01*
X10063288Y13200000D01*
X10012977Y13149689D01*
X9944360Y13046996D01*
X9897095Y12932889D01*
X9878506Y12839435D01*
X9726921Y12687850D01*
X9727000Y12688246D01*
X9727000Y12811754D01*
X9702905Y12932889D01*
X9655640Y13046996D01*
X9587023Y13149689D01*
X9499689Y13237023D01*
X9396996Y13305640D01*
X9282889Y13352905D01*
X9161754Y13377000D01*
X9038246Y13377000D01*
X8917111Y13352905D01*
X8803004Y13305640D01*
X8700311Y13237023D01*
X8612977Y13149689D01*
X8544360Y13046996D01*
X8497095Y12932889D01*
X8473000Y12811754D01*
X8473000Y12688246D01*
X8497095Y12567111D01*
X8544360Y12453004D01*
X8612977Y12350311D01*
X8663288Y12300000D01*
X8612977Y12249689D01*
X8544360Y12146996D01*
X8497095Y12032889D01*
X8473000Y11911754D01*
X8473000Y11788246D01*
X8497095Y11667111D01*
X8544360Y11553004D01*
X8612977Y11450311D01*
X8663288Y11400000D01*
X8612977Y11349689D01*
X8567827Y11282117D01*
X8493133Y11373133D01*
X8359591Y11482727D01*
X8207236Y11564162D01*
X8041921Y11614310D01*
X7870000Y11631243D01*
X7698078Y11614310D01*
X7532763Y11564162D01*
X7380408Y11482727D01*
X7246867Y11373133D01*
X7137273Y11239591D01*
X7055838Y11087236D01*
X7005690Y10921921D01*
X6993000Y10793078D01*
X6927000Y10793078D01*
X6927000Y14793078D01*
X6993000Y14793078D01*
X6993000Y13806921D01*
X7005691Y13678078D01*
X7055839Y13512763D01*
X7137274Y13360408D01*
X7246868Y13226867D01*
X7380409Y13117273D01*
X7532764Y13035838D01*
X7698079Y12985690D01*
X7870000Y12968757D01*
X8041922Y12985690D01*
X8207237Y13035838D01*
X8359592Y13117273D01*
X8493133Y13226867D01*
X8602727Y13360408D01*
X8684162Y13512763D01*
X8734310Y13678078D01*
X8747000Y13806921D01*
X8747000Y14793079D01*
X8734310Y14921922D01*
X8687694Y15075594D01*
X8700311Y15062977D01*
X8803004Y14994360D01*
X8917111Y14947095D01*
X9038246Y14923000D01*
X9161754Y14923000D01*
X9282889Y14947095D01*
X9396996Y14994360D01*
X9499689Y15062977D01*
X9587023Y15150311D01*
X9655640Y15253004D01*
X9702905Y15367111D01*
X9727000Y15488246D01*
X9727000Y15611754D01*
X9702905Y15732889D01*
X9655640Y15846996D01*
X9587023Y15949689D01*
X9499689Y16037023D01*
X9396996Y16105640D01*
X9282889Y16152905D01*
X9161754Y16177000D01*
X9038246Y16177000D01*
X8917111Y16152905D01*
X8803004Y16105640D01*
X8700311Y16037023D01*
X8612977Y15949689D01*
X8544360Y15846996D01*
X8497095Y15732889D01*
X8473000Y15611754D01*
X8473000Y15488246D01*
X8496781Y15368687D01*
X8493133Y15373133D01*
X8359591Y15482727D01*
X8207236Y15564162D01*
X8041921Y15614310D01*
X7870000Y15631243D01*
X7698078Y15614310D01*
X7532763Y15564162D01*
X7380408Y15482727D01*
X7246867Y15373133D01*
X7137273Y15239591D01*
X7055838Y15087236D01*
X7005690Y14921921D01*
X6993000Y14793078D01*
X6927000Y14793078D01*
X6927000Y15793766D01*
X6944376Y15970189D01*
X6994022Y16133850D01*
X7074638Y16284672D01*
X7183130Y16416870D01*
X7315328Y16525362D01*
X7466150Y16605978D01*
X7629811Y16655624D01*
X7806234Y16673000D01*
X11793766Y16673000D01*
X11970189Y16655624D01*
%TA.AperFunction,Conductor*%
D19*
G36*
X11970189Y16655624D02*
G01*
X12133850Y16605978D01*
X12284672Y16525362D01*
X12416870Y16416870D01*
X12525362Y16284672D01*
X12605978Y16133850D01*
X12655624Y15970189D01*
X12673000Y15793766D01*
X12673000Y14300000D01*
X12673612Y14287552D01*
X12692827Y14092462D01*
X12697683Y14068044D01*
X12754588Y13880451D01*
X12764116Y13857450D01*
X12856526Y13684563D01*
X12870358Y13663862D01*
X12994721Y13512325D01*
X13012325Y13494721D01*
X13163862Y13370358D01*
X13184563Y13356526D01*
X13357450Y13264116D01*
X13380451Y13254588D01*
X13568044Y13197683D01*
X13592462Y13192827D01*
X13787552Y13173612D01*
X13800000Y13173000D01*
X25879552Y13173000D01*
X26055976Y13155624D01*
X26219637Y13105978D01*
X26370458Y13025363D01*
X26507496Y12912898D01*
X27912898Y11507496D01*
X28025363Y11370458D01*
X28105978Y11219637D01*
X28155624Y11055976D01*
X28173000Y10879552D01*
X28173000Y9606234D01*
X28155624Y9429811D01*
X28105978Y9266150D01*
X28025362Y9115328D01*
X27916870Y8983130D01*
X27784672Y8874638D01*
X27633850Y8794022D01*
X27470189Y8744376D01*
X27300000Y8727614D01*
X27129811Y8744376D01*
X26966150Y8794022D01*
X26815328Y8874638D01*
X26683130Y8983130D01*
X26574638Y9115328D01*
X26494022Y9266150D01*
X26444376Y9429811D01*
X26427000Y9606234D01*
X26427000Y10185786D01*
X26426388Y10198234D01*
X26407173Y10393325D01*
X26402317Y10417743D01*
X26345412Y10605336D01*
X26335884Y10628337D01*
X26243474Y10801224D01*
X26229642Y10821925D01*
X26105279Y10973461D01*
X26096910Y10982696D01*
X25982696Y11096910D01*
X25973461Y11105279D01*
X25821925Y11229642D01*
X25801224Y11243474D01*
X25628337Y11335884D01*
X25605336Y11345412D01*
X25417743Y11402317D01*
X25393325Y11407173D01*
X25198234Y11426388D01*
X25185786Y11427000D01*
X13800000Y11427000D01*
X13787552Y11426388D01*
X13592462Y11407173D01*
X13568044Y11402317D01*
X13380451Y11345412D01*
X13357450Y11335884D01*
X13184563Y11243474D01*
X13163862Y11229642D01*
X13012325Y11105279D01*
X12994721Y11087675D01*
X12870358Y10936138D01*
X12856526Y10915437D01*
X12764116Y10742550D01*
X12754588Y10719549D01*
X12697683Y10531956D01*
X12692827Y10507538D01*
X12673612Y10312448D01*
X12673000Y10300000D01*
X12673000Y8806234D01*
X12655624Y8629811D01*
X12605978Y8466150D01*
X12525362Y8315328D01*
X12416870Y8183130D01*
X12284672Y8074638D01*
X12133850Y7994022D01*
X11970189Y7944376D01*
X11793766Y7927000D01*
X7806234Y7927000D01*
X7629811Y7944376D01*
X7466150Y7994022D01*
X7315328Y8074638D01*
X7183130Y8183130D01*
X7074638Y8315328D01*
X6994022Y8466150D01*
X6944376Y8629811D01*
X6927000Y8806234D01*
X6927000Y10793078D01*
X6993000Y10793078D01*
X6993000Y9806921D01*
X7005691Y9678078D01*
X7055839Y9512763D01*
X7137274Y9360408D01*
X7246868Y9226867D01*
X7380409Y9117273D01*
X7532764Y9035838D01*
X7698079Y8985690D01*
X7870000Y8968757D01*
X8041922Y8985690D01*
X8207237Y9035838D01*
X8359592Y9117273D01*
X8493133Y9226867D01*
X8496781Y9231313D01*
X8473000Y9111754D01*
X8473000Y8988246D01*
X8497095Y8867111D01*
X8544360Y8753004D01*
X8612977Y8650311D01*
X8700311Y8562977D01*
X8803004Y8494360D01*
X8917111Y8447095D01*
X9038246Y8423000D01*
X9161754Y8423000D01*
X9282889Y8447095D01*
X9396996Y8494360D01*
X9499689Y8562977D01*
X9587023Y8650311D01*
X9655640Y8753004D01*
X9702905Y8867111D01*
X9727000Y8988246D01*
X9727000Y9111754D01*
X9873000Y9111754D01*
X9873000Y8988246D01*
X9897095Y8867111D01*
X9944360Y8753004D01*
X10012977Y8650311D01*
X10100311Y8562977D01*
X10203004Y8494360D01*
X10317111Y8447095D01*
X10438246Y8423000D01*
X10561754Y8423000D01*
X10682889Y8447095D01*
X10796996Y8494360D01*
X10899689Y8562977D01*
X10987023Y8650311D01*
X11055640Y8753004D01*
X11102905Y8867111D01*
X11127000Y8988246D01*
X11127000Y9111754D01*
X11103218Y9231314D01*
X11106868Y9226867D01*
X11240409Y9117273D01*
X11392764Y9035838D01*
X11558079Y8985690D01*
X11730000Y8968757D01*
X11901922Y8985690D01*
X12067237Y9035838D01*
X12219592Y9117273D01*
X12353133Y9226867D01*
X12462727Y9360408D01*
X12544162Y9512763D01*
X12594310Y9678078D01*
X12607000Y9806921D01*
X12607000Y10793079D01*
X12594310Y10921922D01*
X12544162Y11087237D01*
X12462727Y11239592D01*
X12353133Y11373133D01*
X12219591Y11482727D01*
X12067236Y11564162D01*
X11901921Y11614310D01*
X11730000Y11631243D01*
X11558078Y11614310D01*
X11392763Y11564162D01*
X11240408Y11482727D01*
X11106867Y11373133D01*
X10997273Y11239591D01*
X10915838Y11087236D01*
X10865690Y10921921D01*
X10853000Y10793078D01*
X10853000Y9806921D01*
X10865691Y9678078D01*
X10912308Y9524404D01*
X10899689Y9537023D01*
X10796996Y9605640D01*
X10682889Y9652905D01*
X10561754Y9677000D01*
X10438246Y9677000D01*
X10317111Y9652905D01*
X10203004Y9605640D01*
X10100311Y9537023D01*
X10012977Y9449689D01*
X9944360Y9346996D01*
X9897095Y9232889D01*
X9873000Y9111754D01*
X9727000Y9111754D01*
X9702905Y9232889D01*
X9655640Y9346996D01*
X9587023Y9449689D01*
X9499689Y9537023D01*
X9396996Y9605640D01*
X9282889Y9652905D01*
X9161754Y9677000D01*
X9038246Y9677000D01*
X8917111Y9652905D01*
X8803004Y9605640D01*
X8700311Y9537023D01*
X8687694Y9524406D01*
X8734310Y9678078D01*
X8747000Y9806921D01*
X8747000Y10431781D01*
X8803004Y10394360D01*
X8917111Y10347095D01*
X9038246Y10323000D01*
X9161754Y10323000D01*
X9282889Y10347095D01*
X9396996Y10394360D01*
X9499689Y10462977D01*
X9587023Y10550311D01*
X9655640Y10653004D01*
X9702905Y10767111D01*
X9727000Y10888246D01*
X9727000Y11011754D01*
X9702905Y11132889D01*
X9655640Y11246996D01*
X9587023Y11349689D01*
X9536712Y11400000D01*
X9582366Y11445654D01*
X9639149Y11462879D01*
X9711591Y11501600D01*
X9775088Y11553710D01*
X9788149Y11569625D01*
X9895194Y11676670D01*
X9897095Y11667111D01*
X9944360Y11553004D01*
X10012977Y11450311D01*
X10100311Y11362977D01*
X10203004Y11294360D01*
X10317111Y11247095D01*
X10438246Y11223000D01*
X10561754Y11223000D01*
X10682889Y11247095D01*
X10796996Y11294360D01*
X10899689Y11362977D01*
X10987023Y11450311D01*
X11055640Y11553004D01*
X11102905Y11667111D01*
X11127000Y11788246D01*
X11127000Y11911754D01*
X11102905Y12032889D01*
X11055640Y12146996D01*
X10987023Y12249689D01*
X10936712Y12300000D01*
X10987023Y12350311D01*
X11055640Y12453004D01*
X11102905Y12567111D01*
X11127000Y12688246D01*
X11127000Y12811754D01*
X11102905Y12932889D01*
X11055640Y13046996D01*
X10987023Y13149689D01*
X10936712Y13200000D01*
X10987023Y13250311D01*
X11032173Y13317883D01*
X11106868Y13226867D01*
X11240409Y13117273D01*
X11392764Y13035838D01*
X11558079Y12985690D01*
X11730000Y12968757D01*
X11901922Y12985690D01*
X12067237Y13035838D01*
X12219592Y13117273D01*
X12353133Y13226867D01*
X12462727Y13360408D01*
X12544162Y13512763D01*
X12594310Y13678078D01*
X12607000Y13806921D01*
X12607000Y14793079D01*
X12594310Y14921922D01*
X12544162Y15087237D01*
X12462727Y15239592D01*
X12353133Y15373133D01*
X12219591Y15482727D01*
X12067236Y15564162D01*
X11901921Y15614310D01*
X11730000Y15631243D01*
X11558078Y15614310D01*
X11392763Y15564162D01*
X11240408Y15482727D01*
X11106867Y15373133D01*
X11103219Y15368687D01*
X11127000Y15488246D01*
X11127000Y15611754D01*
X11102905Y15732889D01*
X11055640Y15846996D01*
X10987023Y15949689D01*
X10899689Y16037023D01*
X10796996Y16105640D01*
X10682889Y16152905D01*
X10561754Y16177000D01*
X10438246Y16177000D01*
X10317111Y16152905D01*
X10203004Y16105640D01*
X10100311Y16037023D01*
X10012977Y15949689D01*
X9944360Y15846996D01*
X9897095Y15732889D01*
X9873000Y15611754D01*
X9873000Y15488246D01*
X9897095Y15367111D01*
X9944360Y15253004D01*
X10012977Y15150311D01*
X10100311Y15062977D01*
X10203004Y14994360D01*
X10317111Y14947095D01*
X10438246Y14923000D01*
X10561754Y14923000D01*
X10682889Y14947095D01*
X10796996Y14994360D01*
X10899689Y15062977D01*
X10912307Y15075595D01*
X10865690Y14921921D01*
X10853000Y14793078D01*
X10853000Y14168219D01*
X10796996Y14205640D01*
X10682889Y14252905D01*
X10561754Y14277000D01*
X10438246Y14277000D01*
X10317111Y14252905D01*
X10203004Y14205640D01*
X10100311Y14137023D01*
X10012977Y14049689D01*
X9944360Y13946996D01*
X9897095Y13832889D01*
X9873000Y13711754D01*
X9873000Y13588246D01*
X9897095Y13467111D01*
X9944360Y13353004D01*
X10012977Y13250311D01*
X10063288Y13200000D01*
X10012977Y13149689D01*
X9944360Y13046996D01*
X9897095Y12932889D01*
X9878506Y12839435D01*
X9726921Y12687850D01*
X9727000Y12688246D01*
X9727000Y12811754D01*
X9702905Y12932889D01*
X9655640Y13046996D01*
X9587023Y13149689D01*
X9499689Y13237023D01*
X9396996Y13305640D01*
X9282889Y13352905D01*
X9161754Y13377000D01*
X9038246Y13377000D01*
X8917111Y13352905D01*
X8803004Y13305640D01*
X8700311Y13237023D01*
X8612977Y13149689D01*
X8544360Y13046996D01*
X8497095Y12932889D01*
X8473000Y12811754D01*
X8473000Y12688246D01*
X8497095Y12567111D01*
X8544360Y12453004D01*
X8612977Y12350311D01*
X8663288Y12300000D01*
X8612977Y12249689D01*
X8544360Y12146996D01*
X8497095Y12032889D01*
X8473000Y11911754D01*
X8473000Y11788246D01*
X8497095Y11667111D01*
X8544360Y11553004D01*
X8612977Y11450311D01*
X8663288Y11400000D01*
X8612977Y11349689D01*
X8567827Y11282117D01*
X8493133Y11373133D01*
X8359591Y11482727D01*
X8207236Y11564162D01*
X8041921Y11614310D01*
X7870000Y11631243D01*
X7698078Y11614310D01*
X7532763Y11564162D01*
X7380408Y11482727D01*
X7246867Y11373133D01*
X7137273Y11239591D01*
X7055838Y11087236D01*
X7005690Y10921921D01*
X6993000Y10793078D01*
X6927000Y10793078D01*
X6927000Y14793078D01*
X6993000Y14793078D01*
X6993000Y13806921D01*
X7005691Y13678078D01*
X7055839Y13512763D01*
X7137274Y13360408D01*
X7246868Y13226867D01*
X7380409Y13117273D01*
X7532764Y13035838D01*
X7698079Y12985690D01*
X7870000Y12968757D01*
X8041922Y12985690D01*
X8207237Y13035838D01*
X8359592Y13117273D01*
X8493133Y13226867D01*
X8602727Y13360408D01*
X8684162Y13512763D01*
X8734310Y13678078D01*
X8747000Y13806921D01*
X8747000Y14793079D01*
X8734310Y14921922D01*
X8687694Y15075594D01*
X8700311Y15062977D01*
X8803004Y14994360D01*
X8917111Y14947095D01*
X9038246Y14923000D01*
X9161754Y14923000D01*
X9282889Y14947095D01*
X9396996Y14994360D01*
X9499689Y15062977D01*
X9587023Y15150311D01*
X9655640Y15253004D01*
X9702905Y15367111D01*
X9727000Y15488246D01*
X9727000Y15611754D01*
X9702905Y15732889D01*
X9655640Y15846996D01*
X9587023Y15949689D01*
X9499689Y16037023D01*
X9396996Y16105640D01*
X9282889Y16152905D01*
X9161754Y16177000D01*
X9038246Y16177000D01*
X8917111Y16152905D01*
X8803004Y16105640D01*
X8700311Y16037023D01*
X8612977Y15949689D01*
X8544360Y15846996D01*
X8497095Y15732889D01*
X8473000Y15611754D01*
X8473000Y15488246D01*
X8496781Y15368687D01*
X8493133Y15373133D01*
X8359591Y15482727D01*
X8207236Y15564162D01*
X8041921Y15614310D01*
X7870000Y15631243D01*
X7698078Y15614310D01*
X7532763Y15564162D01*
X7380408Y15482727D01*
X7246867Y15373133D01*
X7137273Y15239591D01*
X7055838Y15087236D01*
X7005690Y14921921D01*
X6993000Y14793078D01*
X6927000Y14793078D01*
X6927000Y15793766D01*
X6944376Y15970189D01*
X6994022Y16133850D01*
X7074638Y16284672D01*
X7183130Y16416870D01*
X7315328Y16525362D01*
X7466150Y16605978D01*
X7629811Y16655624D01*
X7806234Y16673000D01*
X11793766Y16673000D01*
X11970189Y16655624D01*
G37*
%TD.AperFunction*%
%TD*%
D18*
%TO.N,/VOUT*%
X37470189Y16655624D02*
X37633850Y16605978D01*
X37784672Y16525362D01*
X37916870Y16416870D01*
X38025362Y16284672D01*
X38105978Y16133850D01*
X38155624Y15970189D01*
X38172386Y15800000D01*
X38155624Y15629811D01*
X38105978Y15466150D01*
X38025362Y15315328D01*
X37916870Y15183130D01*
X37784672Y15074638D01*
X37633850Y14994022D01*
X37470189Y14944376D01*
X37293766Y14927000D01*
X35414214Y14927000D01*
X35401766Y14926388D01*
X35206675Y14907173D01*
X35182257Y14902317D01*
X34994664Y14845412D01*
X34971663Y14835884D01*
X34798776Y14743474D01*
X34778075Y14729642D01*
X34626539Y14605279D01*
X34617304Y14596910D01*
X31003090Y10982696D01*
X30994721Y10973461D01*
X30870358Y10821925D01*
X30856526Y10801224D01*
X30764116Y10628337D01*
X30754588Y10605336D01*
X30697683Y10417743D01*
X30692827Y10393325D01*
X30673612Y10198234D01*
X30673000Y10185786D01*
X30673000Y9606234D01*
X30655624Y9429811D01*
X30605978Y9266150D01*
X30525362Y9115328D01*
X30416870Y8983130D01*
X30284672Y8874638D01*
X30133850Y8794022D01*
X29970189Y8744376D01*
X29800000Y8727614D01*
X29629811Y8744376D01*
X29466150Y8794022D01*
X29315328Y8874638D01*
X29183130Y8983130D01*
X29074638Y9115328D01*
X28994022Y9266150D01*
X28944376Y9429811D01*
X28927000Y9606234D01*
X28927000Y10879552D01*
X28944376Y11055976D01*
X28994022Y11219637D01*
X29074637Y11370458D01*
X29187102Y11507496D01*
X34092504Y16412898D01*
X34229542Y16525363D01*
X34380363Y16605978D01*
X34544024Y16655624D01*
X34720448Y16673000D01*
X37293766Y16673000D01*
X37470189Y16655624D01*
%TA.AperFunction,Conductor*%
D19*
G36*
X37470189Y16655624D02*
G01*
X37633850Y16605978D01*
X37784672Y16525362D01*
X37916870Y16416870D01*
X38025362Y16284672D01*
X38105978Y16133850D01*
X38155624Y15970189D01*
X38172386Y15800000D01*
X38155624Y15629811D01*
X38105978Y15466150D01*
X38025362Y15315328D01*
X37916870Y15183130D01*
X37784672Y15074638D01*
X37633850Y14994022D01*
X37470189Y14944376D01*
X37293766Y14927000D01*
X35414214Y14927000D01*
X35401766Y14926388D01*
X35206675Y14907173D01*
X35182257Y14902317D01*
X34994664Y14845412D01*
X34971663Y14835884D01*
X34798776Y14743474D01*
X34778075Y14729642D01*
X34626539Y14605279D01*
X34617304Y14596910D01*
X31003090Y10982696D01*
X30994721Y10973461D01*
X30870358Y10821925D01*
X30856526Y10801224D01*
X30764116Y10628337D01*
X30754588Y10605336D01*
X30697683Y10417743D01*
X30692827Y10393325D01*
X30673612Y10198234D01*
X30673000Y10185786D01*
X30673000Y9606234D01*
X30655624Y9429811D01*
X30605978Y9266150D01*
X30525362Y9115328D01*
X30416870Y8983130D01*
X30284672Y8874638D01*
X30133850Y8794022D01*
X29970189Y8744376D01*
X29800000Y8727614D01*
X29629811Y8744376D01*
X29466150Y8794022D01*
X29315328Y8874638D01*
X29183130Y8983130D01*
X29074638Y9115328D01*
X28994022Y9266150D01*
X28944376Y9429811D01*
X28927000Y9606234D01*
X28927000Y10879552D01*
X28944376Y11055976D01*
X28994022Y11219637D01*
X29074637Y11370458D01*
X29187102Y11507496D01*
X34092504Y16412898D01*
X34229542Y16525363D01*
X34380363Y16605978D01*
X34544024Y16655624D01*
X34720448Y16673000D01*
X37293766Y16673000D01*
X37470189Y16655624D01*
G37*
%TD.AperFunction*%
%TD*%
D20*
X4800000Y21300000D03*
X7300000Y21300000D03*
X3300000Y17300000D03*
X3300000Y7300000D03*
X7300000Y3300000D03*
X17300000Y3300000D03*
X22300000Y3300000D03*
X27300000Y3300000D03*
X37300000Y3300000D03*
X41300000Y4800000D03*
X41300000Y7300000D03*
X41300000Y17300000D03*
X39800000Y21300000D03*
X37300000Y21300000D03*
X27300000Y21300000D03*
X22300000Y21300000D03*
X17300000Y21300000D03*
X3300000Y19800000D03*
X3300000Y14800000D03*
X3300000Y9800000D03*
X3300000Y4800000D03*
X4800000Y3300000D03*
X19800000Y3300000D03*
X24800000Y3300000D03*
X19800000Y21300000D03*
X24800000Y21300000D03*
X29800000Y21300000D03*
X29800000Y3300000D03*
X34800000Y3300000D03*
X34800000Y21300000D03*
X41300000Y19800000D03*
X39800000Y3300000D03*
X9800000Y19800000D03*
X14800000Y19800000D03*
X12300000Y18800000D03*
X12300000Y5800000D03*
X9800000Y4800000D03*
X14800000Y4800000D03*
X7300000Y7300000D03*
X8300000Y7300000D03*
X7300000Y17300000D03*
X8300000Y17300000D03*
X13300000Y17300000D03*
X13300000Y16300000D03*
X16800000Y14800000D03*
X16800000Y13800000D03*
X16800000Y10800000D03*
X16800000Y9800000D03*
X17800000Y10800000D03*
X18800000Y10800000D03*
X19800000Y10800000D03*
X17800000Y13800000D03*
X18800000Y13800000D03*
X19800000Y13800000D03*
X17800000Y14800000D03*
X18800000Y14800000D03*
X19800000Y14800000D03*
X17800000Y9800000D03*
X18800000Y9800000D03*
X19800000Y9800000D03*
X37800000Y5800000D03*
X37800000Y4800000D03*
X38800000Y5800000D03*
X38800000Y4800000D03*
X37800000Y18800000D03*
X38800000Y18800000D03*
X38800000Y19800000D03*
X37800000Y19800000D03*
X8300000Y6300000D03*
X7300000Y6300000D03*
X8300000Y18300000D03*
X7300000Y18300000D03*
X31800000Y8300000D03*
X32800000Y8300000D03*
X32800000Y7300000D03*
X31800000Y7300000D03*
X14300000Y17300000D03*
X14300000Y16300000D03*
X14300000Y8300000D03*
X13300000Y7300000D03*
X14300000Y7300000D03*
X13300000Y8300000D03*
X31800000Y16300000D03*
X32800000Y16300000D03*
X32800000Y17300000D03*
X31800000Y17300000D03*
X38800000Y12300000D03*
X39800000Y14800000D03*
X39800000Y9800000D03*
D21*
X34800000Y5730000D03*
X34800000Y18870000D03*
X37300000Y8800000D03*
X37300000Y11300000D03*
X37300000Y13300000D03*
X37300000Y15800000D03*
X29800000Y15000000D03*
X27300000Y15000000D03*
X24800000Y15000000D03*
X29800000Y9600000D03*
X27300000Y9600000D03*
X24800000Y9600000D03*
X32300000Y2300000D03*
X2300000Y12300000D03*
X32300000Y22300000D03*
X10500000Y9050000D03*
X10500000Y10000000D03*
X10500000Y11850000D03*
X10500000Y12750000D03*
X10500000Y13650000D03*
X10500000Y14600000D03*
X10500000Y15550000D03*
X9100000Y15550000D03*
X9100000Y14600000D03*
X9100000Y12750000D03*
X9100000Y11850000D03*
X9100000Y10950000D03*
X9100000Y10000000D03*
X9100000Y9050000D03*
D22*
X11730000Y14300000D03*
X7870000Y14300000D03*
X11730000Y10300000D03*
X7870000Y10300000D03*
M02*
