%TF.GenerationSoftware,KiCad,Pcbnew,(5.1.12-1-10_14)*%
%TF.CreationDate,2022-08-29T02:47:29+08:00*%
%TF.ProjectId,0102_USB-C,30313032-5f55-4534-922d-432e6b696361,rev?*%
%TF.SameCoordinates,Original*%
%TF.FileFunction,Legend,Top*%
%TF.FilePolarity,Positive*%
%FSLAX46Y46*%
G04 Gerber Fmt 4.6, Leading zero omitted, Abs format (unit mm)*
G04 Created by KiCad (PCBNEW (5.1.12-1-10_14)) date 2022-08-29 02:47:29*
%MOMM*%
%LPD*%
G01*
G04 APERTURE LIST*
%ADD10C,0.120000*%
G04 APERTURE END LIST*
D10*
X14300000Y19300000D02*
X22300000Y19300000D01*
X14300000Y5300000D02*
X14300000Y19300000D01*
X22300000Y5300000D02*
X14300000Y5300000D01*
X22300000Y19300000D02*
X22300000Y5300000D01*
%TO.C,J2*%
X37300000Y18550000D02*
X38610000Y18550000D01*
X33490000Y7300000D02*
X33490000Y17300000D01*
X38610000Y6050000D02*
X37300000Y6050000D01*
X38610000Y18550000D02*
X38610000Y6050000D01*
%TO.C,R4*%
X9646359Y16920000D02*
X9953641Y16920000D01*
X9646359Y17680000D02*
X9953641Y17680000D01*
%TO.C,R3*%
X9953641Y7680000D02*
X9646359Y7680000D01*
X9953641Y6920000D02*
X9646359Y6920000D01*
%TO.C,SW1*%
X23050000Y16550000D02*
X23050000Y9800000D01*
X31550000Y16550000D02*
X23050000Y16550000D01*
X31550000Y8050000D02*
X31550000Y16550000D01*
X24800000Y8050000D02*
X31550000Y8050000D01*
X26300000Y13800000D02*
X26300000Y10800000D01*
X28300000Y13800000D02*
X26300000Y13800000D01*
X28300000Y10800000D02*
X28300000Y13800000D01*
X26300000Y10800000D02*
X28300000Y10800000D01*
X25300000Y14300000D02*
X25300000Y10300000D01*
X29300000Y14300000D02*
X25300000Y14300000D01*
X29300000Y10300000D02*
X29300000Y14300000D01*
X25300000Y10300000D02*
X29300000Y10300000D01*
%TO.C,J1*%
X11080000Y9410000D02*
X11080000Y15190000D01*
X8520000Y9410000D02*
X8520000Y15190000D01*
X11080000Y9410000D02*
G75*
G02*
X8520000Y9410000I-1280000J0D01*
G01*
X8520000Y15190000D02*
G75*
G02*
X11080000Y15190000I1280000J0D01*
G01*
%TO.C,R2*%
X26453641Y7680000D02*
X26146359Y7680000D01*
X26453641Y6920000D02*
X26146359Y6920000D01*
%TO.C,R1*%
X28453641Y7680000D02*
X28146359Y7680000D01*
X28453641Y6920000D02*
X28146359Y6920000D01*
%TO.C,D1*%
X28785000Y6535000D02*
X26500000Y6535000D01*
X28785000Y5065000D02*
X28785000Y6535000D01*
X26500000Y5065000D02*
X28785000Y5065000D01*
%TD*%
M02*
