%TF.GenerationSoftware,KiCad,Pcbnew,(6.0.7-1)-1*%
%TF.CreationDate,2022-09-13T18:31:53+08:00*%
%TF.ProjectId,0102-USB-SWITCH,30313032-2d55-4534-922d-535749544348,V1.1*%
%TF.SameCoordinates,Original*%
%TF.FileFunction,Copper,L1,Top*%
%TF.FilePolarity,Positive*%
%FSLAX46Y46*%
G04 Gerber Fmt 4.6, Leading zero omitted, Abs format (unit mm)*
G04 Created by KiCad (PCBNEW (6.0.7-1)-1) date 2022-09-13 18:31:53*
%MOMM*%
%LPD*%
G01*
G04 APERTURE LIST*
G04 Aperture macros list*
%AMRoundRect*
0 Rectangle with rounded corners*
0 $1 Rounding radius*
0 $2 $3 $4 $5 $6 $7 $8 $9 X,Y pos of 4 corners*
0 Add a 4 corners polygon primitive as box body*
4,1,4,$2,$3,$4,$5,$6,$7,$8,$9,$2,$3,0*
0 Add four circle primitives for the rounded corners*
1,1,$1+$1,$2,$3*
1,1,$1+$1,$4,$5*
1,1,$1+$1,$6,$7*
1,1,$1+$1,$8,$9*
0 Add four rect primitives between the rounded corners*
20,1,$1+$1,$2,$3,$4,$5,0*
20,1,$1+$1,$4,$5,$6,$7,0*
20,1,$1+$1,$6,$7,$8,$9,0*
20,1,$1+$1,$8,$9,$2,$3,0*%
G04 Aperture macros list end*
%TA.AperFunction,SMDPad,CuDef*%
%ADD10RoundRect,0.135000X0.135000X0.185000X-0.135000X0.185000X-0.135000X-0.185000X0.135000X-0.185000X0*%
%TD*%
%TA.AperFunction,ComponentPad*%
%ADD11R,1.300000X1.300000*%
%TD*%
%TA.AperFunction,ComponentPad*%
%ADD12C,1.400000*%
%TD*%
%TA.AperFunction,SMDPad,CuDef*%
%ADD13RoundRect,0.218750X0.218750X0.256250X-0.218750X0.256250X-0.218750X-0.256250X0.218750X-0.256250X0*%
%TD*%
%TA.AperFunction,ComponentPad*%
%ADD14C,0.600000*%
%TD*%
%TA.AperFunction,ComponentPad*%
%ADD15O,1.200000X2.100000*%
%TD*%
%TA.AperFunction,SMDPad,CuDef*%
%ADD16RoundRect,0.135000X-0.135000X-0.185000X0.135000X-0.185000X0.135000X0.185000X-0.135000X0.185000X0*%
%TD*%
%TA.AperFunction,ComponentPad*%
%ADD17C,1.420000*%
%TD*%
%TA.AperFunction,ComponentPad*%
%ADD18O,3.300000X1.900000*%
%TD*%
%TA.AperFunction,ViaPad*%
%ADD19C,0.500000*%
%TD*%
%TA.AperFunction,Conductor*%
%ADD20C,0.280000*%
%TD*%
%TA.AperFunction,Conductor*%
%ADD21C,0.350000*%
%TD*%
%TA.AperFunction,Conductor*%
%ADD22C,0.200000*%
%TD*%
G04 APERTURE END LIST*
D10*
%TO.P,R1,1*%
%TO.N,/VOUT*%
X21310000Y7300000D03*
%TO.P,R1,2*%
%TO.N,Net-(D1-Pad2)*%
X20290000Y7300000D03*
%TD*%
%TO.P,R2,1*%
%TO.N,Net-(D1-Pad2)*%
X19310000Y7300000D03*
%TO.P,R2,2*%
%TO.N,GND*%
X18290000Y7300000D03*
%TD*%
D11*
%TO.P,SW1,1,A*%
%TO.N,unconnected-(SW1-Pad1)*%
X17300000Y9600000D03*
D12*
%TO.P,SW1,2,B*%
%TO.N,/VIN*%
X19800000Y9600000D03*
%TO.P,SW1,3,C*%
%TO.N,/VOUT*%
X22300000Y9600000D03*
%TO.P,SW1,4,A*%
%TO.N,unconnected-(SW1-Pad4)*%
X17300000Y15000000D03*
%TO.P,SW1,5,B*%
%TO.N,unconnected-(SW1-Pad5)*%
X19800000Y15000000D03*
%TO.P,SW1,6,C*%
%TO.N,unconnected-(SW1-Pad6)*%
X22300000Y15000000D03*
%TD*%
D13*
%TO.P,D1,1,K*%
%TO.N,GND*%
X20587500Y5800000D03*
%TO.P,D1,2,A*%
%TO.N,Net-(D1-Pad2)*%
X19012500Y5800000D03*
%TD*%
D14*
%TO.P,J1,A1,GND*%
%TO.N,GND*%
X7600000Y9050000D03*
%TO.P,J1,A4,VBUS*%
%TO.N,/VIN*%
X7600000Y10000000D03*
%TO.P,J1,A5,CC1*%
%TO.N,Net-(J1-PadA5)*%
X7600000Y10950000D03*
%TO.P,J1,A6,D+*%
%TO.N,/D+*%
X7600000Y11850000D03*
%TO.P,J1,A7,D-*%
%TO.N,/D-*%
X7600000Y12750000D03*
%TO.P,J1,A9,VBUS*%
%TO.N,/VIN*%
X7600000Y14600000D03*
%TO.P,J1,A12,GND*%
%TO.N,GND*%
X7600000Y15550000D03*
%TO.P,J1,B1,GND*%
X9000000Y15550000D03*
%TO.P,J1,B4,VBUS*%
%TO.N,/VIN*%
X9000000Y14600000D03*
%TO.P,J1,B5,CC2*%
%TO.N,Net-(J1-PadB5)*%
X9000000Y13650000D03*
%TO.P,J1,B6,D+*%
%TO.N,/D+*%
X9000000Y12750000D03*
%TO.P,J1,B7,D-*%
%TO.N,/D-*%
X9000000Y11850000D03*
%TO.P,J1,B9,VBUS*%
%TO.N,/VIN*%
X9000000Y10000000D03*
%TO.P,J1,B12,GND*%
%TO.N,GND*%
X9000000Y9050000D03*
D15*
%TO.P,J1,S1,SHIELD*%
%TO.N,unconnected-(J1-PadS1)*%
X10230000Y10300000D03*
X10230000Y14300000D03*
X6370000Y14300000D03*
X6370000Y10300000D03*
%TD*%
D10*
%TO.P,R3,1*%
%TO.N,GND*%
X8810000Y7300000D03*
%TO.P,R3,2*%
%TO.N,Net-(J1-PadA5)*%
X7790000Y7300000D03*
%TD*%
D16*
%TO.P,R4,1*%
%TO.N,GND*%
X7790000Y17300000D03*
%TO.P,R4,2*%
%TO.N,Net-(J1-PadB5)*%
X8810000Y17300000D03*
%TD*%
D17*
%TO.P,J2,1,VBUS*%
%TO.N,/VOUT*%
X27050000Y8800000D03*
%TO.P,J2,2,D-*%
%TO.N,/D-*%
X27050000Y11300000D03*
%TO.P,J2,3,D+*%
%TO.N,/D+*%
X27050000Y13300000D03*
%TO.P,J2,4,GND*%
%TO.N,GND*%
X27050000Y15800000D03*
D18*
%TO.P,J2,5,Shield*%
%TO.N,unconnected-(J2-Pad5)*%
X27900000Y4450000D03*
X27900000Y20150000D03*
%TD*%
D19*
%TO.N,GND*%
X12800000Y8300000D03*
X12800000Y7300000D03*
X12800000Y16300000D03*
X12800000Y17300000D03*
X6800000Y6800000D03*
X6800000Y17800000D03*
X13800000Y17300000D03*
X13800000Y8300000D03*
X3300000Y9800000D03*
X19800000Y3300000D03*
X17300000Y3300000D03*
X17300000Y21300000D03*
X22300000Y21300000D03*
X3300000Y14800000D03*
X13800000Y16300000D03*
X3300000Y17300000D03*
X22300000Y3300000D03*
X24800000Y21300000D03*
X19800000Y21300000D03*
X24800000Y3300000D03*
X13800000Y7300000D03*
X5800000Y6800000D03*
X3300000Y7300000D03*
X5800000Y17800000D03*
%TD*%
D20*
%TO.N,/D+*%
X9235000Y12515000D02*
X26265000Y12515000D01*
X26265000Y12515000D02*
X27050000Y13300000D01*
X9000000Y12750000D02*
X9235000Y12515000D01*
%TO.N,/D-*%
X7600000Y12750000D02*
X7978798Y12750000D01*
X7978798Y12750000D02*
X8878798Y11850000D01*
X8878798Y11850000D02*
X9000000Y11850000D01*
X9000000Y11850000D02*
X9235000Y12085000D01*
X26265000Y12085000D02*
X27050000Y11300000D01*
X9235000Y12085000D02*
X26265000Y12085000D01*
D21*
%TO.N,Net-(D1-Pad2)*%
X19012500Y7002500D02*
X19310000Y7300000D01*
X20290000Y7300000D02*
X19310000Y7300000D01*
X19012500Y5800000D02*
X19012500Y7002500D01*
D22*
%TO.N,Net-(J1-PadB5)*%
X8300000Y14350000D02*
X8300000Y16790000D01*
X8300000Y16790000D02*
X8810000Y17300000D01*
X9000000Y13650000D02*
X8300000Y14350000D01*
%TO.N,Net-(J1-PadA5)*%
X8300000Y10250000D02*
X8300000Y7810000D01*
X8300000Y7810000D02*
X7790000Y7300000D01*
X7600000Y10950000D02*
X8300000Y10250000D01*
D21*
%TO.N,/VOUT*%
X22300000Y9600000D02*
X22300000Y8290000D01*
X22300000Y8290000D02*
X21310000Y7300000D01*
%TD*%
%TA.AperFunction,Conductor*%
%TO.N,GND*%
G36*
X32414617Y24441988D02*
G01*
X32572324Y24431651D01*
X32588664Y24429500D01*
X32848231Y24377869D01*
X32864152Y24373603D01*
X33114759Y24288533D01*
X33129985Y24282226D01*
X33367342Y24165175D01*
X33381616Y24156934D01*
X33601663Y24009903D01*
X33614739Y23999870D01*
X33813717Y23825371D01*
X33825371Y23813717D01*
X33999870Y23614739D01*
X34009903Y23601663D01*
X34156934Y23381616D01*
X34165175Y23367342D01*
X34282226Y23129985D01*
X34288533Y23114759D01*
X34373603Y22864152D01*
X34377869Y22848231D01*
X34429500Y22588664D01*
X34431651Y22572324D01*
X34448214Y22319628D01*
X34448349Y22315517D01*
X34444191Y22300000D01*
X34448484Y22283978D01*
X34448484Y22281468D01*
X34449761Y22275047D01*
X34458522Y22208501D01*
X34461681Y22200874D01*
X34461682Y22200871D01*
X34469465Y22182082D01*
X34493839Y22123238D01*
X34550021Y22050021D01*
X34556571Y22044995D01*
X34574931Y22030907D01*
X34623238Y21993839D01*
X34665870Y21976180D01*
X34700871Y21961682D01*
X34700874Y21961681D01*
X34708501Y21958522D01*
X34775047Y21949761D01*
X34781468Y21948484D01*
X34783978Y21948484D01*
X34800000Y21944191D01*
X34816022Y21948484D01*
X34828685Y21948484D01*
X34836402Y21949500D01*
X38763598Y21949500D01*
X38771315Y21948484D01*
X38783978Y21948484D01*
X38800000Y21944191D01*
X38813583Y21947830D01*
X38816043Y21947692D01*
X38930420Y21934805D01*
X38957928Y21928526D01*
X39068407Y21889868D01*
X39093820Y21877631D01*
X39192943Y21815349D01*
X39214998Y21797759D01*
X39297759Y21714998D01*
X39315349Y21692943D01*
X39377631Y21593820D01*
X39389868Y21568407D01*
X39428526Y21457928D01*
X39434805Y21430420D01*
X39447692Y21316043D01*
X39447830Y21313583D01*
X39444191Y21300000D01*
X39448484Y21283978D01*
X39448484Y21271315D01*
X39449500Y21263598D01*
X39449500Y19886402D01*
X39448484Y19878685D01*
X39448484Y19866022D01*
X39444191Y19850000D01*
X39447830Y19836417D01*
X39447692Y19833957D01*
X39434805Y19719580D01*
X39428526Y19692072D01*
X39389868Y19581593D01*
X39377631Y19556180D01*
X39315349Y19457057D01*
X39297759Y19435002D01*
X39214998Y19352241D01*
X39192943Y19334651D01*
X39093820Y19272369D01*
X39068407Y19260132D01*
X38957928Y19221474D01*
X38930420Y19215195D01*
X38816043Y19202308D01*
X38813583Y19202170D01*
X38800000Y19205809D01*
X38783978Y19201516D01*
X38771315Y19201516D01*
X38763598Y19200500D01*
X29936402Y19200500D01*
X29928685Y19201516D01*
X29916022Y19201516D01*
X29900000Y19205809D01*
X29891360Y19203494D01*
X29875941Y19201622D01*
X29875940Y19201622D01*
X29774855Y19189348D01*
X29774852Y19189347D01*
X29767289Y19188429D01*
X29642291Y19141023D01*
X29532270Y19065081D01*
X29443620Y18965016D01*
X29440077Y18958265D01*
X29440076Y18958264D01*
X29385033Y18853390D01*
X29385031Y18853386D01*
X29381493Y18846644D01*
X29379671Y18839251D01*
X29379670Y18839249D01*
X29363773Y18774750D01*
X29349500Y18716843D01*
X29349500Y18583157D01*
X29351322Y18575767D01*
X29351322Y18575763D01*
X29379670Y18460751D01*
X29381493Y18453356D01*
X29385031Y18446614D01*
X29385033Y18446610D01*
X29408128Y18402607D01*
X29443620Y18334984D01*
X29532270Y18234919D01*
X29642291Y18158977D01*
X29668182Y18149158D01*
X29724780Y18106302D01*
X29749226Y18039647D01*
X29749500Y18031347D01*
X29749500Y6568653D01*
X29729498Y6500532D01*
X29675842Y6454039D01*
X29668206Y6450851D01*
X29642291Y6441023D01*
X29532270Y6365081D01*
X29443620Y6265016D01*
X29440077Y6258265D01*
X29440076Y6258264D01*
X29385033Y6153390D01*
X29385031Y6153386D01*
X29381493Y6146644D01*
X29379671Y6139251D01*
X29379670Y6139249D01*
X29361998Y6067548D01*
X29349500Y6016843D01*
X29349500Y5883157D01*
X29351322Y5875767D01*
X29351322Y5875763D01*
X29379670Y5760751D01*
X29381493Y5753356D01*
X29385031Y5746614D01*
X29385033Y5746610D01*
X29440076Y5641736D01*
X29443620Y5634984D01*
X29532270Y5534919D01*
X29642291Y5458977D01*
X29676872Y5445862D01*
X29723928Y5428016D01*
X29767289Y5411571D01*
X29774852Y5410653D01*
X29774855Y5410652D01*
X29875758Y5398400D01*
X29875760Y5398400D01*
X29891360Y5396506D01*
X29900000Y5394191D01*
X29916022Y5398484D01*
X29928685Y5398484D01*
X29936402Y5399500D01*
X38763598Y5399500D01*
X38771315Y5398484D01*
X38783978Y5398484D01*
X38800000Y5394191D01*
X38813583Y5397830D01*
X38816043Y5397692D01*
X38930420Y5384805D01*
X38957928Y5378526D01*
X39068407Y5339868D01*
X39093820Y5327631D01*
X39192943Y5265349D01*
X39214998Y5247759D01*
X39297759Y5164998D01*
X39315349Y5142943D01*
X39377631Y5043820D01*
X39389868Y5018407D01*
X39428526Y4907928D01*
X39434805Y4880420D01*
X39447692Y4766043D01*
X39447830Y4763583D01*
X39444191Y4750000D01*
X39448484Y4733978D01*
X39448484Y4721315D01*
X39449500Y4713598D01*
X39449500Y3336402D01*
X39448484Y3328685D01*
X39448484Y3316022D01*
X39444191Y3300000D01*
X39447830Y3286417D01*
X39447692Y3283957D01*
X39434805Y3169580D01*
X39428526Y3142072D01*
X39389868Y3031593D01*
X39377631Y3006180D01*
X39315349Y2907057D01*
X39297759Y2885002D01*
X39214998Y2802241D01*
X39192943Y2784651D01*
X39093820Y2722369D01*
X39068407Y2710132D01*
X38957928Y2671474D01*
X38930420Y2665195D01*
X38816043Y2652308D01*
X38813583Y2652170D01*
X38800000Y2655809D01*
X38783978Y2651516D01*
X38771315Y2651516D01*
X38763598Y2650500D01*
X34836402Y2650500D01*
X34828685Y2651516D01*
X34816022Y2651516D01*
X34800000Y2655809D01*
X34783978Y2651516D01*
X34781468Y2651516D01*
X34775047Y2650239D01*
X34708501Y2641478D01*
X34700874Y2638319D01*
X34700871Y2638318D01*
X34665870Y2623820D01*
X34623238Y2606161D01*
X34616687Y2601134D01*
X34616685Y2601133D01*
X34563732Y2560500D01*
X34550021Y2549979D01*
X34493839Y2476762D01*
X34485105Y2455676D01*
X34463456Y2403410D01*
X34458522Y2391499D01*
X34457444Y2383310D01*
X34449761Y2324953D01*
X34448484Y2318534D01*
X34448484Y2316023D01*
X34444191Y2300000D01*
X34448349Y2284482D01*
X34448215Y2280383D01*
X34431651Y2027676D01*
X34429500Y2011336D01*
X34377869Y1751769D01*
X34373603Y1735848D01*
X34288533Y1485241D01*
X34282226Y1470015D01*
X34165175Y1232658D01*
X34156934Y1218384D01*
X34009903Y998337D01*
X33999870Y985261D01*
X33825371Y786283D01*
X33813717Y774629D01*
X33614739Y600130D01*
X33601663Y590097D01*
X33381616Y443066D01*
X33367342Y434825D01*
X33129985Y317774D01*
X33114759Y311467D01*
X32864152Y226397D01*
X32848231Y222131D01*
X32588664Y170500D01*
X32572324Y168349D01*
X32414617Y158012D01*
X32308239Y151040D01*
X32291761Y151040D01*
X32185383Y158012D01*
X32027676Y168349D01*
X32011336Y170500D01*
X31751769Y222131D01*
X31735848Y226397D01*
X31485241Y311467D01*
X31470015Y317774D01*
X31232658Y434825D01*
X31218384Y443066D01*
X30998337Y590097D01*
X30985261Y600130D01*
X30786283Y774629D01*
X30774629Y786283D01*
X30600130Y985261D01*
X30590097Y998337D01*
X30443066Y1218384D01*
X30434825Y1232658D01*
X30317774Y1470015D01*
X30311467Y1485241D01*
X30226397Y1735848D01*
X30222131Y1751769D01*
X30170500Y2011336D01*
X30168349Y2027676D01*
X30151785Y2280383D01*
X30151651Y2284482D01*
X30155809Y2300000D01*
X30944341Y2300000D01*
X30964937Y2064592D01*
X30966361Y2059278D01*
X30966361Y2059277D01*
X30981150Y2004085D01*
X31026097Y1836337D01*
X31028419Y1831357D01*
X31028420Y1831355D01*
X31083851Y1712485D01*
X31125965Y1622171D01*
X31261505Y1428599D01*
X31428599Y1261505D01*
X31622171Y1125965D01*
X31627149Y1123644D01*
X31627152Y1123642D01*
X31831355Y1028420D01*
X31836337Y1026097D01*
X31841645Y1024675D01*
X31841647Y1024674D01*
X32059277Y966361D01*
X32064592Y964937D01*
X32167682Y955918D01*
X32238310Y949738D01*
X32238317Y949738D01*
X32241034Y949500D01*
X32358966Y949500D01*
X32361683Y949738D01*
X32361690Y949738D01*
X32432318Y955918D01*
X32535408Y964937D01*
X32540723Y966361D01*
X32758353Y1024674D01*
X32758355Y1024675D01*
X32763663Y1026097D01*
X32768645Y1028420D01*
X32972848Y1123642D01*
X32972851Y1123644D01*
X32977829Y1125965D01*
X33171401Y1261505D01*
X33338495Y1428599D01*
X33341655Y1433111D01*
X33470878Y1617661D01*
X33470881Y1617666D01*
X33474035Y1622170D01*
X33476358Y1627152D01*
X33476361Y1627157D01*
X33571580Y1831355D01*
X33571581Y1831356D01*
X33573903Y1836337D01*
X33618851Y2004085D01*
X33633639Y2059277D01*
X33633639Y2059278D01*
X33635063Y2064592D01*
X33655659Y2300000D01*
X33635063Y2535408D01*
X33604006Y2651317D01*
X33575326Y2758353D01*
X33575325Y2758355D01*
X33573903Y2763663D01*
X33571580Y2768645D01*
X33476358Y2972848D01*
X33476356Y2972851D01*
X33474035Y2977829D01*
X33338495Y3171401D01*
X33171401Y3338495D01*
X32977829Y3474035D01*
X32972851Y3476356D01*
X32972848Y3476358D01*
X32768645Y3571580D01*
X32768643Y3571581D01*
X32763663Y3573903D01*
X32758355Y3575325D01*
X32758353Y3575326D01*
X32540723Y3633639D01*
X32540722Y3633639D01*
X32535408Y3635063D01*
X32432318Y3644082D01*
X32361690Y3650262D01*
X32361683Y3650262D01*
X32358966Y3650500D01*
X32241034Y3650500D01*
X32238317Y3650262D01*
X32238310Y3650262D01*
X32167682Y3644082D01*
X32064592Y3635063D01*
X32059278Y3633639D01*
X32059277Y3633639D01*
X31841647Y3575326D01*
X31841645Y3575325D01*
X31836337Y3573903D01*
X31831357Y3571581D01*
X31831355Y3571580D01*
X31627152Y3476358D01*
X31627149Y3476356D01*
X31622171Y3474035D01*
X31428599Y3338495D01*
X31261505Y3171401D01*
X31258348Y3166893D01*
X31258346Y3166890D01*
X31145810Y3006172D01*
X31125965Y2977830D01*
X31123642Y2972848D01*
X31123639Y2972843D01*
X31044086Y2802241D01*
X31026097Y2763663D01*
X31024675Y2758355D01*
X31024674Y2758353D01*
X30995994Y2651317D01*
X30964937Y2535408D01*
X30944341Y2300000D01*
X30155809Y2300000D01*
X30151516Y2316023D01*
X30151516Y2318534D01*
X30150239Y2324953D01*
X30142556Y2383310D01*
X30141478Y2391499D01*
X30136545Y2403410D01*
X30114895Y2455676D01*
X30106161Y2476762D01*
X30049979Y2549979D01*
X30036268Y2560500D01*
X29983315Y2601133D01*
X29983313Y2601134D01*
X29976762Y2606161D01*
X29934130Y2623820D01*
X29899129Y2638318D01*
X29899126Y2638319D01*
X29891499Y2641478D01*
X29824953Y2650239D01*
X29818532Y2651516D01*
X29816022Y2651516D01*
X29800000Y2655809D01*
X29783978Y2651516D01*
X29771315Y2651516D01*
X29763598Y2650500D01*
X15246785Y2650500D01*
X15178664Y2670502D01*
X15132171Y2724158D01*
X15121873Y2759977D01*
X15112023Y2834443D01*
X15112022Y2834446D01*
X15111547Y2838040D01*
X15075217Y2982334D01*
X15062814Y3031593D01*
X15031115Y3157492D01*
X15027559Y3166889D01*
X14915800Y3462194D01*
X14915797Y3462202D01*
X14914515Y3465588D01*
X14854142Y3582425D01*
X14764961Y3755015D01*
X14764958Y3755021D01*
X14763290Y3758248D01*
X14579443Y4031596D01*
X14577091Y4034348D01*
X14367763Y4279257D01*
X14367761Y4279259D01*
X14365408Y4282012D01*
X14362756Y4284475D01*
X14362751Y4284480D01*
X14225876Y4411591D01*
X14126365Y4504004D01*
X26095814Y4504004D01*
X26105523Y4294233D01*
X26106927Y4288408D01*
X26106927Y4288407D01*
X26131084Y4188174D01*
X26154724Y4090082D01*
X26157206Y4084624D01*
X26157207Y4084620D01*
X26200320Y3989799D01*
X26241640Y3898919D01*
X26302429Y3813222D01*
X26343719Y3755015D01*
X26363137Y3727640D01*
X26514831Y3582425D01*
X26519866Y3579174D01*
X26686209Y3471767D01*
X26686212Y3471766D01*
X26691246Y3468515D01*
X26696809Y3466273D01*
X26880455Y3392261D01*
X26880458Y3392260D01*
X26886019Y3390019D01*
X26891900Y3388871D01*
X26891905Y3388869D01*
X27087676Y3350638D01*
X27087679Y3350638D01*
X27092122Y3349770D01*
X27097643Y3349500D01*
X28652469Y3349500D01*
X28809046Y3364439D01*
X28814802Y3366128D01*
X28814804Y3366128D01*
X28903883Y3392261D01*
X29010549Y3423553D01*
X29113076Y3476358D01*
X29191908Y3516959D01*
X29191911Y3516961D01*
X29197239Y3519705D01*
X29272947Y3579174D01*
X29357662Y3645718D01*
X29357667Y3645722D01*
X29362379Y3649424D01*
X29366311Y3653955D01*
X29496079Y3803498D01*
X29496083Y3803503D01*
X29500010Y3808029D01*
X29605166Y3989799D01*
X29642575Y4097527D01*
X29672086Y4182509D01*
X29672086Y4182511D01*
X29674053Y4188174D01*
X29689431Y4294233D01*
X29703325Y4390056D01*
X29703325Y4390059D01*
X29704186Y4395996D01*
X29694477Y4605767D01*
X29645276Y4809918D01*
X29642621Y4815759D01*
X29560840Y4995626D01*
X29558360Y5001081D01*
X29436863Y5172360D01*
X29285169Y5317575D01*
X29250643Y5339868D01*
X29113791Y5428233D01*
X29113788Y5428234D01*
X29108754Y5431485D01*
X29071192Y5446623D01*
X28919545Y5507739D01*
X28919542Y5507740D01*
X28913981Y5509981D01*
X28908100Y5511129D01*
X28908095Y5511131D01*
X28712324Y5549362D01*
X28712321Y5549362D01*
X28707878Y5550230D01*
X28702357Y5550500D01*
X27147531Y5550500D01*
X26990954Y5535561D01*
X26985198Y5533872D01*
X26985196Y5533872D01*
X26907679Y5511131D01*
X26789451Y5476447D01*
X26706505Y5433727D01*
X26608092Y5383041D01*
X26608089Y5383039D01*
X26602761Y5380295D01*
X26551295Y5339868D01*
X26442338Y5254282D01*
X26442333Y5254278D01*
X26437621Y5250576D01*
X26433690Y5246046D01*
X26433689Y5246045D01*
X26303921Y5096502D01*
X26303917Y5096497D01*
X26299990Y5091971D01*
X26194834Y4910201D01*
X26179382Y4865704D01*
X26132323Y4730186D01*
X26125947Y4711826D01*
X26125086Y4705891D01*
X26125086Y4705889D01*
X26109701Y4599777D01*
X26095814Y4504004D01*
X14126365Y4504004D01*
X14124022Y4506180D01*
X13858479Y4701131D01*
X13658076Y4815380D01*
X13575447Y4862487D01*
X13575442Y4862490D01*
X13572296Y4864283D01*
X13269265Y4993475D01*
X13095197Y5045014D01*
X12956874Y5085969D01*
X12956866Y5085971D01*
X12953397Y5086998D01*
X12628876Y5143611D01*
X12300000Y5162566D01*
X11971124Y5143611D01*
X11646603Y5086998D01*
X11643134Y5085971D01*
X11643126Y5085969D01*
X11504803Y5045014D01*
X11330735Y4993475D01*
X11027704Y4864283D01*
X11024558Y4862490D01*
X11024553Y4862487D01*
X10941924Y4815380D01*
X10741521Y4701131D01*
X10475978Y4506180D01*
X10374124Y4411591D01*
X10237249Y4284480D01*
X10237244Y4284475D01*
X10234592Y4282012D01*
X10232239Y4279259D01*
X10232237Y4279257D01*
X10022909Y4034348D01*
X10020557Y4031596D01*
X9836710Y3758248D01*
X9835042Y3755021D01*
X9835039Y3755015D01*
X9745858Y3582425D01*
X9685485Y3465588D01*
X9684203Y3462202D01*
X9684200Y3462194D01*
X9572441Y3166889D01*
X9568885Y3157492D01*
X9537186Y3031593D01*
X9524784Y2982334D01*
X9488453Y2838040D01*
X9487978Y2834446D01*
X9487977Y2834443D01*
X9478127Y2759977D01*
X9449365Y2695067D01*
X9390075Y2656012D01*
X9353215Y2650500D01*
X3336402Y2650500D01*
X3328685Y2651516D01*
X3316022Y2651516D01*
X3300000Y2655809D01*
X3286417Y2652170D01*
X3283957Y2652308D01*
X3169580Y2665195D01*
X3142072Y2671474D01*
X3031593Y2710132D01*
X3006180Y2722369D01*
X2907057Y2784651D01*
X2885002Y2802241D01*
X2802241Y2885002D01*
X2784651Y2907057D01*
X2722369Y3006180D01*
X2710132Y3031593D01*
X2671474Y3142072D01*
X2665195Y3169580D01*
X2652308Y3283957D01*
X2652170Y3286417D01*
X2655809Y3300000D01*
X2651516Y3316022D01*
X2651516Y3328685D01*
X2650500Y3336402D01*
X2650500Y6091251D01*
X18424500Y6091251D01*
X18424501Y5508750D01*
X18425172Y5504192D01*
X18433667Y5446478D01*
X18435183Y5436175D01*
X18439498Y5427387D01*
X18439498Y5427386D01*
X18447263Y5411571D01*
X18489361Y5325829D01*
X18496727Y5318476D01*
X18496729Y5318473D01*
X18568991Y5246337D01*
X18576360Y5238981D01*
X18642584Y5206610D01*
X18677591Y5189498D01*
X18686801Y5184996D01*
X18696476Y5183585D01*
X18696478Y5183584D01*
X18754222Y5175160D01*
X18754228Y5175160D01*
X18758749Y5174500D01*
X19011532Y5174500D01*
X19266250Y5174501D01*
X19301097Y5179630D01*
X19329138Y5183757D01*
X19329139Y5183757D01*
X19338825Y5185183D01*
X19347613Y5189498D01*
X19347614Y5189498D01*
X19439826Y5234773D01*
X19449171Y5239361D01*
X19456524Y5246727D01*
X19456527Y5246729D01*
X19528663Y5318991D01*
X19528664Y5318992D01*
X19536019Y5326360D01*
X19590004Y5436801D01*
X19593871Y5463306D01*
X19599840Y5504222D01*
X19599840Y5504228D01*
X19600500Y5508749D01*
X19600500Y5513404D01*
X20000000Y5513404D01*
X20000670Y5504244D01*
X20009243Y5446006D01*
X20014984Y5427532D01*
X20060182Y5335475D01*
X20072147Y5318763D01*
X20144282Y5246754D01*
X20161011Y5234820D01*
X20253160Y5189777D01*
X20271624Y5184070D01*
X20315575Y5177658D01*
X20329493Y5179630D01*
X20333481Y5193159D01*
X20841500Y5193159D01*
X20845453Y5179697D01*
X20859527Y5177698D01*
X20903994Y5184243D01*
X20922468Y5189984D01*
X21014525Y5235182D01*
X21031237Y5247147D01*
X21103246Y5319282D01*
X21115180Y5336011D01*
X21160224Y5428162D01*
X21165930Y5446623D01*
X21174340Y5504271D01*
X21175000Y5513371D01*
X21175000Y5527885D01*
X21170525Y5543124D01*
X21169135Y5544329D01*
X21161452Y5546000D01*
X20859615Y5546000D01*
X20844376Y5541525D01*
X20843171Y5540135D01*
X20841500Y5532452D01*
X20841500Y5193159D01*
X20333481Y5193159D01*
X20333500Y5193224D01*
X20333500Y5527885D01*
X20329025Y5543124D01*
X20327635Y5544329D01*
X20319952Y5546000D01*
X20018115Y5546000D01*
X20002876Y5541525D01*
X20001671Y5540135D01*
X20000000Y5532452D01*
X20000000Y5513404D01*
X19600500Y5513404D01*
X19600499Y6072115D01*
X20000000Y6072115D01*
X20004475Y6056876D01*
X20005865Y6055671D01*
X20013548Y6054000D01*
X20315385Y6054000D01*
X20330624Y6058475D01*
X20331829Y6059865D01*
X20333500Y6067548D01*
X20333500Y6072115D01*
X20841500Y6072115D01*
X20845975Y6056876D01*
X20847365Y6055671D01*
X20855048Y6054000D01*
X21156885Y6054000D01*
X21172124Y6058475D01*
X21173329Y6059865D01*
X21175000Y6067548D01*
X21175000Y6086596D01*
X21174330Y6095756D01*
X21165757Y6153994D01*
X21160016Y6172468D01*
X21114818Y6264525D01*
X21102853Y6281237D01*
X21030718Y6353246D01*
X21013989Y6365180D01*
X20921840Y6410223D01*
X20903376Y6415930D01*
X20859425Y6422342D01*
X20845507Y6420370D01*
X20841500Y6406776D01*
X20841500Y6072115D01*
X20333500Y6072115D01*
X20333500Y6406841D01*
X20329547Y6420303D01*
X20315473Y6422302D01*
X20271006Y6415757D01*
X20252532Y6410016D01*
X20160475Y6364818D01*
X20143763Y6352853D01*
X20071754Y6280718D01*
X20059820Y6263989D01*
X20014776Y6171838D01*
X20009070Y6153377D01*
X20000660Y6095729D01*
X20000000Y6086629D01*
X20000000Y6072115D01*
X19600499Y6072115D01*
X19600499Y6091250D01*
X19591353Y6153390D01*
X19591243Y6154138D01*
X19591243Y6154139D01*
X19589817Y6163825D01*
X19535639Y6274171D01*
X19528273Y6281524D01*
X19528271Y6281527D01*
X19456009Y6353663D01*
X19456008Y6353664D01*
X19448640Y6361019D01*
X19408666Y6380559D01*
X19356250Y6428445D01*
X19338000Y6493759D01*
X19338000Y6703501D01*
X19358002Y6771622D01*
X19411658Y6818115D01*
X19464000Y6829501D01*
X19487414Y6829501D01*
X19491111Y6829941D01*
X19491116Y6829941D01*
X19497257Y6830672D01*
X19512310Y6832462D01*
X19609510Y6875637D01*
X19617846Y6883987D01*
X19671283Y6937518D01*
X19733565Y6971597D01*
X19760456Y6974500D01*
X19839458Y6974500D01*
X19907579Y6954498D01*
X19928476Y6937673D01*
X19982676Y6883567D01*
X19982678Y6883566D01*
X19990908Y6875350D01*
X20001548Y6870646D01*
X20079514Y6836177D01*
X20079517Y6836176D01*
X20088183Y6832345D01*
X20097594Y6831248D01*
X20097597Y6831247D01*
X20102862Y6830634D01*
X20112585Y6829500D01*
X20288487Y6829500D01*
X20467414Y6829501D01*
X20471111Y6829941D01*
X20471116Y6829941D01*
X20477257Y6830672D01*
X20492310Y6832462D01*
X20589510Y6875637D01*
X20627043Y6913235D01*
X20656433Y6942676D01*
X20656434Y6942678D01*
X20664650Y6950908D01*
X20684763Y6996404D01*
X20730601Y7050619D01*
X20798474Y7071446D01*
X20866833Y7052272D01*
X20915154Y6996603D01*
X20935637Y6950490D01*
X20948632Y6937518D01*
X21002676Y6883567D01*
X21002678Y6883566D01*
X21010908Y6875350D01*
X21021548Y6870646D01*
X21099514Y6836177D01*
X21099517Y6836176D01*
X21108183Y6832345D01*
X21117594Y6831248D01*
X21117597Y6831247D01*
X21122862Y6830634D01*
X21132585Y6829500D01*
X21308487Y6829500D01*
X21487414Y6829501D01*
X21491111Y6829941D01*
X21491116Y6829941D01*
X21497257Y6830672D01*
X21512310Y6832462D01*
X21609510Y6875637D01*
X21647043Y6913235D01*
X21676433Y6942676D01*
X21676434Y6942678D01*
X21684650Y6950908D01*
X21705125Y6997221D01*
X21723823Y7039514D01*
X21723824Y7039517D01*
X21727655Y7048183D01*
X21730500Y7072585D01*
X21730500Y7207983D01*
X21750502Y7276104D01*
X21767405Y7297078D01*
X22516222Y8045895D01*
X22524326Y8053322D01*
X22544749Y8070459D01*
X22553194Y8077545D01*
X22572039Y8110185D01*
X22577943Y8119453D01*
X22593231Y8141287D01*
X22599553Y8150316D01*
X22602406Y8160962D01*
X22603883Y8164130D01*
X22605076Y8167407D01*
X22610588Y8176955D01*
X22617132Y8214069D01*
X22619512Y8224804D01*
X22626410Y8250546D01*
X22629263Y8261193D01*
X22625979Y8298731D01*
X22625500Y8309712D01*
X22625500Y8732108D01*
X22645435Y8800000D01*
X26184760Y8800000D01*
X26203668Y8620106D01*
X26259564Y8448075D01*
X26262867Y8442353D01*
X26262868Y8442352D01*
X26345788Y8298731D01*
X26350006Y8291425D01*
X26471041Y8157001D01*
X26476383Y8153120D01*
X26476385Y8153118D01*
X26580403Y8077545D01*
X26617380Y8050680D01*
X26623408Y8047996D01*
X26623410Y8047995D01*
X26628127Y8045895D01*
X26782626Y7977108D01*
X26871092Y7958304D01*
X26953101Y7940872D01*
X26953105Y7940872D01*
X26959558Y7939500D01*
X27140442Y7939500D01*
X27146895Y7940872D01*
X27146899Y7940872D01*
X27228908Y7958304D01*
X27317374Y7977108D01*
X27471873Y8045895D01*
X27476590Y8047995D01*
X27476592Y8047996D01*
X27482620Y8050680D01*
X27519597Y8077545D01*
X27623615Y8153118D01*
X27623617Y8153120D01*
X27628959Y8157001D01*
X27749994Y8291425D01*
X27754213Y8298731D01*
X27837132Y8442352D01*
X27837133Y8442353D01*
X27840436Y8448075D01*
X27896332Y8620106D01*
X27915240Y8800000D01*
X27901032Y8935180D01*
X27897022Y8973330D01*
X27897022Y8973331D01*
X27896332Y8979894D01*
X27878721Y9034097D01*
X27842478Y9145640D01*
X27840436Y9151925D01*
X27816344Y9193654D01*
X27753298Y9302853D01*
X27753296Y9302856D01*
X27749994Y9308575D01*
X27628959Y9442999D01*
X27623617Y9446880D01*
X27623615Y9446882D01*
X27487962Y9545439D01*
X27487961Y9545440D01*
X27482620Y9549320D01*
X27476592Y9552004D01*
X27476590Y9552005D01*
X27323405Y9620207D01*
X27323404Y9620207D01*
X27317374Y9622892D01*
X27199495Y9647948D01*
X27146899Y9659128D01*
X27146895Y9659128D01*
X27140442Y9660500D01*
X26959558Y9660500D01*
X26953105Y9659128D01*
X26953101Y9659128D01*
X26900505Y9647948D01*
X26782626Y9622892D01*
X26776596Y9620207D01*
X26776595Y9620207D01*
X26623410Y9552005D01*
X26623408Y9552004D01*
X26617380Y9549320D01*
X26612039Y9545440D01*
X26612038Y9545439D01*
X26476385Y9446882D01*
X26476383Y9446880D01*
X26471041Y9442999D01*
X26350006Y9308575D01*
X26346704Y9302856D01*
X26346702Y9302853D01*
X26283656Y9193654D01*
X26259564Y9151925D01*
X26257522Y9145640D01*
X26221280Y9034097D01*
X26203668Y8979894D01*
X26202978Y8973331D01*
X26202978Y8973330D01*
X26198968Y8935180D01*
X26184760Y8800000D01*
X22645435Y8800000D01*
X22645502Y8800229D01*
X22700250Y8847214D01*
X22727593Y8859388D01*
X22757282Y8880958D01*
X22866891Y8960595D01*
X22872230Y8964474D01*
X22885898Y8979653D01*
X22987440Y9092427D01*
X22987441Y9092428D01*
X22991859Y9097335D01*
X23081250Y9252165D01*
X23136497Y9422197D01*
X23137397Y9430755D01*
X23154495Y9593435D01*
X23155185Y9600000D01*
X23136497Y9777803D01*
X23128461Y9802537D01*
X23097076Y9899129D01*
X23081250Y9947835D01*
X23019376Y10055005D01*
X22995162Y10096944D01*
X22991859Y10102665D01*
X22985866Y10109321D01*
X22876645Y10230623D01*
X22876643Y10230624D01*
X22872230Y10235526D01*
X22772375Y10308076D01*
X22732935Y10336731D01*
X22732933Y10336732D01*
X22727593Y10340612D01*
X22721565Y10343296D01*
X22721563Y10343297D01*
X22570298Y10410644D01*
X22570297Y10410644D01*
X22564267Y10413329D01*
X22476829Y10431915D01*
X22395848Y10449128D01*
X22395844Y10449128D01*
X22389391Y10450500D01*
X22210609Y10450500D01*
X22204156Y10449128D01*
X22204152Y10449128D01*
X22123171Y10431914D01*
X22035733Y10413329D01*
X22029703Y10410644D01*
X22029702Y10410644D01*
X21878438Y10343297D01*
X21878436Y10343296D01*
X21872408Y10340612D01*
X21867067Y10336732D01*
X21867066Y10336731D01*
X21840974Y10317774D01*
X21727770Y10235526D01*
X21723357Y10230624D01*
X21723355Y10230623D01*
X21614134Y10109321D01*
X21608141Y10102665D01*
X21604838Y10096944D01*
X21580625Y10055005D01*
X21518750Y9947835D01*
X21502924Y9899129D01*
X21471540Y9802537D01*
X21463503Y9777803D01*
X21444815Y9600000D01*
X21445505Y9593435D01*
X21462604Y9430755D01*
X21463503Y9422197D01*
X21518750Y9252165D01*
X21608141Y9097335D01*
X21612559Y9092428D01*
X21612560Y9092427D01*
X21714103Y8979653D01*
X21727770Y8964474D01*
X21733109Y8960595D01*
X21842719Y8880958D01*
X21872407Y8859388D01*
X21899750Y8847214D01*
X21953845Y8801235D01*
X21974500Y8732108D01*
X21974500Y8477017D01*
X21954498Y8408896D01*
X21937595Y8387922D01*
X21357078Y7807405D01*
X21294766Y7773379D01*
X21267984Y7770500D01*
X21145086Y7770499D01*
X21132586Y7770499D01*
X21128888Y7770059D01*
X21128885Y7770059D01*
X21124236Y7769506D01*
X21107690Y7767538D01*
X21010490Y7724363D01*
X20972957Y7686765D01*
X20943567Y7657324D01*
X20943566Y7657322D01*
X20935350Y7649092D01*
X20926204Y7628403D01*
X20915237Y7603597D01*
X20869399Y7549381D01*
X20801526Y7528554D01*
X20733167Y7547728D01*
X20684846Y7603397D01*
X20669086Y7638877D01*
X20664363Y7649510D01*
X20598045Y7715713D01*
X20597324Y7716433D01*
X20597322Y7716434D01*
X20589092Y7724650D01*
X20561802Y7736715D01*
X20500486Y7763823D01*
X20500483Y7763824D01*
X20491817Y7767655D01*
X20482406Y7768752D01*
X20482403Y7768753D01*
X20477138Y7769366D01*
X20467415Y7770500D01*
X20291513Y7770500D01*
X20112586Y7770499D01*
X20108889Y7770059D01*
X20108884Y7770059D01*
X20102743Y7769328D01*
X20087690Y7767538D01*
X19990490Y7724363D01*
X19982273Y7716132D01*
X19982272Y7716131D01*
X19928717Y7662482D01*
X19866435Y7628403D01*
X19839544Y7625500D01*
X19760542Y7625500D01*
X19692421Y7645502D01*
X19671524Y7662327D01*
X19617324Y7716433D01*
X19617322Y7716434D01*
X19609092Y7724650D01*
X19581802Y7736715D01*
X19520486Y7763823D01*
X19520483Y7763824D01*
X19511817Y7767655D01*
X19502406Y7768752D01*
X19502403Y7768753D01*
X19497138Y7769366D01*
X19487415Y7770500D01*
X19311513Y7770500D01*
X19132586Y7770499D01*
X19128889Y7770059D01*
X19128884Y7770059D01*
X19122743Y7769328D01*
X19107690Y7767538D01*
X19010490Y7724363D01*
X18972957Y7686765D01*
X18943567Y7657324D01*
X18943566Y7657322D01*
X18935350Y7649092D01*
X18914964Y7602979D01*
X18869128Y7548765D01*
X18801255Y7527937D01*
X18732897Y7547110D01*
X18684574Y7602779D01*
X18668668Y7638589D01*
X18655711Y7657442D01*
X18597037Y7716013D01*
X18578167Y7728934D01*
X18560568Y7736715D01*
X18546588Y7738552D01*
X18544000Y7734416D01*
X18544000Y6874083D01*
X18547973Y6860552D01*
X18578932Y6856101D01*
X18643513Y6826608D01*
X18681896Y6766882D01*
X18687000Y6731384D01*
X18687000Y6493726D01*
X18666998Y6425605D01*
X18616530Y6380623D01*
X18585178Y6365230D01*
X18585174Y6365227D01*
X18575829Y6360639D01*
X18568476Y6353273D01*
X18568473Y6353271D01*
X18565208Y6350000D01*
X18488981Y6273640D01*
X18434996Y6163199D01*
X18433585Y6153524D01*
X18433584Y6153522D01*
X18425165Y6095808D01*
X18424500Y6091251D01*
X2650500Y6091251D01*
X2650500Y8605672D01*
X7520502Y8605672D01*
X7522256Y8603329D01*
X7536288Y8601057D01*
X7647216Y8599024D01*
X7664856Y8601221D01*
X7666798Y8601750D01*
X7678807Y8609142D01*
X7678586Y8610923D01*
X7675862Y8614928D01*
X7612812Y8677978D01*
X7598868Y8685592D01*
X7597035Y8685461D01*
X7590420Y8681210D01*
X7527262Y8618052D01*
X7520502Y8605672D01*
X2650500Y8605672D01*
X2650500Y9046648D01*
X7146571Y9046648D01*
X7154730Y8984254D01*
X7159841Y8972672D01*
X7168560Y8977770D01*
X7227978Y9037188D01*
X7235592Y9051132D01*
X7235461Y9052965D01*
X7231210Y9059580D01*
X7170321Y9120469D01*
X7158813Y9126753D01*
X7155131Y9118010D01*
X7146788Y9064427D01*
X7146571Y9046648D01*
X2650500Y9046648D01*
X2650500Y9763598D01*
X2651516Y9771315D01*
X2651516Y9783978D01*
X2655809Y9800000D01*
X2654154Y9806178D01*
X5619500Y9806178D01*
X5630173Y9714631D01*
X5632821Y9691924D01*
X5634657Y9676172D01*
X5637153Y9669295D01*
X5637154Y9669292D01*
X5683319Y9542110D01*
X5694369Y9511669D01*
X5790323Y9365315D01*
X5917372Y9244960D01*
X6068702Y9157061D01*
X6236193Y9106333D01*
X6410862Y9095497D01*
X6418078Y9096737D01*
X6418080Y9096737D01*
X6576125Y9123894D01*
X6576127Y9123895D01*
X6583340Y9125134D01*
X6744373Y9193654D01*
X6885324Y9297383D01*
X6890063Y9302961D01*
X6890066Y9302964D01*
X6993893Y9425176D01*
X6993896Y9425180D01*
X6998632Y9430755D01*
X7049054Y9529500D01*
X7074892Y9580100D01*
X7074893Y9580102D01*
X7078219Y9586616D01*
X7079959Y9593725D01*
X7082510Y9600586D01*
X7085656Y9599416D01*
X7113629Y9647948D01*
X7176710Y9680527D01*
X7247390Y9673829D01*
X7284053Y9651262D01*
X7339029Y9602709D01*
X7347152Y9598895D01*
X7347154Y9598894D01*
X7461025Y9545432D01*
X7459465Y9542110D01*
X7504236Y9512579D01*
X7511793Y9502695D01*
X7523487Y9485723D01*
X8012595Y8996615D01*
X8046621Y8934303D01*
X8049500Y8907520D01*
X8049500Y7965950D01*
X8029498Y7897829D01*
X8012595Y7876855D01*
X7943145Y7807405D01*
X7880833Y7773379D01*
X7854051Y7770500D01*
X7632159Y7770499D01*
X7612586Y7770499D01*
X7608889Y7770059D01*
X7608884Y7770059D01*
X7602743Y7769328D01*
X7587690Y7767538D01*
X7490490Y7724363D01*
X7452957Y7686765D01*
X7423567Y7657324D01*
X7423566Y7657322D01*
X7415350Y7649092D01*
X7410647Y7638454D01*
X7410646Y7638452D01*
X7376177Y7560486D01*
X7376176Y7560483D01*
X7372345Y7551817D01*
X7369500Y7527415D01*
X7369501Y7072586D01*
X7372462Y7047690D01*
X7415637Y6950490D01*
X7428632Y6937518D01*
X7482676Y6883567D01*
X7482678Y6883566D01*
X7490908Y6875350D01*
X7501548Y6870646D01*
X7579514Y6836177D01*
X7579517Y6836176D01*
X7588183Y6832345D01*
X7597594Y6831248D01*
X7597597Y6831247D01*
X7602862Y6830634D01*
X7612585Y6829500D01*
X7788487Y6829500D01*
X7967414Y6829501D01*
X7971111Y6829941D01*
X7971116Y6829941D01*
X7977257Y6830672D01*
X7992310Y6832462D01*
X8089510Y6875637D01*
X8127043Y6913235D01*
X8156433Y6942676D01*
X8156434Y6942678D01*
X8164650Y6950908D01*
X8185036Y6997021D01*
X8230872Y7051235D01*
X8298745Y7072063D01*
X8367103Y7052890D01*
X8415426Y6997221D01*
X8431332Y6961411D01*
X8444289Y6942558D01*
X8502963Y6883987D01*
X8521833Y6871066D01*
X8539432Y6863285D01*
X8553412Y6861448D01*
X8556000Y6865584D01*
X8556000Y6874083D01*
X9064000Y6874083D01*
X9067973Y6860552D01*
X9072768Y6859863D01*
X9098591Y6871333D01*
X9117440Y6884287D01*
X9176014Y6942963D01*
X9188935Y6961835D01*
X9218818Y7029429D01*
X9219844Y7037232D01*
X17877654Y7037232D01*
X17911331Y6961413D01*
X17924289Y6942558D01*
X17982963Y6883987D01*
X18001833Y6871066D01*
X18019432Y6863285D01*
X18033412Y6861448D01*
X18036000Y6865584D01*
X18036000Y7027885D01*
X18031525Y7043124D01*
X18030135Y7044329D01*
X18022452Y7046000D01*
X17891874Y7046000D01*
X17878343Y7042027D01*
X17877654Y7037232D01*
X9219844Y7037232D01*
X9220656Y7043413D01*
X9216521Y7046000D01*
X9082115Y7046000D01*
X9066876Y7041525D01*
X9065671Y7040135D01*
X9064000Y7032452D01*
X9064000Y6874083D01*
X8556000Y6874083D01*
X8556000Y7572115D01*
X9064000Y7572115D01*
X9068475Y7556876D01*
X9069865Y7555671D01*
X9077548Y7554000D01*
X9208126Y7554000D01*
X9216937Y7556587D01*
X17879344Y7556587D01*
X17883479Y7554000D01*
X18017885Y7554000D01*
X18033124Y7558475D01*
X18034329Y7559865D01*
X18036000Y7567548D01*
X18036000Y7725917D01*
X18032027Y7739448D01*
X18027232Y7740137D01*
X18001409Y7728667D01*
X17982560Y7715713D01*
X17923986Y7657037D01*
X17911065Y7638165D01*
X17881182Y7570571D01*
X17879344Y7556587D01*
X9216937Y7556587D01*
X9221657Y7557973D01*
X9222346Y7562768D01*
X9188669Y7638587D01*
X9175711Y7657442D01*
X9117037Y7716013D01*
X9098167Y7728934D01*
X9080568Y7736715D01*
X9066588Y7738552D01*
X9064000Y7734416D01*
X9064000Y7572115D01*
X8556000Y7572115D01*
X8556000Y7725917D01*
X8554400Y7731366D01*
X8551717Y7791445D01*
X8555408Y7810000D01*
X8552921Y7822504D01*
X8550500Y7847085D01*
X8550500Y8605672D01*
X8920502Y8605672D01*
X8922256Y8603329D01*
X8936288Y8601057D01*
X9047216Y8599024D01*
X9064856Y8601221D01*
X9066798Y8601750D01*
X9078807Y8609142D01*
X9078586Y8610923D01*
X9075862Y8614928D01*
X9012812Y8677978D01*
X8998868Y8685592D01*
X8997035Y8685461D01*
X8990420Y8681210D01*
X8927262Y8618052D01*
X8920502Y8605672D01*
X8550500Y8605672D01*
X8550500Y8907520D01*
X8558622Y8935180D01*
X16499500Y8935180D01*
X16508233Y8891278D01*
X16515127Y8880960D01*
X16515128Y8880958D01*
X16526948Y8863269D01*
X16541496Y8841496D01*
X16551815Y8834601D01*
X16580958Y8815128D01*
X16580960Y8815127D01*
X16591278Y8808233D01*
X16635180Y8799500D01*
X17964820Y8799500D01*
X18008722Y8808233D01*
X18019040Y8815127D01*
X18019042Y8815128D01*
X18048185Y8834601D01*
X18058504Y8841496D01*
X18073052Y8863269D01*
X18084872Y8880958D01*
X18084873Y8880960D01*
X18091767Y8891278D01*
X18100500Y8935180D01*
X18100500Y9600000D01*
X18944815Y9600000D01*
X18945505Y9593435D01*
X18962604Y9430755D01*
X18963503Y9422197D01*
X19018750Y9252165D01*
X19108141Y9097335D01*
X19112559Y9092428D01*
X19112560Y9092427D01*
X19214103Y8979653D01*
X19227770Y8964474D01*
X19233109Y8960595D01*
X19342719Y8880958D01*
X19372407Y8859388D01*
X19378435Y8856704D01*
X19378437Y8856703D01*
X19529702Y8789356D01*
X19535733Y8786671D01*
X19623171Y8768085D01*
X19704152Y8750872D01*
X19704156Y8750872D01*
X19710609Y8749500D01*
X19889391Y8749500D01*
X19895844Y8750872D01*
X19895848Y8750872D01*
X19976829Y8768086D01*
X20064267Y8786671D01*
X20070298Y8789356D01*
X20221563Y8856703D01*
X20221565Y8856704D01*
X20227593Y8859388D01*
X20257282Y8880958D01*
X20366891Y8960595D01*
X20372230Y8964474D01*
X20385898Y8979653D01*
X20487440Y9092427D01*
X20487441Y9092428D01*
X20491859Y9097335D01*
X20581250Y9252165D01*
X20636497Y9422197D01*
X20637397Y9430755D01*
X20654495Y9593435D01*
X20655185Y9600000D01*
X20636497Y9777803D01*
X20628461Y9802537D01*
X20597076Y9899129D01*
X20581250Y9947835D01*
X20519376Y10055005D01*
X20495162Y10096944D01*
X20491859Y10102665D01*
X20485866Y10109321D01*
X20376645Y10230623D01*
X20376643Y10230624D01*
X20372230Y10235526D01*
X20272375Y10308076D01*
X20232935Y10336731D01*
X20232933Y10336732D01*
X20227593Y10340612D01*
X20221565Y10343296D01*
X20221563Y10343297D01*
X20070298Y10410644D01*
X20070297Y10410644D01*
X20064267Y10413329D01*
X19976829Y10431915D01*
X19895848Y10449128D01*
X19895844Y10449128D01*
X19889391Y10450500D01*
X19710609Y10450500D01*
X19704156Y10449128D01*
X19704152Y10449128D01*
X19623171Y10431914D01*
X19535733Y10413329D01*
X19529703Y10410644D01*
X19529702Y10410644D01*
X19378438Y10343297D01*
X19378436Y10343296D01*
X19372408Y10340612D01*
X19367067Y10336732D01*
X19367066Y10336731D01*
X19340974Y10317774D01*
X19227770Y10235526D01*
X19223357Y10230624D01*
X19223355Y10230623D01*
X19114134Y10109321D01*
X19108141Y10102665D01*
X19104838Y10096944D01*
X19080625Y10055005D01*
X19018750Y9947835D01*
X19002924Y9899129D01*
X18971540Y9802537D01*
X18963503Y9777803D01*
X18944815Y9600000D01*
X18100500Y9600000D01*
X18100500Y10264820D01*
X18091767Y10308722D01*
X18084873Y10319040D01*
X18084872Y10319042D01*
X18065399Y10348185D01*
X18058504Y10358504D01*
X18048185Y10365399D01*
X18019042Y10384872D01*
X18019040Y10384873D01*
X18008722Y10391767D01*
X17964820Y10400500D01*
X16635180Y10400500D01*
X16591278Y10391767D01*
X16580960Y10384873D01*
X16580958Y10384872D01*
X16551815Y10365399D01*
X16541496Y10358504D01*
X16534601Y10348185D01*
X16515128Y10319042D01*
X16515127Y10319040D01*
X16508233Y10308722D01*
X16499500Y10264820D01*
X16499500Y8935180D01*
X8558622Y8935180D01*
X8570502Y8975641D01*
X8587405Y8996615D01*
X8639658Y9048868D01*
X9364408Y9048868D01*
X9364539Y9047035D01*
X9368790Y9040420D01*
X9429557Y8979653D01*
X9441258Y8973264D01*
X9444868Y8981693D01*
X9453684Y9034097D01*
X9454551Y9043753D01*
X9454567Y9045128D01*
X9453935Y9054829D01*
X9445242Y9115529D01*
X9439895Y9127256D01*
X9431469Y9122259D01*
X9372022Y9062812D01*
X9364408Y9048868D01*
X8639658Y9048868D01*
X9072264Y9481474D01*
X9077165Y9490449D01*
X9127368Y9540650D01*
X9135600Y9544763D01*
X9256098Y9599550D01*
X9320641Y9655164D01*
X9385301Y9684477D01*
X9455546Y9674178D01*
X9509073Y9627537D01*
X9521325Y9602702D01*
X9554369Y9511669D01*
X9650323Y9365315D01*
X9777372Y9244960D01*
X9928702Y9157061D01*
X10096193Y9106333D01*
X10270862Y9095497D01*
X10278078Y9096737D01*
X10278080Y9096737D01*
X10436125Y9123894D01*
X10436127Y9123895D01*
X10443340Y9125134D01*
X10604373Y9193654D01*
X10745324Y9297383D01*
X10750063Y9302961D01*
X10750066Y9302964D01*
X10853893Y9425176D01*
X10853896Y9425180D01*
X10858632Y9430755D01*
X10909054Y9529500D01*
X10934892Y9580100D01*
X10934893Y9580102D01*
X10938219Y9586616D01*
X10941224Y9598894D01*
X10962911Y9687525D01*
X10979815Y9756606D01*
X10980500Y9767648D01*
X10980500Y10793822D01*
X10965343Y10923828D01*
X10956025Y10949500D01*
X10908128Y11081452D01*
X10905631Y11088331D01*
X10809677Y11234685D01*
X10682628Y11355040D01*
X10531298Y11442939D01*
X10363807Y11493667D01*
X10189138Y11504503D01*
X10181922Y11503263D01*
X10181920Y11503263D01*
X10023875Y11476106D01*
X10023873Y11476105D01*
X10016660Y11474866D01*
X9855627Y11406346D01*
X9849735Y11402010D01*
X9836806Y11392495D01*
X9714676Y11302617D01*
X9709937Y11297039D01*
X9709934Y11297036D01*
X9606107Y11174824D01*
X9606104Y11174820D01*
X9601368Y11169245D01*
X9580879Y11129120D01*
X9525292Y11020259D01*
X9521781Y11013384D01*
X9520042Y11006279D01*
X9520041Y11006275D01*
X9509926Y10964937D01*
X9480185Y10843394D01*
X9479500Y10832352D01*
X9479500Y10483677D01*
X9459498Y10415556D01*
X9405842Y10369063D01*
X9335568Y10358959D01*
X9275429Y10386768D01*
X9275201Y10386421D01*
X9272877Y10387948D01*
X9270095Y10389234D01*
X9267703Y10391346D01*
X9267701Y10391347D01*
X9260971Y10397291D01*
X9252848Y10401105D01*
X9252846Y10401106D01*
X9174928Y10437688D01*
X9138975Y10454568D01*
X9130110Y10455948D01*
X9130108Y10455949D01*
X9067046Y10465768D01*
X9036654Y10470500D01*
X8966218Y10470500D01*
X8927257Y10464920D01*
X8875474Y10457505D01*
X8875471Y10457504D01*
X8866588Y10456232D01*
X8858420Y10452518D01*
X8858419Y10452518D01*
X8837631Y10443066D01*
X8743902Y10400450D01*
X8737099Y10394588D01*
X8697481Y10360451D01*
X8632818Y10331137D01*
X8562573Y10341436D01*
X8510468Y10385903D01*
X8487497Y10420282D01*
X8487493Y10420286D01*
X8480601Y10430601D01*
X8470286Y10437493D01*
X8470284Y10437495D01*
X8469995Y10437688D01*
X8450902Y10453358D01*
X8107065Y10797195D01*
X8073039Y10859507D01*
X8070162Y10887059D01*
X8070885Y11005535D01*
X8070940Y11014511D01*
X8068036Y11024674D01*
X8036372Y11135464D01*
X8036371Y11135466D01*
X8033905Y11144095D01*
X7961988Y11258076D01*
X7921952Y11293435D01*
X7908217Y11305565D01*
X7870399Y11365651D01*
X7871069Y11436644D01*
X7909377Y11495459D01*
X7919347Y11504049D01*
X7958197Y11537525D01*
X8031501Y11650618D01*
X8035664Y11664536D01*
X8067544Y11771138D01*
X8070117Y11779741D01*
X8070940Y11914511D01*
X8068472Y11923147D01*
X8067484Y11930357D01*
X8078054Y12000562D01*
X8124902Y12053908D01*
X8193154Y12073458D01*
X8261140Y12053005D01*
X8281413Y12036556D01*
X8504608Y11813361D01*
X8536662Y11758890D01*
X8562217Y11669475D01*
X8566095Y11655905D01*
X8638012Y11541924D01*
X8739029Y11452709D01*
X8747152Y11448895D01*
X8747154Y11448894D01*
X8798678Y11424704D01*
X8861025Y11395432D01*
X8869890Y11394052D01*
X8869892Y11394051D01*
X8932954Y11384232D01*
X8963346Y11379500D01*
X9033782Y11379500D01*
X9072743Y11385080D01*
X9124526Y11392495D01*
X9124529Y11392496D01*
X9133412Y11393768D01*
X9145461Y11399246D01*
X9174545Y11412470D01*
X9256098Y11449550D01*
X9358197Y11537525D01*
X9431501Y11650618D01*
X9447646Y11704603D01*
X9486328Y11764136D01*
X9551056Y11793306D01*
X9568363Y11794500D01*
X26092481Y11794500D01*
X26160602Y11774498D01*
X26181576Y11757595D01*
X26211755Y11727416D01*
X26245781Y11665104D01*
X26242493Y11599385D01*
X26207454Y11491545D01*
X26203668Y11479894D01*
X26202978Y11473331D01*
X26202978Y11473330D01*
X26190545Y11355040D01*
X26184760Y11300000D01*
X26185450Y11293435D01*
X26202721Y11129120D01*
X26203668Y11120106D01*
X26259564Y10948075D01*
X26262867Y10942353D01*
X26262868Y10942352D01*
X26346675Y10797195D01*
X26350006Y10791425D01*
X26471041Y10657001D01*
X26476383Y10653120D01*
X26476385Y10653118D01*
X26556809Y10594687D01*
X26617380Y10550680D01*
X26623408Y10547996D01*
X26623410Y10547995D01*
X26776595Y10479793D01*
X26782626Y10477108D01*
X26871092Y10458304D01*
X26953101Y10440872D01*
X26953105Y10440872D01*
X26959558Y10439500D01*
X27140442Y10439500D01*
X27146895Y10440872D01*
X27146899Y10440872D01*
X27228908Y10458304D01*
X27317374Y10477108D01*
X27323405Y10479793D01*
X27476590Y10547995D01*
X27476592Y10547996D01*
X27482620Y10550680D01*
X27543191Y10594687D01*
X27623615Y10653118D01*
X27623617Y10653120D01*
X27628959Y10657001D01*
X27749994Y10791425D01*
X27753326Y10797195D01*
X27837132Y10942352D01*
X27837133Y10942353D01*
X27840436Y10948075D01*
X27896332Y11120106D01*
X27897280Y11129120D01*
X27914550Y11293435D01*
X27915240Y11300000D01*
X27909455Y11355040D01*
X27897022Y11473330D01*
X27897022Y11473331D01*
X27896332Y11479894D01*
X27892547Y11491545D01*
X27848485Y11627152D01*
X27840436Y11651925D01*
X27832827Y11665104D01*
X27753298Y11802853D01*
X27753296Y11802856D01*
X27749994Y11808575D01*
X27628959Y11942999D01*
X27623617Y11946880D01*
X27623615Y11946882D01*
X27487962Y12045439D01*
X27487961Y12045440D01*
X27482620Y12049320D01*
X27476592Y12052004D01*
X27476590Y12052005D01*
X27323405Y12120207D01*
X27323404Y12120207D01*
X27317374Y12122892D01*
X27228908Y12141696D01*
X27146899Y12159128D01*
X27146895Y12159128D01*
X27140442Y12160500D01*
X26959558Y12160500D01*
X26953105Y12159128D01*
X26953101Y12159128D01*
X26871092Y12141696D01*
X26782626Y12122892D01*
X26776596Y12120207D01*
X26776595Y12120207D01*
X26761621Y12113540D01*
X26691254Y12104106D01*
X26626957Y12134212D01*
X26621277Y12139552D01*
X26549924Y12210905D01*
X26515898Y12273217D01*
X26520963Y12344032D01*
X26549924Y12389095D01*
X26621277Y12460448D01*
X26683589Y12494474D01*
X26754404Y12489409D01*
X26761621Y12486460D01*
X26782626Y12477108D01*
X26871092Y12458304D01*
X26953101Y12440872D01*
X26953105Y12440872D01*
X26959558Y12439500D01*
X27140442Y12439500D01*
X27146895Y12440872D01*
X27146899Y12440872D01*
X27228908Y12458304D01*
X27317374Y12477108D01*
X27356379Y12494474D01*
X27476590Y12547995D01*
X27476592Y12547996D01*
X27482620Y12550680D01*
X27489812Y12555905D01*
X27623615Y12653118D01*
X27623617Y12653120D01*
X27628959Y12657001D01*
X27749994Y12791425D01*
X27758121Y12805500D01*
X27837132Y12942352D01*
X27837133Y12942353D01*
X27840436Y12948075D01*
X27891275Y13104541D01*
X27894292Y13113827D01*
X27894292Y13113828D01*
X27896332Y13120106D01*
X27905210Y13204568D01*
X27914550Y13293435D01*
X27915240Y13300000D01*
X27897427Y13469479D01*
X27897022Y13473330D01*
X27897022Y13473331D01*
X27896332Y13479894D01*
X27840436Y13651925D01*
X27826437Y13676172D01*
X27753298Y13802853D01*
X27753296Y13802856D01*
X27749994Y13808575D01*
X27628959Y13942999D01*
X27623617Y13946880D01*
X27623615Y13946882D01*
X27487962Y14045439D01*
X27487961Y14045440D01*
X27482620Y14049320D01*
X27476592Y14052004D01*
X27476590Y14052005D01*
X27323405Y14120207D01*
X27323404Y14120207D01*
X27317374Y14122892D01*
X27217829Y14144051D01*
X27146899Y14159128D01*
X27146895Y14159128D01*
X27140442Y14160500D01*
X26959558Y14160500D01*
X26953105Y14159128D01*
X26953101Y14159128D01*
X26882171Y14144051D01*
X26782626Y14122892D01*
X26776596Y14120207D01*
X26776595Y14120207D01*
X26623410Y14052005D01*
X26623408Y14052004D01*
X26617380Y14049320D01*
X26612039Y14045440D01*
X26612038Y14045439D01*
X26476385Y13946882D01*
X26476383Y13946880D01*
X26471041Y13942999D01*
X26350006Y13808575D01*
X26346704Y13802856D01*
X26346702Y13802853D01*
X26273563Y13676172D01*
X26259564Y13651925D01*
X26203668Y13479894D01*
X26202978Y13473331D01*
X26202978Y13473330D01*
X26202573Y13469479D01*
X26184760Y13300000D01*
X26185450Y13293435D01*
X26194791Y13204568D01*
X26203668Y13120106D01*
X26205708Y13113828D01*
X26205708Y13113827D01*
X26208143Y13106333D01*
X26229534Y13040500D01*
X26242493Y13000615D01*
X26244521Y12929648D01*
X26211755Y12872584D01*
X26181576Y12842405D01*
X26119264Y12808379D01*
X26092481Y12805500D01*
X9568549Y12805500D01*
X9500428Y12825502D01*
X9453935Y12879158D01*
X9447400Y12896876D01*
X9436372Y12935465D01*
X9436370Y12935468D01*
X9433905Y12944095D01*
X9371100Y13043634D01*
X9366779Y13050483D01*
X9366778Y13050484D01*
X9361988Y13058076D01*
X9346156Y13072059D01*
X9308217Y13105565D01*
X9270399Y13165651D01*
X9271069Y13236644D01*
X9309377Y13295459D01*
X9314648Y13300000D01*
X9358197Y13337525D01*
X9363080Y13345059D01*
X9363083Y13345062D01*
X9407354Y13413364D01*
X9461190Y13459648D01*
X9531502Y13469479D01*
X9595968Y13439735D01*
X9618458Y13413917D01*
X9650323Y13365315D01*
X9777372Y13244960D01*
X9928702Y13157061D01*
X10096193Y13106333D01*
X10270862Y13095497D01*
X10278078Y13096737D01*
X10278080Y13096737D01*
X10436125Y13123894D01*
X10436127Y13123895D01*
X10443340Y13125134D01*
X10604373Y13193654D01*
X10621465Y13206232D01*
X10669093Y13241283D01*
X10745324Y13297383D01*
X10750063Y13302961D01*
X10750066Y13302964D01*
X10853893Y13425176D01*
X10853896Y13425180D01*
X10858632Y13430755D01*
X10930541Y13571580D01*
X10934892Y13580100D01*
X10934893Y13580102D01*
X10938219Y13586616D01*
X10949726Y13633639D01*
X10978480Y13751152D01*
X10979815Y13756606D01*
X10980500Y13767648D01*
X10980500Y14793822D01*
X10969827Y14885369D01*
X10966191Y14916556D01*
X10966191Y14916558D01*
X10965343Y14923828D01*
X10947690Y14972463D01*
X10937694Y15000000D01*
X16444815Y15000000D01*
X16463503Y14822197D01*
X16465543Y14815920D01*
X16465543Y14815918D01*
X16476737Y14781468D01*
X16518750Y14652165D01*
X16522053Y14646443D01*
X16522054Y14646442D01*
X16586113Y14535489D01*
X16608141Y14497335D01*
X16612559Y14492428D01*
X16612560Y14492427D01*
X16717160Y14376258D01*
X16727770Y14364474D01*
X16733109Y14360595D01*
X16840974Y14282226D01*
X16872407Y14259388D01*
X16878435Y14256704D01*
X16878437Y14256703D01*
X17015152Y14195834D01*
X17035733Y14186671D01*
X17123171Y14168085D01*
X17204152Y14150872D01*
X17204156Y14150872D01*
X17210609Y14149500D01*
X17389391Y14149500D01*
X17395844Y14150872D01*
X17395848Y14150872D01*
X17476829Y14168085D01*
X17564267Y14186671D01*
X17584848Y14195834D01*
X17721563Y14256703D01*
X17721565Y14256704D01*
X17727593Y14259388D01*
X17759027Y14282226D01*
X17866891Y14360595D01*
X17872230Y14364474D01*
X17882841Y14376258D01*
X17987440Y14492427D01*
X17987441Y14492428D01*
X17991859Y14497335D01*
X18013887Y14535489D01*
X18077946Y14646442D01*
X18077947Y14646443D01*
X18081250Y14652165D01*
X18123263Y14781468D01*
X18134457Y14815918D01*
X18134457Y14815920D01*
X18136497Y14822197D01*
X18155185Y15000000D01*
X18944815Y15000000D01*
X18963503Y14822197D01*
X18965543Y14815920D01*
X18965543Y14815918D01*
X18976737Y14781468D01*
X19018750Y14652165D01*
X19022053Y14646443D01*
X19022054Y14646442D01*
X19086113Y14535489D01*
X19108141Y14497335D01*
X19112559Y14492428D01*
X19112560Y14492427D01*
X19217160Y14376258D01*
X19227770Y14364474D01*
X19233109Y14360595D01*
X19340974Y14282226D01*
X19372407Y14259388D01*
X19378435Y14256704D01*
X19378437Y14256703D01*
X19515152Y14195834D01*
X19535733Y14186671D01*
X19623171Y14168085D01*
X19704152Y14150872D01*
X19704156Y14150872D01*
X19710609Y14149500D01*
X19889391Y14149500D01*
X19895844Y14150872D01*
X19895848Y14150872D01*
X19976829Y14168085D01*
X20064267Y14186671D01*
X20084848Y14195834D01*
X20221563Y14256703D01*
X20221565Y14256704D01*
X20227593Y14259388D01*
X20259027Y14282226D01*
X20366891Y14360595D01*
X20372230Y14364474D01*
X20382841Y14376258D01*
X20487440Y14492427D01*
X20487441Y14492428D01*
X20491859Y14497335D01*
X20513887Y14535489D01*
X20577946Y14646442D01*
X20577947Y14646443D01*
X20581250Y14652165D01*
X20623263Y14781468D01*
X20634457Y14815918D01*
X20634457Y14815920D01*
X20636497Y14822197D01*
X20655185Y15000000D01*
X21444815Y15000000D01*
X21463503Y14822197D01*
X21465543Y14815920D01*
X21465543Y14815918D01*
X21476737Y14781468D01*
X21518750Y14652165D01*
X21522053Y14646443D01*
X21522054Y14646442D01*
X21586113Y14535489D01*
X21608141Y14497335D01*
X21612559Y14492428D01*
X21612560Y14492427D01*
X21717160Y14376258D01*
X21727770Y14364474D01*
X21733109Y14360595D01*
X21840974Y14282226D01*
X21872407Y14259388D01*
X21878435Y14256704D01*
X21878437Y14256703D01*
X22015152Y14195834D01*
X22035733Y14186671D01*
X22123171Y14168085D01*
X22204152Y14150872D01*
X22204156Y14150872D01*
X22210609Y14149500D01*
X22389391Y14149500D01*
X22395844Y14150872D01*
X22395848Y14150872D01*
X22476829Y14168085D01*
X22564267Y14186671D01*
X22584848Y14195834D01*
X22721563Y14256703D01*
X22721565Y14256704D01*
X22727593Y14259388D01*
X22759027Y14282226D01*
X22866891Y14360595D01*
X22872230Y14364474D01*
X22882841Y14376258D01*
X22987440Y14492427D01*
X22987441Y14492428D01*
X22991859Y14497335D01*
X23013887Y14535489D01*
X23077946Y14646442D01*
X23077947Y14646443D01*
X23081250Y14652165D01*
X23123263Y14781468D01*
X23134457Y14815918D01*
X23134457Y14815920D01*
X23136497Y14822197D01*
X23155185Y15000000D01*
X23151642Y15033705D01*
X23151149Y15038395D01*
X26653225Y15038395D01*
X26656736Y15033705D01*
X26776751Y14980271D01*
X26789239Y14976214D01*
X26953153Y14941372D01*
X26966213Y14940000D01*
X27133787Y14940000D01*
X27146847Y14941372D01*
X27310761Y14976214D01*
X27323249Y14980271D01*
X27436278Y15030595D01*
X27447022Y15039727D01*
X27445426Y15045364D01*
X27062812Y15427978D01*
X27048868Y15435592D01*
X27047035Y15435461D01*
X27040420Y15431210D01*
X26659985Y15050775D01*
X26653225Y15038395D01*
X23151149Y15038395D01*
X23137187Y15171239D01*
X23137187Y15171240D01*
X23136497Y15177803D01*
X23081250Y15347835D01*
X23044795Y15410978D01*
X22995162Y15496944D01*
X22991859Y15502665D01*
X22987440Y15507573D01*
X22876645Y15630623D01*
X22876643Y15630624D01*
X22872230Y15635526D01*
X22727593Y15740612D01*
X22721565Y15743296D01*
X22721563Y15743297D01*
X22608950Y15793435D01*
X26185953Y15793435D01*
X26203470Y15626775D01*
X26206200Y15613932D01*
X26257981Y15454564D01*
X26263326Y15442559D01*
X26279899Y15413854D01*
X26290104Y15404123D01*
X26298123Y15407333D01*
X26677978Y15787188D01*
X26684356Y15798868D01*
X27414408Y15798868D01*
X27414539Y15797035D01*
X27418790Y15790420D01*
X27798232Y15410978D01*
X27810612Y15404218D01*
X27817527Y15409394D01*
X27836674Y15442559D01*
X27842019Y15454564D01*
X27893800Y15613932D01*
X27896530Y15626775D01*
X27914047Y15793435D01*
X27914047Y15806565D01*
X27896530Y15973225D01*
X27893800Y15986068D01*
X27842019Y16145436D01*
X27836674Y16157441D01*
X27820101Y16186146D01*
X27809896Y16195877D01*
X27801877Y16192667D01*
X27422022Y15812812D01*
X27414408Y15798868D01*
X26684356Y15798868D01*
X26685592Y15801132D01*
X26685461Y15802965D01*
X26681210Y15809580D01*
X26301768Y16189022D01*
X26289388Y16195782D01*
X26282473Y16190606D01*
X26263326Y16157441D01*
X26257981Y16145436D01*
X26206200Y15986068D01*
X26203470Y15973225D01*
X26185953Y15806565D01*
X26185953Y15793435D01*
X22608950Y15793435D01*
X22570298Y15810644D01*
X22570297Y15810644D01*
X22564267Y15813329D01*
X22476829Y15831915D01*
X22395848Y15849128D01*
X22395844Y15849128D01*
X22389391Y15850500D01*
X22210609Y15850500D01*
X22204156Y15849128D01*
X22204152Y15849128D01*
X22123171Y15831915D01*
X22035733Y15813329D01*
X22029703Y15810644D01*
X22029702Y15810644D01*
X21878438Y15743297D01*
X21878436Y15743296D01*
X21872408Y15740612D01*
X21727770Y15635526D01*
X21723357Y15630624D01*
X21723355Y15630623D01*
X21612560Y15507573D01*
X21608141Y15502665D01*
X21604838Y15496944D01*
X21555206Y15410978D01*
X21518750Y15347835D01*
X21463503Y15177803D01*
X21462813Y15171240D01*
X21462813Y15171239D01*
X21448358Y15033705D01*
X21444815Y15000000D01*
X20655185Y15000000D01*
X20651642Y15033705D01*
X20637187Y15171239D01*
X20637187Y15171240D01*
X20636497Y15177803D01*
X20581250Y15347835D01*
X20544795Y15410978D01*
X20495162Y15496944D01*
X20491859Y15502665D01*
X20487440Y15507573D01*
X20376645Y15630623D01*
X20376643Y15630624D01*
X20372230Y15635526D01*
X20227593Y15740612D01*
X20221565Y15743296D01*
X20221563Y15743297D01*
X20070298Y15810644D01*
X20070297Y15810644D01*
X20064267Y15813329D01*
X19976829Y15831915D01*
X19895848Y15849128D01*
X19895844Y15849128D01*
X19889391Y15850500D01*
X19710609Y15850500D01*
X19704156Y15849128D01*
X19704152Y15849128D01*
X19623171Y15831915D01*
X19535733Y15813329D01*
X19529703Y15810644D01*
X19529702Y15810644D01*
X19378438Y15743297D01*
X19378436Y15743296D01*
X19372408Y15740612D01*
X19227770Y15635526D01*
X19223357Y15630624D01*
X19223355Y15630623D01*
X19112560Y15507573D01*
X19108141Y15502665D01*
X19104838Y15496944D01*
X19055206Y15410978D01*
X19018750Y15347835D01*
X18963503Y15177803D01*
X18962813Y15171240D01*
X18962813Y15171239D01*
X18948358Y15033705D01*
X18944815Y15000000D01*
X18155185Y15000000D01*
X18151642Y15033705D01*
X18137187Y15171239D01*
X18137187Y15171240D01*
X18136497Y15177803D01*
X18081250Y15347835D01*
X18044795Y15410978D01*
X17995162Y15496944D01*
X17991859Y15502665D01*
X17987440Y15507573D01*
X17876645Y15630623D01*
X17876643Y15630624D01*
X17872230Y15635526D01*
X17727593Y15740612D01*
X17721565Y15743296D01*
X17721563Y15743297D01*
X17570298Y15810644D01*
X17570297Y15810644D01*
X17564267Y15813329D01*
X17476829Y15831915D01*
X17395848Y15849128D01*
X17395844Y15849128D01*
X17389391Y15850500D01*
X17210609Y15850500D01*
X17204156Y15849128D01*
X17204152Y15849128D01*
X17123171Y15831915D01*
X17035733Y15813329D01*
X17029703Y15810644D01*
X17029702Y15810644D01*
X16878438Y15743297D01*
X16878436Y15743296D01*
X16872408Y15740612D01*
X16727770Y15635526D01*
X16723357Y15630624D01*
X16723355Y15630623D01*
X16612560Y15507573D01*
X16608141Y15502665D01*
X16604838Y15496944D01*
X16555206Y15410978D01*
X16518750Y15347835D01*
X16463503Y15177803D01*
X16462813Y15171240D01*
X16462813Y15171239D01*
X16448358Y15033705D01*
X16444815Y15000000D01*
X10937694Y15000000D01*
X10908128Y15081452D01*
X10905631Y15088331D01*
X10809677Y15234685D01*
X10682628Y15355040D01*
X10531298Y15442939D01*
X10363807Y15493667D01*
X10189138Y15504503D01*
X10181922Y15503263D01*
X10181920Y15503263D01*
X10023875Y15476106D01*
X10023873Y15476105D01*
X10016660Y15474866D01*
X9855627Y15406346D01*
X9714676Y15302617D01*
X9709937Y15297039D01*
X9709934Y15297036D01*
X9606107Y15174824D01*
X9606104Y15174820D01*
X9601368Y15169245D01*
X9521781Y15013384D01*
X9520042Y15006276D01*
X9517490Y14999414D01*
X9514344Y15000584D01*
X9486371Y14952052D01*
X9423290Y14919473D01*
X9352610Y14926171D01*
X9315947Y14948738D01*
X9267699Y14991349D01*
X9260971Y14997291D01*
X9252848Y15001105D01*
X9252846Y15001106D01*
X9138975Y15054568D01*
X9140481Y15057776D01*
X9095354Y15087509D01*
X9087319Y15098080D01*
X9075862Y15114928D01*
X8641922Y15548868D01*
X9364408Y15548868D01*
X9364539Y15547035D01*
X9368790Y15540420D01*
X9429557Y15479653D01*
X9441258Y15473264D01*
X9444868Y15481693D01*
X9453684Y15534097D01*
X9454551Y15543753D01*
X9454567Y15545128D01*
X9453935Y15554829D01*
X9445242Y15615529D01*
X9439895Y15627256D01*
X9431469Y15622259D01*
X9372022Y15562812D01*
X9364408Y15548868D01*
X8641922Y15548868D01*
X8587405Y15603385D01*
X8553379Y15665697D01*
X8550500Y15692480D01*
X8550500Y15991301D01*
X8920850Y15991301D01*
X8921148Y15989117D01*
X8923483Y15985727D01*
X8987188Y15922022D01*
X9001132Y15914408D01*
X9002965Y15914539D01*
X9009580Y15918790D01*
X9072264Y15981474D01*
X9079024Y15993854D01*
X9077460Y15995943D01*
X9075006Y15997179D01*
X9058223Y15999688D01*
X8947278Y16000366D01*
X8931836Y15998250D01*
X8920850Y15991301D01*
X8550500Y15991301D01*
X8550500Y16560273D01*
X26652978Y16560273D01*
X26654574Y16554636D01*
X27037188Y16172022D01*
X27051132Y16164408D01*
X27052965Y16164539D01*
X27059580Y16168790D01*
X27440015Y16549225D01*
X27446775Y16561605D01*
X27443264Y16566295D01*
X27323249Y16619729D01*
X27310761Y16623786D01*
X27146847Y16658628D01*
X27133787Y16660000D01*
X26966213Y16660000D01*
X26953153Y16658628D01*
X26789239Y16623786D01*
X26776751Y16619729D01*
X26663722Y16569405D01*
X26652978Y16560273D01*
X8550500Y16560273D01*
X8550500Y16634050D01*
X8570502Y16702171D01*
X8587405Y16723145D01*
X8656855Y16792595D01*
X8719167Y16826621D01*
X8745949Y16829500D01*
X8967841Y16829501D01*
X8987414Y16829501D01*
X8991111Y16829941D01*
X8991116Y16829941D01*
X8997257Y16830672D01*
X9012310Y16832462D01*
X9109510Y16875637D01*
X9176315Y16942558D01*
X9176433Y16942676D01*
X9176434Y16942678D01*
X9184650Y16950908D01*
X9199536Y16984579D01*
X9223823Y17039514D01*
X9223824Y17039517D01*
X9227655Y17048183D01*
X9230500Y17072585D01*
X9230499Y17527414D01*
X9227538Y17552310D01*
X9184363Y17649510D01*
X9118045Y17715713D01*
X9117324Y17716433D01*
X9117322Y17716434D01*
X9109092Y17724650D01*
X9081802Y17736715D01*
X9020486Y17763823D01*
X9020483Y17763824D01*
X9011817Y17767655D01*
X9002406Y17768752D01*
X9002403Y17768753D01*
X8997138Y17769366D01*
X8987415Y17770500D01*
X8811513Y17770500D01*
X8632586Y17770499D01*
X8628889Y17770059D01*
X8628884Y17770059D01*
X8622743Y17769328D01*
X8607690Y17767538D01*
X8510490Y17724363D01*
X8472957Y17686765D01*
X8443567Y17657324D01*
X8443566Y17657322D01*
X8435350Y17649092D01*
X8414964Y17602979D01*
X8369128Y17548765D01*
X8301255Y17527937D01*
X8232897Y17547110D01*
X8184574Y17602779D01*
X8168668Y17638589D01*
X8155711Y17657442D01*
X8097037Y17716013D01*
X8078167Y17728934D01*
X8060568Y17736715D01*
X8046588Y17738552D01*
X8044000Y17734416D01*
X8044000Y16874083D01*
X8045600Y16868634D01*
X8048283Y16808555D01*
X8044592Y16790000D01*
X8047013Y16777829D01*
X8047013Y16777828D01*
X8047079Y16777496D01*
X8049500Y16752915D01*
X8049500Y15692480D01*
X8029498Y15624359D01*
X8012595Y15603385D01*
X7527261Y15118051D01*
X7522550Y15109423D01*
X7472348Y15059220D01*
X7464128Y15055114D01*
X7343902Y15000450D01*
X7279359Y14944836D01*
X7214699Y14915523D01*
X7144454Y14925822D01*
X7090927Y14972463D01*
X7078674Y14997299D01*
X7076182Y15004166D01*
X7045631Y15088331D01*
X6949677Y15234685D01*
X6822628Y15355040D01*
X6671298Y15442939D01*
X6503807Y15493667D01*
X6329138Y15504503D01*
X6321922Y15503263D01*
X6321920Y15503263D01*
X6163875Y15476106D01*
X6163873Y15476105D01*
X6156660Y15474866D01*
X5995627Y15406346D01*
X5854676Y15302617D01*
X5849937Y15297039D01*
X5849934Y15297036D01*
X5746107Y15174824D01*
X5746104Y15174820D01*
X5741368Y15169245D01*
X5661781Y15013384D01*
X5660042Y15006279D01*
X5660041Y15006275D01*
X5651768Y14972463D01*
X5620185Y14843394D01*
X5619500Y14832352D01*
X5619500Y13806178D01*
X5634657Y13676172D01*
X5637153Y13669295D01*
X5637154Y13669292D01*
X5671779Y13573903D01*
X5694369Y13511669D01*
X5790323Y13365315D01*
X5917372Y13244960D01*
X6068702Y13157061D01*
X6236193Y13106333D01*
X6410862Y13095497D01*
X6418078Y13096737D01*
X6418080Y13096737D01*
X6576125Y13123894D01*
X6576127Y13123895D01*
X6583340Y13125134D01*
X6744373Y13193654D01*
X6761465Y13206232D01*
X6809093Y13241283D01*
X6885324Y13297383D01*
X6890063Y13302961D01*
X6890066Y13302964D01*
X6993893Y13425176D01*
X6993896Y13425180D01*
X6998632Y13430755D01*
X7070541Y13571580D01*
X7074892Y13580100D01*
X7074893Y13580102D01*
X7078219Y13586616D01*
X7089726Y13633639D01*
X7118480Y13751152D01*
X7119815Y13756606D01*
X7120500Y13767648D01*
X7120500Y14116323D01*
X7140502Y14184444D01*
X7194158Y14230937D01*
X7264432Y14241041D01*
X7324571Y14213232D01*
X7324799Y14213579D01*
X7327123Y14212052D01*
X7329905Y14210766D01*
X7332297Y14208654D01*
X7332299Y14208653D01*
X7339029Y14202709D01*
X7347152Y14198895D01*
X7347154Y14198894D01*
X7376111Y14185299D01*
X7461025Y14145432D01*
X7469890Y14144052D01*
X7469892Y14144051D01*
X7532954Y14134232D01*
X7563346Y14129500D01*
X7633782Y14129500D01*
X7672743Y14135080D01*
X7724526Y14142495D01*
X7724529Y14142496D01*
X7733412Y14143768D01*
X7745461Y14149246D01*
X7789784Y14169399D01*
X7856098Y14199550D01*
X7902518Y14239549D01*
X7967182Y14268863D01*
X8037427Y14258564D01*
X8089532Y14214097D01*
X8112503Y14179718D01*
X8112507Y14179714D01*
X8119399Y14169399D01*
X8129714Y14162507D01*
X8129716Y14162505D01*
X8130005Y14162312D01*
X8149098Y14146642D01*
X8492935Y13802805D01*
X8526961Y13740493D01*
X8529838Y13712941D01*
X8529060Y13585489D01*
X8531527Y13576858D01*
X8531527Y13576856D01*
X8563628Y13464536D01*
X8566095Y13455905D01*
X8638012Y13341924D01*
X8644741Y13335981D01*
X8644742Y13335980D01*
X8691783Y13294435D01*
X8729601Y13234349D01*
X8728931Y13163356D01*
X8690624Y13104542D01*
X8641803Y13062475D01*
X8568499Y12949382D01*
X8565928Y12940785D01*
X8565927Y12940783D01*
X8541921Y12860511D01*
X8503240Y12800977D01*
X8438512Y12771807D01*
X8368290Y12782262D01*
X8332109Y12807518D01*
X8219891Y12919736D01*
X8218339Y12921534D01*
X8216056Y12926204D01*
X8181402Y12958350D01*
X8177997Y12961630D01*
X8165107Y12974520D01*
X8161229Y12977180D01*
X8158873Y12979249D01*
X8145242Y12991893D01*
X8136716Y12999802D01*
X8125912Y13004112D01*
X8120961Y13007242D01*
X8113472Y13011241D01*
X8108121Y13013612D01*
X8098530Y13020192D01*
X8075629Y13025627D01*
X8058056Y13031185D01*
X8036200Y13039904D01*
X8030121Y13040500D01*
X8027042Y13040500D01*
X8023969Y13040650D01*
X8024015Y13041583D01*
X8018705Y13042875D01*
X8018890Y13043634D01*
X7961442Y13060502D01*
X7946155Y13072059D01*
X7919103Y13095951D01*
X7860971Y13147291D01*
X7852848Y13151105D01*
X7852846Y13151106D01*
X7762221Y13193654D01*
X7738975Y13204568D01*
X7730110Y13205948D01*
X7730108Y13205949D01*
X7667046Y13215768D01*
X7636654Y13220500D01*
X7566218Y13220500D01*
X7527257Y13214920D01*
X7475474Y13207505D01*
X7475471Y13207504D01*
X7466588Y13206232D01*
X7458420Y13202518D01*
X7458419Y13202518D01*
X7438924Y13193654D01*
X7343902Y13150450D01*
X7241803Y13062475D01*
X7168499Y12949382D01*
X7165928Y12940785D01*
X7165927Y12940783D01*
X7143010Y12864152D01*
X7129883Y12820259D01*
X7129060Y12685489D01*
X7131527Y12676858D01*
X7131527Y12676856D01*
X7159041Y12580586D01*
X7166095Y12555905D01*
X7238012Y12441924D01*
X7244741Y12435981D01*
X7244742Y12435980D01*
X7291783Y12394435D01*
X7329601Y12334349D01*
X7328931Y12263356D01*
X7290624Y12204542D01*
X7241803Y12162475D01*
X7168499Y12049382D01*
X7165928Y12040785D01*
X7165927Y12040783D01*
X7157121Y12011336D01*
X7129883Y11920259D01*
X7129060Y11785489D01*
X7131527Y11776858D01*
X7131527Y11776856D01*
X7163466Y11665104D01*
X7166095Y11655905D01*
X7238012Y11541924D01*
X7244741Y11535981D01*
X7244742Y11535980D01*
X7291783Y11494435D01*
X7329601Y11434349D01*
X7328931Y11363356D01*
X7290624Y11304542D01*
X7241803Y11262475D01*
X7236920Y11254941D01*
X7236917Y11254938D01*
X7192646Y11186636D01*
X7138810Y11140352D01*
X7068498Y11130521D01*
X7004032Y11160265D01*
X6981542Y11186083D01*
X6960364Y11218384D01*
X6949677Y11234685D01*
X6822628Y11355040D01*
X6671298Y11442939D01*
X6503807Y11493667D01*
X6329138Y11504503D01*
X6321922Y11503263D01*
X6321920Y11503263D01*
X6163875Y11476106D01*
X6163873Y11476105D01*
X6156660Y11474866D01*
X5995627Y11406346D01*
X5989735Y11402010D01*
X5976806Y11392495D01*
X5854676Y11302617D01*
X5849937Y11297039D01*
X5849934Y11297036D01*
X5746107Y11174824D01*
X5746104Y11174820D01*
X5741368Y11169245D01*
X5720879Y11129120D01*
X5665292Y11020259D01*
X5661781Y11013384D01*
X5660042Y11006279D01*
X5660041Y11006275D01*
X5649926Y10964937D01*
X5620185Y10843394D01*
X5619500Y10832352D01*
X5619500Y9806178D01*
X2654154Y9806178D01*
X2651516Y9816022D01*
X2651516Y9818532D01*
X2650239Y9824953D01*
X2642556Y9883310D01*
X2641478Y9891499D01*
X2606161Y9976762D01*
X2584835Y10004555D01*
X2555005Y10043429D01*
X2549979Y10049979D01*
X2476762Y10106161D01*
X2428326Y10126224D01*
X2399129Y10138318D01*
X2399126Y10138319D01*
X2391499Y10141478D01*
X2324953Y10150239D01*
X2318532Y10151516D01*
X2316022Y10151516D01*
X2300000Y10155809D01*
X2284483Y10151651D01*
X2280372Y10151786D01*
X2027676Y10168349D01*
X2011336Y10170500D01*
X1751769Y10222131D01*
X1735848Y10226397D01*
X1485241Y10311467D01*
X1470015Y10317774D01*
X1232658Y10434825D01*
X1218384Y10443066D01*
X998337Y10590097D01*
X985261Y10600130D01*
X786283Y10774629D01*
X774629Y10786283D01*
X600130Y10985261D01*
X590097Y10998337D01*
X443066Y11218384D01*
X434825Y11232658D01*
X317774Y11470015D01*
X311467Y11485241D01*
X226397Y11735848D01*
X222131Y11751769D01*
X170500Y12011336D01*
X168349Y12027676D01*
X156757Y12204541D01*
X151040Y12291761D01*
X151040Y12300000D01*
X944341Y12300000D01*
X964937Y12064592D01*
X966361Y12059278D01*
X966361Y12059277D01*
X1005151Y11914511D01*
X1026097Y11836337D01*
X1028419Y11831357D01*
X1028420Y11831355D01*
X1109422Y11657648D01*
X1125965Y11622171D01*
X1261505Y11428599D01*
X1428599Y11261505D01*
X1622171Y11125965D01*
X1627149Y11123644D01*
X1627152Y11123642D01*
X1831355Y11028420D01*
X1836337Y11026097D01*
X1841645Y11024675D01*
X1841647Y11024674D01*
X2059277Y10966361D01*
X2064592Y10964937D01*
X2167682Y10955918D01*
X2238310Y10949738D01*
X2238317Y10949738D01*
X2241034Y10949500D01*
X2358966Y10949500D01*
X2361683Y10949738D01*
X2361690Y10949738D01*
X2432318Y10955918D01*
X2535408Y10964937D01*
X2540723Y10966361D01*
X2758353Y11024674D01*
X2758355Y11024675D01*
X2763663Y11026097D01*
X2768645Y11028420D01*
X2972848Y11123642D01*
X2972851Y11123644D01*
X2977829Y11125965D01*
X3171401Y11261505D01*
X3338495Y11428599D01*
X3341655Y11433111D01*
X3470878Y11617661D01*
X3470881Y11617666D01*
X3474035Y11622170D01*
X3476358Y11627152D01*
X3476361Y11627157D01*
X3571580Y11831355D01*
X3571581Y11831356D01*
X3573903Y11836337D01*
X3594850Y11914511D01*
X3633639Y12059277D01*
X3633639Y12059278D01*
X3635063Y12064592D01*
X3655659Y12300000D01*
X3635063Y12535408D01*
X3620793Y12588664D01*
X3575326Y12758353D01*
X3575325Y12758355D01*
X3573903Y12763663D01*
X3571580Y12768645D01*
X3476358Y12972848D01*
X3476356Y12972851D01*
X3474035Y12977829D01*
X3338495Y13171401D01*
X3171401Y13338495D01*
X2977829Y13474035D01*
X2972851Y13476356D01*
X2972848Y13476358D01*
X2768645Y13571580D01*
X2768643Y13571581D01*
X2763663Y13573903D01*
X2758355Y13575325D01*
X2758353Y13575326D01*
X2540723Y13633639D01*
X2540722Y13633639D01*
X2535408Y13635063D01*
X2432318Y13644082D01*
X2361690Y13650262D01*
X2361683Y13650262D01*
X2358966Y13650500D01*
X2241034Y13650500D01*
X2238317Y13650262D01*
X2238310Y13650262D01*
X2167682Y13644082D01*
X2064592Y13635063D01*
X2059278Y13633639D01*
X2059277Y13633639D01*
X1841647Y13575326D01*
X1841645Y13575325D01*
X1836337Y13573903D01*
X1831357Y13571581D01*
X1831355Y13571580D01*
X1627152Y13476358D01*
X1627149Y13476356D01*
X1622171Y13474035D01*
X1428599Y13338495D01*
X1261505Y13171401D01*
X1258348Y13166893D01*
X1258346Y13166890D01*
X1141919Y13000615D01*
X1125965Y12977830D01*
X1123642Y12972848D01*
X1123639Y12972843D01*
X1028420Y12768645D01*
X1026097Y12763663D01*
X1024675Y12758355D01*
X1024674Y12758353D01*
X979207Y12588664D01*
X964937Y12535408D01*
X944341Y12300000D01*
X151040Y12300000D01*
X151040Y12308241D01*
X152053Y12323688D01*
X167273Y12555905D01*
X168349Y12572324D01*
X170500Y12588664D01*
X222131Y12848231D01*
X226397Y12864152D01*
X311467Y13114759D01*
X317774Y13129985D01*
X434825Y13367342D01*
X443066Y13381616D01*
X590097Y13601663D01*
X600130Y13614739D01*
X774629Y13813717D01*
X786283Y13825371D01*
X985261Y13999870D01*
X998337Y14009903D01*
X1218384Y14156934D01*
X1232658Y14165175D01*
X1470015Y14282226D01*
X1485241Y14288533D01*
X1735848Y14373603D01*
X1751769Y14377869D01*
X2011336Y14429500D01*
X2027676Y14431651D01*
X2280372Y14448214D01*
X2284483Y14448349D01*
X2300000Y14444191D01*
X2313249Y14447741D01*
X2316022Y14448484D01*
X2318533Y14448484D01*
X2324954Y14449761D01*
X2383311Y14457444D01*
X2391499Y14458522D01*
X2399126Y14461681D01*
X2399129Y14461682D01*
X2434130Y14476180D01*
X2476762Y14493839D01*
X2549979Y14550021D01*
X2560500Y14563732D01*
X2601133Y14616685D01*
X2601134Y14616687D01*
X2606161Y14623238D01*
X2641478Y14708501D01*
X2650239Y14775047D01*
X2651516Y14781468D01*
X2651516Y14783978D01*
X2655809Y14800000D01*
X2651516Y14816022D01*
X2651516Y14828685D01*
X2650500Y14836402D01*
X2650500Y15546648D01*
X7146571Y15546648D01*
X7154730Y15484254D01*
X7159841Y15472672D01*
X7168560Y15477770D01*
X7227978Y15537188D01*
X7235592Y15551132D01*
X7235461Y15552965D01*
X7231210Y15559580D01*
X7170321Y15620469D01*
X7158813Y15626753D01*
X7155131Y15618010D01*
X7146788Y15564427D01*
X7146571Y15546648D01*
X2650500Y15546648D01*
X2650500Y15991301D01*
X7520850Y15991301D01*
X7521148Y15989117D01*
X7523483Y15985727D01*
X7587188Y15922022D01*
X7601132Y15914408D01*
X7602965Y15914539D01*
X7609580Y15918790D01*
X7672264Y15981474D01*
X7679024Y15993854D01*
X7677460Y15995943D01*
X7675006Y15997179D01*
X7658223Y15999688D01*
X7547278Y16000366D01*
X7531836Y15998250D01*
X7520850Y15991301D01*
X2650500Y15991301D01*
X2650500Y17037232D01*
X7377654Y17037232D01*
X7411331Y16961413D01*
X7424289Y16942558D01*
X7482963Y16883987D01*
X7501833Y16871066D01*
X7519432Y16863285D01*
X7533412Y16861448D01*
X7536000Y16865584D01*
X7536000Y17027885D01*
X7531525Y17043124D01*
X7530135Y17044329D01*
X7522452Y17046000D01*
X7391874Y17046000D01*
X7378343Y17042027D01*
X7377654Y17037232D01*
X2650500Y17037232D01*
X2650500Y17556587D01*
X7379344Y17556587D01*
X7383479Y17554000D01*
X7517885Y17554000D01*
X7533124Y17558475D01*
X7534329Y17559865D01*
X7536000Y17567548D01*
X7536000Y17725917D01*
X7532027Y17739448D01*
X7527232Y17740137D01*
X7501409Y17728667D01*
X7482560Y17715713D01*
X7423986Y17657037D01*
X7411065Y17638165D01*
X7381182Y17570571D01*
X7379344Y17556587D01*
X2650500Y17556587D01*
X2650500Y21263598D01*
X2651516Y21271315D01*
X2651516Y21283978D01*
X2655809Y21300000D01*
X2652170Y21313583D01*
X2652308Y21316043D01*
X2665195Y21430420D01*
X2671474Y21457928D01*
X2710132Y21568407D01*
X2722369Y21593820D01*
X2784651Y21692943D01*
X2802241Y21714998D01*
X2885002Y21797759D01*
X2907057Y21815349D01*
X3006180Y21877631D01*
X3031593Y21889868D01*
X3142072Y21928526D01*
X3169580Y21934805D01*
X3283957Y21947692D01*
X3286417Y21947830D01*
X3300000Y21944191D01*
X3316022Y21948484D01*
X3328685Y21948484D01*
X3336402Y21949500D01*
X9353215Y21949500D01*
X9421336Y21929498D01*
X9467829Y21875842D01*
X9478127Y21840023D01*
X9483718Y21797759D01*
X9488453Y21761960D01*
X9489337Y21758448D01*
X9489338Y21758444D01*
X9524785Y21617661D01*
X9568885Y21442508D01*
X9570169Y21439115D01*
X9570171Y21439109D01*
X9684200Y21137806D01*
X9684203Y21137798D01*
X9685485Y21134412D01*
X9687150Y21131190D01*
X9823419Y20867474D01*
X9836710Y20841752D01*
X10020557Y20568404D01*
X10022908Y20565654D01*
X10022909Y20565652D01*
X10075532Y20504085D01*
X10234592Y20317988D01*
X10237244Y20315525D01*
X10237249Y20315520D01*
X10350935Y20209944D01*
X10475978Y20093820D01*
X10741521Y19898869D01*
X10906658Y19804725D01*
X11024553Y19737513D01*
X11024558Y19737510D01*
X11027704Y19735717D01*
X11330735Y19606525D01*
X11460199Y19568193D01*
X11643126Y19514031D01*
X11643134Y19514029D01*
X11646603Y19513002D01*
X11971124Y19456389D01*
X12300000Y19437434D01*
X12628876Y19456389D01*
X12953397Y19513002D01*
X12956866Y19514029D01*
X12956874Y19514031D01*
X13139801Y19568193D01*
X13269265Y19606525D01*
X13572296Y19735717D01*
X13575442Y19737510D01*
X13575447Y19737513D01*
X13693342Y19804725D01*
X13858479Y19898869D01*
X14124022Y20093820D01*
X14242669Y20204004D01*
X26095814Y20204004D01*
X26105523Y19994233D01*
X26106927Y19988408D01*
X26106927Y19988407D01*
X26142525Y19840701D01*
X26154724Y19790082D01*
X26157206Y19784624D01*
X26157207Y19784620D01*
X26199286Y19692072D01*
X26241640Y19598919D01*
X26363137Y19427640D01*
X26514831Y19282425D01*
X26519866Y19279174D01*
X26686209Y19171767D01*
X26686212Y19171766D01*
X26691246Y19168515D01*
X26696809Y19166273D01*
X26880455Y19092261D01*
X26880458Y19092260D01*
X26886019Y19090019D01*
X26891900Y19088871D01*
X26891905Y19088869D01*
X27087676Y19050638D01*
X27087679Y19050638D01*
X27092122Y19049770D01*
X27097643Y19049500D01*
X28652469Y19049500D01*
X28809046Y19064439D01*
X28814802Y19066128D01*
X28814804Y19066128D01*
X28903883Y19092261D01*
X29010549Y19123553D01*
X29136513Y19188429D01*
X29191908Y19216959D01*
X29191911Y19216961D01*
X29197239Y19219705D01*
X29254674Y19264821D01*
X29357662Y19345718D01*
X29357667Y19345722D01*
X29362379Y19349424D01*
X29382780Y19372934D01*
X29496079Y19503498D01*
X29496083Y19503503D01*
X29500010Y19508029D01*
X29605166Y19689799D01*
X29663168Y19856829D01*
X29672086Y19882509D01*
X29672086Y19882511D01*
X29674053Y19888174D01*
X29689431Y19994233D01*
X29703325Y20090056D01*
X29703325Y20090059D01*
X29704186Y20095996D01*
X29694477Y20305767D01*
X29645276Y20509918D01*
X29619936Y20565652D01*
X29560840Y20695626D01*
X29558360Y20701081D01*
X29458575Y20841752D01*
X29440329Y20867474D01*
X29440328Y20867475D01*
X29436863Y20872360D01*
X29285169Y21017575D01*
X29188033Y21080295D01*
X29113791Y21128233D01*
X29113788Y21128234D01*
X29108754Y21131485D01*
X29093070Y21137806D01*
X28919545Y21207739D01*
X28919542Y21207740D01*
X28913981Y21209981D01*
X28908100Y21211129D01*
X28908095Y21211131D01*
X28712324Y21249362D01*
X28712321Y21249362D01*
X28707878Y21250230D01*
X28702357Y21250500D01*
X27147531Y21250500D01*
X26990954Y21235561D01*
X26985198Y21233872D01*
X26985196Y21233872D01*
X26907679Y21211131D01*
X26789451Y21176447D01*
X26697560Y21129120D01*
X26608092Y21083041D01*
X26608089Y21083039D01*
X26602761Y21080295D01*
X26598046Y21076591D01*
X26442338Y20954282D01*
X26442333Y20954278D01*
X26437621Y20950576D01*
X26433690Y20946046D01*
X26433689Y20946045D01*
X26303921Y20796502D01*
X26303917Y20796497D01*
X26299990Y20791971D01*
X26194834Y20610201D01*
X26192866Y20604533D01*
X26149389Y20479331D01*
X26125947Y20411826D01*
X26125086Y20405891D01*
X26125086Y20405889D01*
X26109701Y20299777D01*
X26095814Y20204004D01*
X14242669Y20204004D01*
X14249065Y20209944D01*
X14362751Y20315520D01*
X14362756Y20315525D01*
X14365408Y20317988D01*
X14524469Y20504085D01*
X14577091Y20565652D01*
X14577092Y20565654D01*
X14579443Y20568404D01*
X14763290Y20841752D01*
X14776582Y20867474D01*
X14912850Y21131190D01*
X14914515Y21134412D01*
X14915797Y21137798D01*
X14915800Y21137806D01*
X15029829Y21439109D01*
X15029831Y21439115D01*
X15031115Y21442508D01*
X15075215Y21617661D01*
X15110662Y21758444D01*
X15110663Y21758448D01*
X15111547Y21761960D01*
X15116283Y21797759D01*
X15121873Y21840023D01*
X15150635Y21904933D01*
X15209925Y21943988D01*
X15246785Y21949500D01*
X29763598Y21949500D01*
X29771315Y21948484D01*
X29783978Y21948484D01*
X29800000Y21944191D01*
X29816022Y21948484D01*
X29818532Y21948484D01*
X29824953Y21949761D01*
X29891499Y21958522D01*
X29899126Y21961681D01*
X29899129Y21961682D01*
X29934130Y21976180D01*
X29976762Y21993839D01*
X30025070Y22030907D01*
X30043429Y22044995D01*
X30049979Y22050021D01*
X30106161Y22123238D01*
X30130535Y22182082D01*
X30138318Y22200871D01*
X30138319Y22200874D01*
X30141478Y22208501D01*
X30150239Y22275047D01*
X30151516Y22281468D01*
X30151516Y22283978D01*
X30155809Y22300000D01*
X30944341Y22300000D01*
X30964937Y22064592D01*
X30966361Y22059278D01*
X30966361Y22059277D01*
X31015034Y21877627D01*
X31026097Y21836337D01*
X31028419Y21831357D01*
X31028420Y21831355D01*
X31082679Y21714998D01*
X31125965Y21622171D01*
X31261505Y21428599D01*
X31428599Y21261505D01*
X31622171Y21125965D01*
X31627149Y21123644D01*
X31627152Y21123642D01*
X31728053Y21076591D01*
X31836337Y21026097D01*
X31841645Y21024675D01*
X31841647Y21024674D01*
X31883611Y21013430D01*
X32064592Y20964937D01*
X32167682Y20955918D01*
X32238310Y20949738D01*
X32238317Y20949738D01*
X32241034Y20949500D01*
X32358966Y20949500D01*
X32361683Y20949738D01*
X32361690Y20949738D01*
X32432318Y20955918D01*
X32535408Y20964937D01*
X32716389Y21013430D01*
X32758353Y21024674D01*
X32758355Y21024675D01*
X32763663Y21026097D01*
X32871947Y21076591D01*
X32972848Y21123642D01*
X32972851Y21123644D01*
X32977829Y21125965D01*
X33171401Y21261505D01*
X33338495Y21428599D01*
X33341655Y21433111D01*
X33470878Y21617661D01*
X33470881Y21617666D01*
X33474035Y21622170D01*
X33476358Y21627152D01*
X33476361Y21627157D01*
X33571580Y21831355D01*
X33571581Y21831356D01*
X33573903Y21836337D01*
X33584967Y21877627D01*
X33633639Y22059277D01*
X33633639Y22059278D01*
X33635063Y22064592D01*
X33655659Y22300000D01*
X33635063Y22535408D01*
X33620793Y22588664D01*
X33575326Y22758353D01*
X33575325Y22758355D01*
X33573903Y22763663D01*
X33534468Y22848231D01*
X33476358Y22972848D01*
X33476356Y22972851D01*
X33474035Y22977829D01*
X33338495Y23171401D01*
X33171401Y23338495D01*
X32977829Y23474035D01*
X32972851Y23476356D01*
X32972848Y23476358D01*
X32768645Y23571580D01*
X32768643Y23571581D01*
X32763663Y23573903D01*
X32758355Y23575325D01*
X32758353Y23575326D01*
X32540723Y23633639D01*
X32540722Y23633639D01*
X32535408Y23635063D01*
X32432318Y23644082D01*
X32361690Y23650262D01*
X32361683Y23650262D01*
X32358966Y23650500D01*
X32241034Y23650500D01*
X32238317Y23650262D01*
X32238310Y23650262D01*
X32167682Y23644082D01*
X32064592Y23635063D01*
X32059278Y23633639D01*
X32059277Y23633639D01*
X31841647Y23575326D01*
X31841645Y23575325D01*
X31836337Y23573903D01*
X31831357Y23571581D01*
X31831355Y23571580D01*
X31627152Y23476358D01*
X31627149Y23476356D01*
X31622171Y23474035D01*
X31428599Y23338495D01*
X31261505Y23171401D01*
X31258348Y23166893D01*
X31258346Y23166890D01*
X31129122Y22982339D01*
X31125965Y22977830D01*
X31123642Y22972848D01*
X31123639Y22972843D01*
X31083850Y22887515D01*
X31026097Y22763663D01*
X31024675Y22758355D01*
X31024674Y22758353D01*
X30979207Y22588664D01*
X30964937Y22535408D01*
X30944341Y22300000D01*
X30155809Y22300000D01*
X30151651Y22315517D01*
X30151786Y22319628D01*
X30168349Y22572324D01*
X30170500Y22588664D01*
X30222131Y22848231D01*
X30226397Y22864152D01*
X30311467Y23114759D01*
X30317774Y23129985D01*
X30434825Y23367342D01*
X30443066Y23381616D01*
X30590097Y23601663D01*
X30600130Y23614739D01*
X30774629Y23813717D01*
X30786283Y23825371D01*
X30985261Y23999870D01*
X30998337Y24009903D01*
X31218384Y24156934D01*
X31232658Y24165175D01*
X31470015Y24282226D01*
X31485241Y24288533D01*
X31735848Y24373603D01*
X31751769Y24377869D01*
X32011336Y24429500D01*
X32027676Y24431651D01*
X32185383Y24441988D01*
X32291761Y24448960D01*
X32308239Y24448960D01*
X32414617Y24441988D01*
G37*
%TD.AperFunction*%
%TD*%
M02*
