M48
; DRILL file {KiCad (6.0.7-1)-1} date 2022年09月13日 星期二 18:31:53
; FORMAT={-:-/ absolute / metric / decimal}
; #@! TF.CreationDate,2022-09-13T18:31:53+08:00
; #@! TF.GenerationSoftware,Kicad,Pcbnew,(6.0.7-1)-1
; #@! TF.FileFunction,Plated,1,2,PTH
FMAT,2
METRIC
; #@! TA.AperFunction,Plated,PTH,ViaDrill
T1C0.300
; #@! TA.AperFunction,Plated,PTH,ComponentDrill
T2C0.400
; #@! TA.AperFunction,Plated,PTH,ComponentDrill
T3C0.600
; #@! TA.AperFunction,Plated,PTH,ComponentDrill
T4C0.800
; #@! TA.AperFunction,Plated,PTH,ComponentDrill
T5C0.900
; #@! TA.AperFunction,Plated,PTH,ComponentDrill
T6C0.920
%
G90
G05
T1
X3.3Y17.3
X3.3Y14.8
X3.3Y9.8
X3.3Y7.3
X5.8Y17.8
X5.8Y6.8
X6.8Y17.8
X6.8Y6.8
X12.8Y17.3
X12.8Y16.3
X12.8Y8.3
X12.8Y7.3
X13.8Y17.3
X13.8Y16.3
X13.8Y8.3
X13.8Y7.3
X17.3Y21.3
X17.3Y3.3
X19.8Y21.3
X19.8Y3.3
X22.3Y21.3
X22.3Y3.3
X24.8Y21.3
X24.8Y3.3
T2
X7.6Y15.55
X7.6Y14.6
X7.6Y12.75
X7.6Y11.85
X7.6Y10.95
X7.6Y10.0
X7.6Y9.05
X9.0Y15.55
X9.0Y14.6
X9.0Y13.65
X9.0Y12.75
X9.0Y11.85
X9.0Y10.0
X9.0Y9.05
T4
X17.3Y15.0
X17.3Y9.6
X19.8Y15.0
X19.8Y9.6
X22.3Y15.0
X22.3Y9.6
T6
X27.05Y15.8
X27.05Y13.3
X27.05Y11.3
X27.05Y8.8
T3
G00X6.37Y13.85
M15
G01X6.37Y14.75
M16
G05
G00X6.37Y9.85
M15
G01X6.37Y10.75
M16
G05
G00X10.23Y13.85
M15
G01X10.23Y14.75
M16
G05
G00X10.23Y9.85
M15
G01X10.23Y10.75
M16
G05
T5
G00X28.6Y20.15
M15
G01X27.2Y20.15
M16
G05
G00X28.6Y4.45
M15
G01X27.2Y4.45
M16
G05
T0
M30
