%TF.GenerationSoftware,KiCad,Pcbnew,6.0.7+dfsg-1~bpo11+1*%
%TF.CreationDate,2022-09-24T06:18:19+00:00*%
%TF.ProjectId,0102-USB-SWITCH,30313032-2d55-4534-922d-535749544348,V1.2*%
%TF.SameCoordinates,Original*%
%TF.FileFunction,Copper,L2,Bot*%
%TF.FilePolarity,Positive*%
%FSLAX46Y46*%
G04 Gerber Fmt 4.6, Leading zero omitted, Abs format (unit mm)*
G04 Created by KiCad (PCBNEW 6.0.7+dfsg-1~bpo11+1) date 2022-09-24 06:18:19*
%MOMM*%
%LPD*%
G01*
G04 APERTURE LIST*
G04 Aperture macros list*
%AMRoundRect*
0 Rectangle with rounded corners*
0 $1 Rounding radius*
0 $2 $3 $4 $5 $6 $7 $8 $9 X,Y pos of 4 corners*
0 Add a 4 corners polygon primitive as box body*
4,1,4,$2,$3,$4,$5,$6,$7,$8,$9,$2,$3,0*
0 Add four circle primitives for the rounded corners*
1,1,$1+$1,$2,$3*
1,1,$1+$1,$4,$5*
1,1,$1+$1,$6,$7*
1,1,$1+$1,$8,$9*
0 Add four rect primitives between the rounded corners*
20,1,$1+$1,$2,$3,$4,$5,0*
20,1,$1+$1,$4,$5,$6,$7,0*
20,1,$1+$1,$6,$7,$8,$9,0*
20,1,$1+$1,$8,$9,$2,$3,0*%
G04 Aperture macros list end*
%TA.AperFunction,ComponentPad*%
%ADD10R,1.300000X1.300000*%
%TD*%
%TA.AperFunction,ComponentPad*%
%ADD11C,1.400000*%
%TD*%
%TA.AperFunction,ComponentPad*%
%ADD12C,1.420000*%
%TD*%
%TA.AperFunction,ComponentPad*%
%ADD13O,3.300000X1.900000*%
%TD*%
%TA.AperFunction,ComponentPad*%
%ADD14RoundRect,0.350000X-0.650000X0.350000X-0.650000X-0.350000X0.650000X-0.350000X0.650000X0.350000X0*%
%TD*%
%TA.AperFunction,ComponentPad*%
%ADD15RoundRect,0.350000X-0.700000X0.350000X-0.700000X-0.350000X0.700000X-0.350000X0.700000X0.350000X0*%
%TD*%
%TA.AperFunction,ViaPad*%
%ADD16C,0.500000*%
%TD*%
%TA.AperFunction,ViaPad*%
%ADD17C,1.000000*%
%TD*%
%TA.AperFunction,Conductor*%
%ADD18C,1.000000*%
%TD*%
G04 APERTURE END LIST*
D10*
%TO.P,SW1,1,A*%
%TO.N,unconnected-(SW1-Pad1)*%
X13800000Y7100000D03*
D11*
%TO.P,SW1,2,B*%
%TO.N,/VIN*%
X16300000Y7100000D03*
%TO.P,SW1,3,C*%
%TO.N,/VOUT*%
X18800000Y7100000D03*
%TO.P,SW1,4,A*%
%TO.N,unconnected-(SW1-Pad4)*%
X13800000Y12500000D03*
%TO.P,SW1,5,B*%
%TO.N,unconnected-(SW1-Pad5)*%
X16300000Y12500000D03*
%TO.P,SW1,6,C*%
%TO.N,unconnected-(SW1-Pad6)*%
X18800000Y12500000D03*
%TD*%
D12*
%TO.P,J2,1,VBUS*%
%TO.N,/VOUT*%
X24550000Y13300000D03*
%TO.P,J2,2,D-*%
%TO.N,/D-*%
X24550000Y10800000D03*
%TO.P,J2,3,D+*%
%TO.N,/D+*%
X24550000Y8800000D03*
%TO.P,J2,4,GND*%
%TO.N,GND*%
X24550000Y6300000D03*
D13*
%TO.P,J2,5,Shield*%
X25400000Y17650000D03*
X25400000Y1950000D03*
%TD*%
D14*
%TO.P,J1,S1,SHIELD*%
%TO.N,GND*%
X2940000Y14325000D03*
D15*
X6920000Y14325000D03*
X6920000Y5275000D03*
D14*
X2940000Y5275000D03*
%TD*%
D16*
%TO.N,GND*%
X9800000Y5300000D03*
X9800000Y4300000D03*
X9800000Y14300000D03*
X9800000Y15300000D03*
X800000Y9800000D03*
X21800000Y15800000D03*
X10800000Y15300000D03*
X10800000Y5300000D03*
X17300000Y800000D03*
X12300000Y18800000D03*
X13800000Y4800000D03*
X14800000Y800000D03*
X22800000Y3800000D03*
X7300000Y800000D03*
X21800000Y3800000D03*
X18300000Y3300000D03*
X800000Y7300000D03*
X14800000Y18800000D03*
X19800000Y18800000D03*
X21800000Y14800000D03*
X800000Y12300000D03*
X7300000Y18800000D03*
X10800000Y14300000D03*
X800000Y14800000D03*
X19800000Y800000D03*
X22300000Y18800000D03*
X17300000Y18800000D03*
X22300000Y800000D03*
X12300000Y800000D03*
X10800000Y4300000D03*
X22800000Y4800000D03*
X21800000Y4800000D03*
X800000Y4800000D03*
X22800000Y14800000D03*
X22800000Y15800000D03*
D17*
%TO.N,/VIN*%
X9800000Y12200000D03*
X9800000Y6550000D03*
%TD*%
D18*
%TO.N,/VIN*%
X15300000Y9800000D02*
X9800000Y9800000D01*
X16300000Y7100000D02*
X16300000Y8800000D01*
X16300000Y8800000D02*
X15300000Y9800000D01*
X9800000Y12200000D02*
X9800000Y9800000D01*
X9800000Y6550000D02*
X9800000Y9800000D01*
%TO.N,/VOUT*%
X18800000Y8800000D02*
X23300000Y13300000D01*
X18800000Y7100000D02*
X18800000Y8800000D01*
X23300000Y13300000D02*
X24550000Y13300000D01*
%TD*%
%TA.AperFunction,Conductor*%
%TO.N,GND*%
G36*
X8553332Y19429498D02*
G01*
X8599825Y19375842D01*
X8601115Y19372667D01*
X8601476Y19371320D01*
X8687324Y19181795D01*
X8690190Y19177505D01*
X8746090Y19093828D01*
X8802901Y19008786D01*
X8945119Y18856918D01*
X9110178Y18730247D01*
X9293668Y18632159D01*
X9298545Y18630503D01*
X9298548Y18630502D01*
X9439592Y18582619D01*
X9490686Y18565273D01*
X9695969Y18531377D01*
X9904031Y18531377D01*
X10109314Y18565273D01*
X10160408Y18582619D01*
X10301452Y18630502D01*
X10301455Y18630503D01*
X10306332Y18632159D01*
X10489822Y18730247D01*
X10654881Y18856918D01*
X10797099Y19008786D01*
X10853911Y19093828D01*
X10909810Y19177505D01*
X10912676Y19181795D01*
X10963341Y19293646D01*
X10998524Y19371320D01*
X10999686Y19370793D01*
X11037922Y19423337D01*
X11104100Y19449046D01*
X11114789Y19449500D01*
X28485211Y19449500D01*
X28553332Y19429498D01*
X28599825Y19375842D01*
X28601115Y19372667D01*
X28601476Y19371320D01*
X28687324Y19181795D01*
X28690190Y19177505D01*
X28746090Y19093828D01*
X28802901Y19008786D01*
X28945119Y18856918D01*
X29110178Y18730247D01*
X29293668Y18632159D01*
X29298545Y18630503D01*
X29298548Y18630502D01*
X29439592Y18582619D01*
X29490686Y18565273D01*
X29695969Y18531377D01*
X29904031Y18531377D01*
X30109314Y18565273D01*
X30160408Y18582619D01*
X30301452Y18630502D01*
X30301455Y18630503D01*
X30306332Y18632159D01*
X30489822Y18730247D01*
X30654881Y18856918D01*
X30797099Y19008786D01*
X30853911Y19093828D01*
X30909810Y19177505D01*
X30912676Y19181795D01*
X30963341Y19293646D01*
X30998524Y19371320D01*
X30999686Y19370793D01*
X31037922Y19423337D01*
X31104100Y19449046D01*
X31114789Y19449500D01*
X36263598Y19449500D01*
X36271315Y19448484D01*
X36283978Y19448484D01*
X36300000Y19444191D01*
X36313583Y19447830D01*
X36316043Y19447692D01*
X36430420Y19434805D01*
X36457928Y19428526D01*
X36568407Y19389868D01*
X36593820Y19377631D01*
X36692943Y19315349D01*
X36714998Y19297759D01*
X36797759Y19214998D01*
X36815349Y19192943D01*
X36877631Y19093820D01*
X36889868Y19068407D01*
X36928526Y18957928D01*
X36934805Y18930420D01*
X36947692Y18816043D01*
X36947830Y18813583D01*
X36944191Y18800000D01*
X36948484Y18783978D01*
X36948484Y18771315D01*
X36949500Y18763598D01*
X36949500Y17386402D01*
X36948484Y17378685D01*
X36948484Y17366022D01*
X36944191Y17350000D01*
X36947830Y17336417D01*
X36947692Y17333957D01*
X36934805Y17219580D01*
X36928526Y17192072D01*
X36889868Y17081593D01*
X36877631Y17056180D01*
X36815349Y16957057D01*
X36797759Y16935002D01*
X36714998Y16852241D01*
X36692943Y16834651D01*
X36593820Y16772369D01*
X36568407Y16760132D01*
X36457928Y16721474D01*
X36430420Y16715195D01*
X36316043Y16702308D01*
X36313583Y16702170D01*
X36300000Y16705809D01*
X36283978Y16701516D01*
X36271315Y16701516D01*
X36263598Y16700500D01*
X27436402Y16700500D01*
X27428685Y16701516D01*
X27416022Y16701516D01*
X27400000Y16705809D01*
X27391360Y16703494D01*
X27375941Y16701622D01*
X27375940Y16701622D01*
X27274855Y16689348D01*
X27274852Y16689347D01*
X27267289Y16688429D01*
X27142291Y16641023D01*
X27032270Y16565081D01*
X26943620Y16465016D01*
X26940077Y16458265D01*
X26940076Y16458264D01*
X26885033Y16353390D01*
X26885031Y16353386D01*
X26881493Y16346644D01*
X26879671Y16339251D01*
X26879670Y16339249D01*
X26863773Y16274750D01*
X26849500Y16216843D01*
X26849500Y16083157D01*
X26851322Y16075767D01*
X26851322Y16075763D01*
X26879670Y15960751D01*
X26881493Y15953356D01*
X26885031Y15946614D01*
X26885033Y15946610D01*
X26908128Y15902607D01*
X26943620Y15834984D01*
X27032270Y15734919D01*
X27142291Y15658977D01*
X27168182Y15649158D01*
X27224780Y15606302D01*
X27249226Y15539647D01*
X27249500Y15531347D01*
X27249500Y4068653D01*
X27229498Y4000532D01*
X27175842Y3954039D01*
X27168206Y3950851D01*
X27142291Y3941023D01*
X27032270Y3865081D01*
X26943620Y3765016D01*
X26940077Y3758265D01*
X26940076Y3758264D01*
X26885033Y3653390D01*
X26885031Y3653386D01*
X26881493Y3646644D01*
X26879671Y3639251D01*
X26879670Y3639249D01*
X26863773Y3574750D01*
X26849500Y3516843D01*
X26849500Y3383157D01*
X26851322Y3375767D01*
X26851322Y3375763D01*
X26879670Y3260751D01*
X26881493Y3253356D01*
X26885031Y3246614D01*
X26885033Y3246610D01*
X26940076Y3141736D01*
X26943620Y3134984D01*
X27032270Y3034919D01*
X27142291Y2958977D01*
X27267289Y2911571D01*
X27274852Y2910653D01*
X27274855Y2910652D01*
X27375758Y2898400D01*
X27375760Y2898400D01*
X27391360Y2896506D01*
X27400000Y2894191D01*
X27416022Y2898484D01*
X27428685Y2898484D01*
X27436402Y2899500D01*
X36263598Y2899500D01*
X36271315Y2898484D01*
X36283978Y2898484D01*
X36300000Y2894191D01*
X36313583Y2897830D01*
X36316043Y2897692D01*
X36430420Y2884805D01*
X36457928Y2878526D01*
X36568407Y2839868D01*
X36593820Y2827631D01*
X36692943Y2765349D01*
X36714998Y2747759D01*
X36797759Y2664998D01*
X36815349Y2642943D01*
X36877631Y2543820D01*
X36889868Y2518407D01*
X36928526Y2407928D01*
X36934805Y2380420D01*
X36947692Y2266043D01*
X36947830Y2263583D01*
X36944191Y2250000D01*
X36948484Y2233978D01*
X36948484Y2221315D01*
X36949500Y2213598D01*
X36949500Y836402D01*
X36948484Y828685D01*
X36948484Y816022D01*
X36944191Y800000D01*
X36947830Y786417D01*
X36947692Y783957D01*
X36934805Y669580D01*
X36928526Y642072D01*
X36889868Y531593D01*
X36877631Y506180D01*
X36815349Y407057D01*
X36797759Y385002D01*
X36714998Y302241D01*
X36692943Y284651D01*
X36593820Y222369D01*
X36568407Y210132D01*
X36457928Y171474D01*
X36430420Y165195D01*
X36316043Y152308D01*
X36313583Y152170D01*
X36300000Y155809D01*
X36283978Y151516D01*
X36271315Y151516D01*
X36263598Y150500D01*
X31114789Y150500D01*
X31046668Y170502D01*
X31000175Y224158D01*
X30998885Y227333D01*
X30998524Y228680D01*
X30912676Y418205D01*
X30888477Y454429D01*
X30799964Y586926D01*
X30799961Y586930D01*
X30797099Y591214D01*
X30654881Y743082D01*
X30489822Y869753D01*
X30306332Y967841D01*
X30301455Y969497D01*
X30301452Y969498D01*
X30114198Y1033069D01*
X30114197Y1033069D01*
X30109314Y1034727D01*
X29904031Y1068623D01*
X29695969Y1068623D01*
X29490686Y1034727D01*
X29485803Y1033069D01*
X29485802Y1033069D01*
X29298548Y969498D01*
X29298545Y969497D01*
X29293668Y967841D01*
X29110178Y869753D01*
X28945119Y743082D01*
X28802901Y591214D01*
X28800039Y586930D01*
X28800036Y586926D01*
X28711523Y454429D01*
X28687324Y418205D01*
X28685195Y413505D01*
X28685194Y413503D01*
X28634796Y302241D01*
X28601476Y228680D01*
X28600314Y229207D01*
X28562078Y176663D01*
X28495900Y150954D01*
X28485211Y150500D01*
X11114789Y150500D01*
X11046668Y170502D01*
X11000175Y224158D01*
X10998885Y227333D01*
X10998524Y228680D01*
X10912676Y418205D01*
X10888477Y454429D01*
X10799964Y586926D01*
X10799961Y586930D01*
X10797099Y591214D01*
X10654881Y743082D01*
X10489822Y869753D01*
X10306332Y967841D01*
X10301455Y969497D01*
X10301452Y969498D01*
X10114198Y1033069D01*
X10114197Y1033069D01*
X10109314Y1034727D01*
X9904031Y1068623D01*
X9695969Y1068623D01*
X9490686Y1034727D01*
X9485803Y1033069D01*
X9485802Y1033069D01*
X9298548Y969498D01*
X9298545Y969497D01*
X9293668Y967841D01*
X9110178Y869753D01*
X8945119Y743082D01*
X8802901Y591214D01*
X8800039Y586930D01*
X8800036Y586926D01*
X8711523Y454429D01*
X8687324Y418205D01*
X8685195Y413505D01*
X8685194Y413503D01*
X8634796Y302241D01*
X8601476Y228680D01*
X8600314Y229207D01*
X8562078Y176663D01*
X8495900Y150954D01*
X8485211Y150500D01*
X836402Y150500D01*
X828685Y151516D01*
X816022Y151516D01*
X800000Y155809D01*
X786417Y152170D01*
X783957Y152308D01*
X669580Y165195D01*
X642072Y171474D01*
X531593Y210132D01*
X506180Y222369D01*
X407057Y284651D01*
X385002Y302241D01*
X302241Y385002D01*
X284651Y407057D01*
X222369Y506180D01*
X210132Y531593D01*
X171474Y642072D01*
X165195Y669580D01*
X152308Y783957D01*
X152170Y786417D01*
X155809Y800000D01*
X151516Y816022D01*
X151516Y828685D01*
X150500Y836402D01*
X150500Y1682601D01*
X23632940Y1682601D01*
X23653794Y1596072D01*
X23657677Y1584793D01*
X23739597Y1404622D01*
X23745543Y1394282D01*
X23860051Y1232854D01*
X23867844Y1223826D01*
X24010812Y1086964D01*
X24020177Y1079568D01*
X24186440Y972213D01*
X24197043Y966717D01*
X24380596Y892743D01*
X24392051Y889350D01*
X24587722Y851139D01*
X24596557Y850065D01*
X24599242Y850000D01*
X25127885Y850000D01*
X25143124Y854475D01*
X25144329Y855865D01*
X25146000Y863548D01*
X25146000Y868115D01*
X25654000Y868115D01*
X25658475Y852876D01*
X25659865Y851671D01*
X25667548Y850000D01*
X26149454Y850000D01*
X26155430Y850285D01*
X26302974Y864362D01*
X26314709Y866621D01*
X26504615Y922333D01*
X26515691Y926763D01*
X26691637Y1017381D01*
X26701683Y1023831D01*
X26857314Y1146081D01*
X26865967Y1154321D01*
X26995670Y1303791D01*
X27002604Y1313511D01*
X27101704Y1484812D01*
X27106678Y1495676D01*
X27171482Y1682292D01*
X27170097Y1692009D01*
X27156532Y1696000D01*
X25672115Y1696000D01*
X25656876Y1691525D01*
X25655671Y1690135D01*
X25654000Y1682452D01*
X25654000Y868115D01*
X25146000Y868115D01*
X25146000Y1677885D01*
X25141525Y1693124D01*
X25140135Y1694329D01*
X25132452Y1696000D01*
X23647826Y1696000D01*
X23634295Y1692027D01*
X23632940Y1682601D01*
X150500Y1682601D01*
X150500Y2217708D01*
X23628518Y2217708D01*
X23629903Y2207991D01*
X23643468Y2204000D01*
X25127885Y2204000D01*
X25143124Y2208475D01*
X25144329Y2209865D01*
X25146000Y2217548D01*
X25146000Y2222115D01*
X25654000Y2222115D01*
X25658475Y2206876D01*
X25659865Y2205671D01*
X25667548Y2204000D01*
X27152174Y2204000D01*
X27165705Y2207973D01*
X27167060Y2217399D01*
X27146206Y2303928D01*
X27142323Y2315207D01*
X27060403Y2495378D01*
X27054457Y2505718D01*
X26939949Y2667146D01*
X26932156Y2676174D01*
X26789188Y2813036D01*
X26779823Y2820432D01*
X26613560Y2927787D01*
X26602957Y2933283D01*
X26419404Y3007257D01*
X26407949Y3010650D01*
X26212278Y3048861D01*
X26203443Y3049935D01*
X26200758Y3050000D01*
X25672115Y3050000D01*
X25656876Y3045525D01*
X25655671Y3044135D01*
X25654000Y3036452D01*
X25654000Y2222115D01*
X25146000Y2222115D01*
X25146000Y3031885D01*
X25141525Y3047124D01*
X25140135Y3048329D01*
X25132452Y3050000D01*
X24650546Y3050000D01*
X24644570Y3049715D01*
X24497026Y3035638D01*
X24485291Y3033379D01*
X24295385Y2977667D01*
X24284309Y2973237D01*
X24108363Y2882619D01*
X24098317Y2876169D01*
X23942686Y2753919D01*
X23934033Y2745679D01*
X23804330Y2596209D01*
X23797396Y2586489D01*
X23698296Y2415188D01*
X23693322Y2404324D01*
X23628518Y2217708D01*
X150500Y2217708D01*
X150500Y4881085D01*
X1790000Y4881085D01*
X1790369Y4874271D01*
X1795789Y4824379D01*
X1799414Y4809133D01*
X1843767Y4690823D01*
X1852299Y4675237D01*
X1927430Y4574991D01*
X1939991Y4562430D01*
X2040237Y4487299D01*
X2055823Y4478767D01*
X2174133Y4434414D01*
X2189379Y4430789D01*
X2239271Y4425369D01*
X2246085Y4425000D01*
X2667885Y4425000D01*
X2683124Y4429475D01*
X2684329Y4430865D01*
X2686000Y4438548D01*
X2686000Y4443115D01*
X3194000Y4443115D01*
X3198475Y4427876D01*
X3199865Y4426671D01*
X3207548Y4425000D01*
X3633915Y4425000D01*
X3640729Y4425369D01*
X3690621Y4430789D01*
X3705867Y4434414D01*
X3824177Y4478767D01*
X3839763Y4487299D01*
X3940009Y4562430D01*
X3952570Y4574991D01*
X4027701Y4675237D01*
X4036233Y4690823D01*
X4080586Y4809133D01*
X4084211Y4824379D01*
X4089631Y4874271D01*
X4090000Y4881085D01*
X5720000Y4881085D01*
X5720369Y4874271D01*
X5725789Y4824379D01*
X5729414Y4809133D01*
X5773767Y4690823D01*
X5782299Y4675237D01*
X5857430Y4574991D01*
X5869991Y4562430D01*
X5970237Y4487299D01*
X5985823Y4478767D01*
X6104133Y4434414D01*
X6119379Y4430789D01*
X6169271Y4425369D01*
X6176085Y4425000D01*
X6647885Y4425000D01*
X6663124Y4429475D01*
X6664329Y4430865D01*
X6666000Y4438548D01*
X6666000Y4443115D01*
X7174000Y4443115D01*
X7178475Y4427876D01*
X7179865Y4426671D01*
X7187548Y4425000D01*
X7663915Y4425000D01*
X7670729Y4425369D01*
X7720621Y4430789D01*
X7735867Y4434414D01*
X7854177Y4478767D01*
X7869763Y4487299D01*
X7970009Y4562430D01*
X7982570Y4574991D01*
X8057701Y4675237D01*
X8066233Y4690823D01*
X8110586Y4809133D01*
X8114211Y4824379D01*
X8119631Y4874271D01*
X8120000Y4881085D01*
X8120000Y5002885D01*
X8115525Y5018124D01*
X8114135Y5019329D01*
X8106452Y5021000D01*
X7192115Y5021000D01*
X7176876Y5016525D01*
X7175671Y5015135D01*
X7174000Y5007452D01*
X7174000Y4443115D01*
X6666000Y4443115D01*
X6666000Y5002885D01*
X6661525Y5018124D01*
X6660135Y5019329D01*
X6652452Y5021000D01*
X5738115Y5021000D01*
X5722876Y5016525D01*
X5721671Y5015135D01*
X5720000Y5007452D01*
X5720000Y4881085D01*
X4090000Y4881085D01*
X4090000Y5002885D01*
X4085525Y5018124D01*
X4084135Y5019329D01*
X4076452Y5021000D01*
X3212115Y5021000D01*
X3196876Y5016525D01*
X3195671Y5015135D01*
X3194000Y5007452D01*
X3194000Y4443115D01*
X2686000Y4443115D01*
X2686000Y5002885D01*
X2681525Y5018124D01*
X2680135Y5019329D01*
X2672452Y5021000D01*
X1808115Y5021000D01*
X1792876Y5016525D01*
X1791671Y5015135D01*
X1790000Y5007452D01*
X1790000Y4881085D01*
X150500Y4881085D01*
X150500Y5547115D01*
X1790000Y5547115D01*
X1794475Y5531876D01*
X1795865Y5530671D01*
X1803548Y5529000D01*
X2667885Y5529000D01*
X2683124Y5533475D01*
X2684329Y5534865D01*
X2686000Y5542548D01*
X2686000Y5547115D01*
X3194000Y5547115D01*
X3198475Y5531876D01*
X3199865Y5530671D01*
X3207548Y5529000D01*
X4071885Y5529000D01*
X4087124Y5533475D01*
X4088329Y5534865D01*
X4090000Y5542548D01*
X4090000Y5547115D01*
X5720000Y5547115D01*
X5724475Y5531876D01*
X5725865Y5530671D01*
X5733548Y5529000D01*
X6647885Y5529000D01*
X6663124Y5533475D01*
X6664329Y5534865D01*
X6666000Y5542548D01*
X6666000Y5547115D01*
X7174000Y5547115D01*
X7178475Y5531876D01*
X7179865Y5530671D01*
X7187548Y5529000D01*
X8101885Y5529000D01*
X8117124Y5533475D01*
X8118329Y5534865D01*
X8119097Y5538395D01*
X24153225Y5538395D01*
X24156736Y5533705D01*
X24276751Y5480271D01*
X24289239Y5476214D01*
X24453153Y5441372D01*
X24466213Y5440000D01*
X24633787Y5440000D01*
X24646847Y5441372D01*
X24810761Y5476214D01*
X24823249Y5480271D01*
X24936278Y5530595D01*
X24947022Y5539727D01*
X24945426Y5545364D01*
X24562812Y5927978D01*
X24548868Y5935592D01*
X24547035Y5935461D01*
X24540420Y5931210D01*
X24159985Y5550775D01*
X24153225Y5538395D01*
X8119097Y5538395D01*
X8120000Y5542548D01*
X8120000Y5668915D01*
X8119631Y5675729D01*
X8114211Y5725621D01*
X8110586Y5740867D01*
X8066233Y5859177D01*
X8057701Y5874763D01*
X7982570Y5975009D01*
X7970009Y5987570D01*
X7869763Y6062701D01*
X7854177Y6071233D01*
X7735867Y6115586D01*
X7720621Y6119211D01*
X7670729Y6124631D01*
X7663915Y6125000D01*
X7192115Y6125000D01*
X7176876Y6120525D01*
X7175671Y6119135D01*
X7174000Y6111452D01*
X7174000Y5547115D01*
X6666000Y5547115D01*
X6666000Y6106885D01*
X6661525Y6122124D01*
X6660135Y6123329D01*
X6639217Y6127879D01*
X6639653Y6129883D01*
X6588162Y6145002D01*
X6541669Y6198658D01*
X6531565Y6268932D01*
X6561059Y6333512D01*
X6608065Y6367409D01*
X6637429Y6379572D01*
X6680233Y6397302D01*
X6800451Y6489549D01*
X6852102Y6556862D01*
X9144758Y6556862D01*
X9147031Y6536277D01*
X9149046Y6518025D01*
X9149500Y6512783D01*
X9149500Y6509075D01*
X9149997Y6505144D01*
X9149997Y6505137D01*
X9153611Y6476529D01*
X9153840Y6474596D01*
X9162035Y6400367D01*
X9163619Y6396040D01*
X9163936Y6394803D01*
X9164929Y6386942D01*
X9167847Y6379572D01*
X9190986Y6321128D01*
X9192160Y6318046D01*
X9203642Y6286671D01*
X9216143Y6252510D01*
X9219866Y6246969D01*
X9221518Y6243309D01*
X9222515Y6241497D01*
X9225432Y6234129D01*
X9264882Y6179830D01*
X9267457Y6176147D01*
X9303958Y6121828D01*
X9309578Y6116714D01*
X9313461Y6112215D01*
X9315841Y6109212D01*
X9317377Y6107576D01*
X9322037Y6101163D01*
X9368530Y6062701D01*
X9370736Y6060876D01*
X9375220Y6056985D01*
X9420410Y6015865D01*
X9427086Y6012240D01*
X9433279Y6007839D01*
X9433149Y6007657D01*
X9438678Y6003920D01*
X9442568Y6001452D01*
X9448674Y5996400D01*
X9455848Y5993024D01*
X9455850Y5993023D01*
X9502271Y5971179D01*
X9508745Y5967902D01*
X9552102Y5944361D01*
X9552107Y5944359D01*
X9558776Y5940738D01*
X9566122Y5938811D01*
X9566248Y5938761D01*
X9587749Y5930956D01*
X9590212Y5929797D01*
X9590214Y5929796D01*
X9597387Y5926421D01*
X9651675Y5916065D01*
X9660029Y5914175D01*
X9711069Y5900785D01*
X9720725Y5900634D01*
X9722718Y5900602D01*
X9744349Y5898386D01*
X9751042Y5897109D01*
X9751048Y5897109D01*
X9758830Y5895624D01*
X9785558Y5897305D01*
X9809991Y5898842D01*
X9819878Y5899075D01*
X9860896Y5898431D01*
X9860899Y5898431D01*
X9868495Y5898312D01*
X9883860Y5901831D01*
X9904070Y5904762D01*
X9922860Y5905944D01*
X9967777Y5920538D01*
X9978582Y5923525D01*
X10014565Y5931766D01*
X10014568Y5931767D01*
X10021968Y5933462D01*
X10039719Y5942390D01*
X10057393Y5949656D01*
X10071631Y5954282D01*
X10071632Y5954282D01*
X10079171Y5956732D01*
X10115656Y5979886D01*
X10126542Y5986057D01*
X10155837Y6000791D01*
X10162625Y6004205D01*
X10168401Y6009138D01*
X10168404Y6009140D01*
X10180854Y6019773D01*
X10195170Y6030347D01*
X10211246Y6040549D01*
X10211250Y6040552D01*
X10217940Y6044798D01*
X10244740Y6073337D01*
X10254759Y6082894D01*
X10276571Y6101523D01*
X10276575Y6101528D01*
X10282348Y6106458D01*
X10298731Y6129258D01*
X10309202Y6141983D01*
X10325023Y6158830D01*
X10330448Y6164607D01*
X10347361Y6195371D01*
X10355442Y6208179D01*
X10374224Y6234317D01*
X10386229Y6264180D01*
X10392716Y6277871D01*
X10405807Y6301683D01*
X10405808Y6301685D01*
X10409627Y6308632D01*
X10417346Y6338694D01*
X10422478Y6354350D01*
X10430117Y6373353D01*
X10430118Y6373358D01*
X10432950Y6380402D01*
X10438062Y6416319D01*
X10440763Y6429897D01*
X10442119Y6435180D01*
X12999500Y6435180D01*
X13008233Y6391278D01*
X13015127Y6380960D01*
X13015128Y6380958D01*
X13026604Y6363783D01*
X13041496Y6341496D01*
X13051815Y6334601D01*
X13080958Y6315128D01*
X13080960Y6315127D01*
X13091278Y6308233D01*
X13135180Y6299500D01*
X14464820Y6299500D01*
X14508722Y6308233D01*
X14519040Y6315127D01*
X14519042Y6315128D01*
X14548185Y6334601D01*
X14558504Y6341496D01*
X14573396Y6363783D01*
X14584872Y6380958D01*
X14584873Y6380960D01*
X14591767Y6391278D01*
X14600500Y6435180D01*
X14600500Y7764820D01*
X14591767Y7808722D01*
X14584873Y7819040D01*
X14584872Y7819042D01*
X14565399Y7848185D01*
X14558504Y7858504D01*
X14548185Y7865399D01*
X14519042Y7884872D01*
X14519040Y7884873D01*
X14508722Y7891767D01*
X14464820Y7900500D01*
X13135180Y7900500D01*
X13091278Y7891767D01*
X13080960Y7884873D01*
X13080958Y7884872D01*
X13051815Y7865399D01*
X13041496Y7858504D01*
X13034601Y7848185D01*
X13015128Y7819042D01*
X13015127Y7819040D01*
X13008233Y7808722D01*
X12999500Y7764820D01*
X12999500Y6435180D01*
X10442119Y6435180D01*
X10448528Y6460142D01*
X10448528Y6460143D01*
X10450500Y6467823D01*
X10450500Y6494795D01*
X10451757Y6512548D01*
X10454553Y6532192D01*
X10454553Y6532198D01*
X10455134Y6536277D01*
X10455278Y6550000D01*
X10451413Y6581940D01*
X10450500Y6597075D01*
X10450500Y9023500D01*
X10470502Y9091621D01*
X10524158Y9138114D01*
X10576500Y9149500D01*
X14978364Y9149500D01*
X15046485Y9129498D01*
X15067459Y9112595D01*
X15612595Y8567459D01*
X15646621Y8505147D01*
X15649500Y8478364D01*
X15649500Y7696965D01*
X15629498Y7628844D01*
X15617136Y7612655D01*
X15608141Y7602665D01*
X15518750Y7447835D01*
X15463503Y7277803D01*
X15444815Y7100000D01*
X15445505Y7093435D01*
X15448991Y7060273D01*
X15463503Y6922197D01*
X15518750Y6752165D01*
X15522053Y6746443D01*
X15522054Y6746442D01*
X15569341Y6664539D01*
X15608141Y6597335D01*
X15612559Y6592428D01*
X15612560Y6592427D01*
X15719891Y6473225D01*
X15727770Y6464474D01*
X15733109Y6460595D01*
X15842719Y6380958D01*
X15872407Y6359388D01*
X15878435Y6356704D01*
X15878437Y6356703D01*
X16029702Y6289356D01*
X16035733Y6286671D01*
X16119189Y6268932D01*
X16204152Y6250872D01*
X16204156Y6250872D01*
X16210609Y6249500D01*
X16389391Y6249500D01*
X16395844Y6250872D01*
X16395848Y6250872D01*
X16480811Y6268932D01*
X16564267Y6286671D01*
X16570298Y6289356D01*
X16721563Y6356703D01*
X16721565Y6356704D01*
X16727593Y6359388D01*
X16757282Y6380958D01*
X16866891Y6460595D01*
X16872230Y6464474D01*
X16880110Y6473225D01*
X16987440Y6592427D01*
X16987441Y6592428D01*
X16991859Y6597335D01*
X17030659Y6664539D01*
X17077946Y6746442D01*
X17077947Y6746443D01*
X17081250Y6752165D01*
X17136497Y6922197D01*
X17151010Y7060273D01*
X17154495Y7093435D01*
X17155185Y7100000D01*
X17944815Y7100000D01*
X17945505Y7093435D01*
X17948991Y7060273D01*
X17963503Y6922197D01*
X18018750Y6752165D01*
X18022053Y6746443D01*
X18022054Y6746442D01*
X18069341Y6664539D01*
X18108141Y6597335D01*
X18112559Y6592428D01*
X18112560Y6592427D01*
X18219891Y6473225D01*
X18227770Y6464474D01*
X18233109Y6460595D01*
X18342719Y6380958D01*
X18372407Y6359388D01*
X18378435Y6356704D01*
X18378437Y6356703D01*
X18529702Y6289356D01*
X18535733Y6286671D01*
X18619189Y6268932D01*
X18704152Y6250872D01*
X18704156Y6250872D01*
X18710609Y6249500D01*
X18889391Y6249500D01*
X18895844Y6250872D01*
X18895848Y6250872D01*
X18980811Y6268932D01*
X19064267Y6286671D01*
X19070298Y6289356D01*
X19079460Y6293435D01*
X23685953Y6293435D01*
X23703470Y6126775D01*
X23706200Y6113932D01*
X23757981Y5954564D01*
X23763326Y5942559D01*
X23779899Y5913854D01*
X23790104Y5904123D01*
X23798123Y5907333D01*
X24177978Y6287188D01*
X24184356Y6298868D01*
X24914408Y6298868D01*
X24914539Y6297035D01*
X24918790Y6290420D01*
X25298232Y5910978D01*
X25310612Y5904218D01*
X25317527Y5909394D01*
X25336674Y5942559D01*
X25342019Y5954564D01*
X25393800Y6113932D01*
X25396530Y6126775D01*
X25414047Y6293435D01*
X25414047Y6306565D01*
X25396530Y6473225D01*
X25393800Y6486068D01*
X25342019Y6645436D01*
X25336674Y6657441D01*
X25320101Y6686146D01*
X25309896Y6695877D01*
X25301877Y6692667D01*
X24922022Y6312812D01*
X24914408Y6298868D01*
X24184356Y6298868D01*
X24185592Y6301132D01*
X24185461Y6302965D01*
X24181210Y6309580D01*
X23801768Y6689022D01*
X23789388Y6695782D01*
X23782473Y6690606D01*
X23763326Y6657441D01*
X23757981Y6645436D01*
X23706200Y6486068D01*
X23703470Y6473225D01*
X23685953Y6306565D01*
X23685953Y6293435D01*
X19079460Y6293435D01*
X19221563Y6356703D01*
X19221565Y6356704D01*
X19227593Y6359388D01*
X19257282Y6380958D01*
X19366891Y6460595D01*
X19372230Y6464474D01*
X19380110Y6473225D01*
X19487440Y6592427D01*
X19487441Y6592428D01*
X19491859Y6597335D01*
X19530659Y6664539D01*
X19577946Y6746442D01*
X19577947Y6746443D01*
X19581250Y6752165D01*
X19636497Y6922197D01*
X19651010Y7060273D01*
X24152978Y7060273D01*
X24154574Y7054636D01*
X24537188Y6672022D01*
X24551132Y6664408D01*
X24552965Y6664539D01*
X24559580Y6668790D01*
X24940015Y7049225D01*
X24946775Y7061605D01*
X24943264Y7066295D01*
X24823249Y7119729D01*
X24810761Y7123786D01*
X24646847Y7158628D01*
X24633787Y7160000D01*
X24466213Y7160000D01*
X24453153Y7158628D01*
X24289239Y7123786D01*
X24276751Y7119729D01*
X24163722Y7069405D01*
X24152978Y7060273D01*
X19651010Y7060273D01*
X19654495Y7093435D01*
X19655185Y7100000D01*
X19636497Y7277803D01*
X19581250Y7447835D01*
X19491859Y7602665D01*
X19482864Y7612655D01*
X19452146Y7676662D01*
X19450500Y7696965D01*
X19450500Y8478364D01*
X19470502Y8546485D01*
X19487405Y8567459D01*
X19719946Y8800000D01*
X23684760Y8800000D01*
X23703668Y8620106D01*
X23759564Y8448075D01*
X23850006Y8291425D01*
X23971041Y8157001D01*
X23976383Y8153120D01*
X23976385Y8153118D01*
X24112038Y8054561D01*
X24117380Y8050680D01*
X24123408Y8047996D01*
X24123410Y8047995D01*
X24276595Y7979793D01*
X24282626Y7977108D01*
X24371092Y7958304D01*
X24453101Y7940872D01*
X24453105Y7940872D01*
X24459558Y7939500D01*
X24640442Y7939500D01*
X24646895Y7940872D01*
X24646899Y7940872D01*
X24728908Y7958304D01*
X24817374Y7977108D01*
X24823405Y7979793D01*
X24976590Y8047995D01*
X24976592Y8047996D01*
X24982620Y8050680D01*
X24987962Y8054561D01*
X25123615Y8153118D01*
X25123617Y8153120D01*
X25128959Y8157001D01*
X25249994Y8291425D01*
X25340436Y8448075D01*
X25396332Y8620106D01*
X25415240Y8800000D01*
X25396332Y8979894D01*
X25392984Y8990200D01*
X25342478Y9145640D01*
X25340436Y9151925D01*
X25321113Y9185393D01*
X25253298Y9302853D01*
X25253296Y9302856D01*
X25249994Y9308575D01*
X25128959Y9442999D01*
X25123617Y9446880D01*
X25123615Y9446882D01*
X24987962Y9545439D01*
X24987961Y9545440D01*
X24982620Y9549320D01*
X24976592Y9552004D01*
X24976590Y9552005D01*
X24823405Y9620207D01*
X24823404Y9620207D01*
X24817374Y9622892D01*
X24728908Y9641696D01*
X24646899Y9659128D01*
X24646895Y9659128D01*
X24640442Y9660500D01*
X24459558Y9660500D01*
X24453105Y9659128D01*
X24453101Y9659128D01*
X24371092Y9641696D01*
X24282626Y9622892D01*
X24276596Y9620207D01*
X24276595Y9620207D01*
X24123410Y9552005D01*
X24123408Y9552004D01*
X24117380Y9549320D01*
X24112039Y9545440D01*
X24112038Y9545439D01*
X23976385Y9446882D01*
X23976383Y9446880D01*
X23971041Y9442999D01*
X23850006Y9308575D01*
X23846704Y9302856D01*
X23846702Y9302853D01*
X23778887Y9185393D01*
X23759564Y9151925D01*
X23757522Y9145640D01*
X23707017Y8990200D01*
X23703668Y8979894D01*
X23684760Y8800000D01*
X19719946Y8800000D01*
X21719946Y10800000D01*
X23684760Y10800000D01*
X23703668Y10620106D01*
X23759564Y10448075D01*
X23762867Y10442353D01*
X23762868Y10442352D01*
X23815351Y10351450D01*
X23850006Y10291425D01*
X23971041Y10157001D01*
X23976383Y10153120D01*
X23976385Y10153118D01*
X24112038Y10054561D01*
X24117380Y10050680D01*
X24123408Y10047996D01*
X24123410Y10047995D01*
X24276595Y9979793D01*
X24282626Y9977108D01*
X24371092Y9958304D01*
X24453101Y9940872D01*
X24453105Y9940872D01*
X24459558Y9939500D01*
X24640442Y9939500D01*
X24646895Y9940872D01*
X24646899Y9940872D01*
X24728908Y9958304D01*
X24817374Y9977108D01*
X24823405Y9979793D01*
X24976590Y10047995D01*
X24976592Y10047996D01*
X24982620Y10050680D01*
X24987962Y10054561D01*
X25123615Y10153118D01*
X25123617Y10153120D01*
X25128959Y10157001D01*
X25249994Y10291425D01*
X25284650Y10351450D01*
X25337132Y10442352D01*
X25337133Y10442353D01*
X25340436Y10448075D01*
X25396332Y10620106D01*
X25415240Y10800000D01*
X25396332Y10979894D01*
X25340436Y11151925D01*
X25249994Y11308575D01*
X25128959Y11442999D01*
X25123617Y11446880D01*
X25123615Y11446882D01*
X24987962Y11545439D01*
X24987961Y11545440D01*
X24982620Y11549320D01*
X24976592Y11552004D01*
X24976590Y11552005D01*
X24823405Y11620207D01*
X24823404Y11620207D01*
X24817374Y11622892D01*
X24728908Y11641696D01*
X24646899Y11659128D01*
X24646895Y11659128D01*
X24640442Y11660500D01*
X24459558Y11660500D01*
X24453105Y11659128D01*
X24453101Y11659128D01*
X24371092Y11641696D01*
X24282626Y11622892D01*
X24276596Y11620207D01*
X24276595Y11620207D01*
X24123410Y11552005D01*
X24123408Y11552004D01*
X24117380Y11549320D01*
X24112039Y11545440D01*
X24112038Y11545439D01*
X23976385Y11446882D01*
X23976383Y11446880D01*
X23971041Y11442999D01*
X23850006Y11308575D01*
X23759564Y11151925D01*
X23703668Y10979894D01*
X23684760Y10800000D01*
X21719946Y10800000D01*
X23532541Y12612595D01*
X23594853Y12646621D01*
X23621636Y12649500D01*
X23940425Y12649500D01*
X24014485Y12625437D01*
X24117380Y12550680D01*
X24123408Y12547996D01*
X24123410Y12547995D01*
X24276595Y12479793D01*
X24282626Y12477108D01*
X24371092Y12458304D01*
X24453101Y12440872D01*
X24453105Y12440872D01*
X24459558Y12439500D01*
X24640442Y12439500D01*
X24646895Y12440872D01*
X24646899Y12440872D01*
X24728908Y12458304D01*
X24817374Y12477108D01*
X24823405Y12479793D01*
X24976590Y12547995D01*
X24976592Y12547996D01*
X24982620Y12550680D01*
X25030399Y12585393D01*
X25123615Y12653118D01*
X25123617Y12653120D01*
X25128959Y12657001D01*
X25249994Y12791425D01*
X25256245Y12802251D01*
X25337132Y12942352D01*
X25337133Y12942353D01*
X25340436Y12948075D01*
X25396332Y13120106D01*
X25398361Y13139405D01*
X25414550Y13293435D01*
X25415240Y13300000D01*
X25396332Y13479894D01*
X25340436Y13651925D01*
X25337132Y13657648D01*
X25253298Y13802853D01*
X25253296Y13802856D01*
X25249994Y13808575D01*
X25128959Y13942999D01*
X25123617Y13946880D01*
X25123615Y13946882D01*
X24987962Y14045439D01*
X24987961Y14045440D01*
X24982620Y14049320D01*
X24976592Y14052004D01*
X24976590Y14052005D01*
X24823405Y14120207D01*
X24823404Y14120207D01*
X24817374Y14122892D01*
X24728908Y14141696D01*
X24646899Y14159128D01*
X24646895Y14159128D01*
X24640442Y14160500D01*
X24459558Y14160500D01*
X24453105Y14159128D01*
X24453101Y14159128D01*
X24371092Y14141696D01*
X24282626Y14122892D01*
X24276596Y14120207D01*
X24276595Y14120207D01*
X24123410Y14052005D01*
X24123408Y14052004D01*
X24117380Y14049320D01*
X24035082Y13989527D01*
X24014485Y13974563D01*
X23940425Y13950500D01*
X23381000Y13950500D01*
X23369360Y13951049D01*
X23361704Y13952760D01*
X23353781Y13952511D01*
X23291770Y13950562D01*
X23287812Y13950500D01*
X23259075Y13950500D01*
X23254804Y13949961D01*
X23242976Y13949029D01*
X23197431Y13947597D01*
X23189817Y13945385D01*
X23189812Y13945384D01*
X23177208Y13941722D01*
X23157844Y13937711D01*
X23136942Y13935071D01*
X23129571Y13932152D01*
X23129569Y13932152D01*
X23094580Y13918298D01*
X23083369Y13914459D01*
X23039602Y13901744D01*
X23021467Y13891019D01*
X23003719Y13882324D01*
X22984129Y13874568D01*
X22947262Y13847782D01*
X22937354Y13841275D01*
X22904958Y13822117D01*
X22904953Y13822113D01*
X22898135Y13818081D01*
X22883242Y13803188D01*
X22868208Y13790347D01*
X22851163Y13777963D01*
X22846110Y13771855D01*
X22822121Y13742857D01*
X22814131Y13734077D01*
X18397302Y9317248D01*
X18388685Y9309407D01*
X18382060Y9305202D01*
X18376633Y9299423D01*
X18376632Y9299422D01*
X18334151Y9254184D01*
X18331396Y9251342D01*
X18311089Y9231035D01*
X18308660Y9227904D01*
X18308655Y9227898D01*
X18308442Y9227623D01*
X18300745Y9218610D01*
X18269552Y9185393D01*
X18265733Y9178446D01*
X18259404Y9166934D01*
X18248550Y9150410D01*
X18235638Y9133764D01*
X18224704Y9108496D01*
X18217546Y9091955D01*
X18212330Y9081307D01*
X18190373Y9041368D01*
X18188402Y9033689D01*
X18188401Y9033688D01*
X18185133Y9020959D01*
X18178727Y9002250D01*
X18173512Y8990200D01*
X18173510Y8990195D01*
X18170365Y8982926D01*
X18169126Y8975102D01*
X18163239Y8937935D01*
X18160831Y8926310D01*
X18151472Y8889860D01*
X18151471Y8889855D01*
X18149500Y8882177D01*
X18149500Y8861116D01*
X18147949Y8841404D01*
X18144653Y8820595D01*
X18145399Y8812704D01*
X18148941Y8775235D01*
X18149500Y8763377D01*
X18149500Y7696965D01*
X18129498Y7628844D01*
X18117136Y7612655D01*
X18108141Y7602665D01*
X18018750Y7447835D01*
X17963503Y7277803D01*
X17944815Y7100000D01*
X17155185Y7100000D01*
X17136497Y7277803D01*
X17081250Y7447835D01*
X16991859Y7602665D01*
X16982864Y7612655D01*
X16952146Y7676662D01*
X16950500Y7696965D01*
X16950500Y8718999D01*
X16951049Y8730640D01*
X16952760Y8738296D01*
X16950562Y8808244D01*
X16950500Y8812201D01*
X16950500Y8840925D01*
X16949962Y8845188D01*
X16949029Y8857027D01*
X16947847Y8894643D01*
X16947598Y8902569D01*
X16941719Y8922807D01*
X16937711Y8942161D01*
X16936065Y8955192D01*
X16936065Y8955194D01*
X16935071Y8963058D01*
X16931004Y8973330D01*
X16918301Y9005416D01*
X16914456Y9016646D01*
X16903956Y9052788D01*
X16903956Y9052789D01*
X16901745Y9060398D01*
X16897712Y9067217D01*
X16897710Y9067222D01*
X16891020Y9078533D01*
X16882320Y9096292D01*
X16877488Y9108496D01*
X16874568Y9115871D01*
X16852940Y9145640D01*
X16847791Y9152727D01*
X16841275Y9162647D01*
X16822119Y9195037D01*
X16818081Y9201865D01*
X16803188Y9216758D01*
X16790347Y9231792D01*
X16782623Y9242423D01*
X16777963Y9248837D01*
X16742856Y9277880D01*
X16734077Y9285869D01*
X15817248Y10202698D01*
X15809407Y10211315D01*
X15805202Y10217940D01*
X15754183Y10265850D01*
X15751342Y10268604D01*
X15731035Y10288911D01*
X15727904Y10291340D01*
X15727898Y10291345D01*
X15727623Y10291558D01*
X15718610Y10299255D01*
X15685393Y10330448D01*
X15676071Y10335573D01*
X15666934Y10340596D01*
X15650410Y10351450D01*
X15640027Y10359504D01*
X15640026Y10359505D01*
X15633764Y10364362D01*
X15591952Y10382455D01*
X15581307Y10387670D01*
X15541368Y10409627D01*
X15533689Y10411598D01*
X15533688Y10411599D01*
X15520959Y10414867D01*
X15502250Y10421273D01*
X15490200Y10426488D01*
X15490195Y10426490D01*
X15482926Y10429635D01*
X15437930Y10436762D01*
X15426310Y10439169D01*
X15389860Y10448528D01*
X15389855Y10448529D01*
X15382177Y10450500D01*
X15361116Y10450500D01*
X15341404Y10452051D01*
X15340098Y10452258D01*
X15320595Y10455347D01*
X15307478Y10454107D01*
X15275235Y10451059D01*
X15263377Y10450500D01*
X10576500Y10450500D01*
X10508379Y10470502D01*
X10461886Y10524158D01*
X10450500Y10576500D01*
X10450500Y12144795D01*
X10451757Y12162548D01*
X10454553Y12182192D01*
X10454553Y12182198D01*
X10455134Y12186277D01*
X10455278Y12200000D01*
X10450604Y12238623D01*
X10450500Y12239756D01*
X10450500Y12240925D01*
X10446355Y12273734D01*
X10436363Y12356306D01*
X10435703Y12358051D01*
X10435071Y12363058D01*
X10419172Y12403214D01*
X10407817Y12431894D01*
X10407103Y12433740D01*
X10383394Y12496485D01*
X10382066Y12500000D01*
X12944815Y12500000D01*
X12945505Y12493435D01*
X12959735Y12358051D01*
X12963503Y12322197D01*
X12965543Y12315920D01*
X12965543Y12315918D01*
X12974111Y12289549D01*
X13018750Y12152165D01*
X13108141Y11997335D01*
X13227770Y11864474D01*
X13372407Y11759388D01*
X13378435Y11756704D01*
X13378437Y11756703D01*
X13529702Y11689356D01*
X13535733Y11686671D01*
X13623171Y11668085D01*
X13704152Y11650872D01*
X13704156Y11650872D01*
X13710609Y11649500D01*
X13889391Y11649500D01*
X13895844Y11650872D01*
X13895848Y11650872D01*
X13976829Y11668085D01*
X14064267Y11686671D01*
X14070298Y11689356D01*
X14221563Y11756703D01*
X14221565Y11756704D01*
X14227593Y11759388D01*
X14372230Y11864474D01*
X14491859Y11997335D01*
X14581250Y12152165D01*
X14625889Y12289549D01*
X14634457Y12315918D01*
X14634457Y12315920D01*
X14636497Y12322197D01*
X14640266Y12358051D01*
X14654495Y12493435D01*
X14655185Y12500000D01*
X15444815Y12500000D01*
X15445505Y12493435D01*
X15459735Y12358051D01*
X15463503Y12322197D01*
X15465543Y12315920D01*
X15465543Y12315918D01*
X15474111Y12289549D01*
X15518750Y12152165D01*
X15608141Y11997335D01*
X15727770Y11864474D01*
X15872407Y11759388D01*
X15878435Y11756704D01*
X15878437Y11756703D01*
X16029702Y11689356D01*
X16035733Y11686671D01*
X16123171Y11668085D01*
X16204152Y11650872D01*
X16204156Y11650872D01*
X16210609Y11649500D01*
X16389391Y11649500D01*
X16395844Y11650872D01*
X16395848Y11650872D01*
X16476829Y11668085D01*
X16564267Y11686671D01*
X16570298Y11689356D01*
X16721563Y11756703D01*
X16721565Y11756704D01*
X16727593Y11759388D01*
X16872230Y11864474D01*
X16991859Y11997335D01*
X17081250Y12152165D01*
X17125889Y12289549D01*
X17134457Y12315918D01*
X17134457Y12315920D01*
X17136497Y12322197D01*
X17140266Y12358051D01*
X17154495Y12493435D01*
X17155185Y12500000D01*
X17944815Y12500000D01*
X17945505Y12493435D01*
X17959735Y12358051D01*
X17963503Y12322197D01*
X17965543Y12315920D01*
X17965543Y12315918D01*
X17974111Y12289549D01*
X18018750Y12152165D01*
X18108141Y11997335D01*
X18227770Y11864474D01*
X18372407Y11759388D01*
X18378435Y11756704D01*
X18378437Y11756703D01*
X18529702Y11689356D01*
X18535733Y11686671D01*
X18623171Y11668085D01*
X18704152Y11650872D01*
X18704156Y11650872D01*
X18710609Y11649500D01*
X18889391Y11649500D01*
X18895844Y11650872D01*
X18895848Y11650872D01*
X18976829Y11668085D01*
X19064267Y11686671D01*
X19070298Y11689356D01*
X19221563Y11756703D01*
X19221565Y11756704D01*
X19227593Y11759388D01*
X19372230Y11864474D01*
X19491859Y11997335D01*
X19581250Y12152165D01*
X19625889Y12289549D01*
X19634457Y12315918D01*
X19634457Y12315920D01*
X19636497Y12322197D01*
X19640266Y12358051D01*
X19654495Y12493435D01*
X19655185Y12500000D01*
X19650454Y12545010D01*
X19637187Y12671239D01*
X19637187Y12671240D01*
X19636497Y12677803D01*
X19627595Y12705202D01*
X19583292Y12841550D01*
X19581250Y12847835D01*
X19491859Y13002665D01*
X19487440Y13007573D01*
X19376645Y13130623D01*
X19376643Y13130624D01*
X19372230Y13135526D01*
X19342942Y13156805D01*
X19232935Y13236731D01*
X19232933Y13236732D01*
X19227593Y13240612D01*
X19221565Y13243296D01*
X19221563Y13243297D01*
X19070298Y13310644D01*
X19070297Y13310644D01*
X19064267Y13313329D01*
X18976829Y13331915D01*
X18895848Y13349128D01*
X18895844Y13349128D01*
X18889391Y13350500D01*
X18710609Y13350500D01*
X18704156Y13349128D01*
X18704152Y13349128D01*
X18623171Y13331915D01*
X18535733Y13313329D01*
X18529703Y13310644D01*
X18529702Y13310644D01*
X18378438Y13243297D01*
X18378436Y13243296D01*
X18372408Y13240612D01*
X18227770Y13135526D01*
X18223357Y13130624D01*
X18223355Y13130623D01*
X18112560Y13007573D01*
X18108141Y13002665D01*
X18018750Y12847835D01*
X18016708Y12841550D01*
X17972406Y12705202D01*
X17963503Y12677803D01*
X17962813Y12671240D01*
X17962813Y12671239D01*
X17949546Y12545010D01*
X17944815Y12500000D01*
X17155185Y12500000D01*
X17150454Y12545010D01*
X17137187Y12671239D01*
X17137187Y12671240D01*
X17136497Y12677803D01*
X17127595Y12705202D01*
X17083292Y12841550D01*
X17081250Y12847835D01*
X16991859Y13002665D01*
X16987440Y13007573D01*
X16876645Y13130623D01*
X16876643Y13130624D01*
X16872230Y13135526D01*
X16842942Y13156805D01*
X16732935Y13236731D01*
X16732933Y13236732D01*
X16727593Y13240612D01*
X16721565Y13243296D01*
X16721563Y13243297D01*
X16570298Y13310644D01*
X16570297Y13310644D01*
X16564267Y13313329D01*
X16476829Y13331915D01*
X16395848Y13349128D01*
X16395844Y13349128D01*
X16389391Y13350500D01*
X16210609Y13350500D01*
X16204156Y13349128D01*
X16204152Y13349128D01*
X16123171Y13331915D01*
X16035733Y13313329D01*
X16029703Y13310644D01*
X16029702Y13310644D01*
X15878438Y13243297D01*
X15878436Y13243296D01*
X15872408Y13240612D01*
X15727770Y13135526D01*
X15723357Y13130624D01*
X15723355Y13130623D01*
X15612560Y13007573D01*
X15608141Y13002665D01*
X15518750Y12847835D01*
X15516708Y12841550D01*
X15472406Y12705202D01*
X15463503Y12677803D01*
X15462813Y12671240D01*
X15462813Y12671239D01*
X15449546Y12545010D01*
X15444815Y12500000D01*
X14655185Y12500000D01*
X14650454Y12545010D01*
X14637187Y12671239D01*
X14637187Y12671240D01*
X14636497Y12677803D01*
X14627595Y12705202D01*
X14583292Y12841550D01*
X14581250Y12847835D01*
X14491859Y13002665D01*
X14487440Y13007573D01*
X14376645Y13130623D01*
X14376643Y13130624D01*
X14372230Y13135526D01*
X14342942Y13156805D01*
X14232935Y13236731D01*
X14232933Y13236732D01*
X14227593Y13240612D01*
X14221565Y13243296D01*
X14221563Y13243297D01*
X14070298Y13310644D01*
X14070297Y13310644D01*
X14064267Y13313329D01*
X13976829Y13331915D01*
X13895848Y13349128D01*
X13895844Y13349128D01*
X13889391Y13350500D01*
X13710609Y13350500D01*
X13704156Y13349128D01*
X13704152Y13349128D01*
X13623171Y13331915D01*
X13535733Y13313329D01*
X13529703Y13310644D01*
X13529702Y13310644D01*
X13378438Y13243297D01*
X13378436Y13243296D01*
X13372408Y13240612D01*
X13227770Y13135526D01*
X13223357Y13130624D01*
X13223355Y13130623D01*
X13112560Y13007573D01*
X13108141Y13002665D01*
X13018750Y12847835D01*
X13016708Y12841550D01*
X12972406Y12705202D01*
X12963503Y12677803D01*
X12962813Y12671240D01*
X12962813Y12671239D01*
X12949546Y12545010D01*
X12944815Y12500000D01*
X10382066Y12500000D01*
X10380710Y12503588D01*
X10378097Y12507389D01*
X10377485Y12508503D01*
X10374568Y12515871D01*
X10353397Y12545010D01*
X10332967Y12573130D01*
X10331063Y12575823D01*
X10320515Y12591171D01*
X10291531Y12633343D01*
X10286551Y12637779D01*
X10284038Y12640916D01*
X10282622Y12642424D01*
X10277963Y12648837D01*
X10226269Y12691602D01*
X10222808Y12694573D01*
X10173976Y12738081D01*
X10167269Y12741632D01*
X10162368Y12745039D01*
X10159331Y12747344D01*
X10157432Y12748549D01*
X10151326Y12753600D01*
X10094152Y12780504D01*
X10088848Y12783154D01*
X10041548Y12808199D01*
X10041545Y12808200D01*
X10034831Y12811755D01*
X10027460Y12813606D01*
X10020372Y12816327D01*
X10020452Y12816536D01*
X10014144Y12818788D01*
X10009783Y12820205D01*
X10002613Y12823579D01*
X9944420Y12834680D01*
X9937354Y12836239D01*
X9882128Y12850111D01*
X9874528Y12850151D01*
X9874344Y12850174D01*
X9851629Y12852381D01*
X9841170Y12854376D01*
X9786000Y12850905D01*
X9777455Y12850658D01*
X9724684Y12850935D01*
X9713343Y12848213D01*
X9691853Y12844982D01*
X9687515Y12844709D01*
X9677140Y12844056D01*
X9628381Y12828214D01*
X9618871Y12825532D01*
X9578976Y12815954D01*
X9578974Y12815953D01*
X9571588Y12814180D01*
X9564840Y12810697D01*
X9564834Y12810695D01*
X9557581Y12806951D01*
X9538727Y12799084D01*
X9520829Y12793268D01*
X9514132Y12789018D01*
X9480946Y12767958D01*
X9471230Y12762382D01*
X9431679Y12741968D01*
X9425959Y12736978D01*
X9425956Y12736976D01*
X9416708Y12728908D01*
X9401394Y12717472D01*
X9382060Y12705202D01*
X9356331Y12677803D01*
X9352490Y12673713D01*
X9343475Y12665023D01*
X9339906Y12661909D01*
X9318758Y12643461D01*
X9318756Y12643458D01*
X9313034Y12638467D01*
X9308666Y12632252D01*
X9308664Y12632250D01*
X9299248Y12618853D01*
X9288015Y12605055D01*
X9269552Y12585393D01*
X9265734Y12578448D01*
X9265731Y12578444D01*
X9250693Y12551090D01*
X9243366Y12539341D01*
X9226873Y12515873D01*
X9222501Y12509652D01*
X9212303Y12483495D01*
X9205329Y12468573D01*
X9190373Y12441368D01*
X9188401Y12433689D01*
X9188401Y12433688D01*
X9181644Y12407370D01*
X9176999Y12392943D01*
X9165309Y12362961D01*
X9164318Y12355433D01*
X9161110Y12331066D01*
X9158229Y12316175D01*
X9153075Y12296099D01*
X9149500Y12282177D01*
X9149500Y12251139D01*
X9148422Y12234693D01*
X9144758Y12206862D01*
X9147031Y12186277D01*
X9148739Y12170802D01*
X9149500Y12156976D01*
X9149500Y9873398D01*
X9147268Y9849789D01*
X9145624Y9841170D01*
X9146122Y9833259D01*
X9149251Y9783521D01*
X9149500Y9775609D01*
X9149500Y6601139D01*
X9148422Y6584693D01*
X9144758Y6556862D01*
X6852102Y6556862D01*
X6892698Y6609767D01*
X6950687Y6749764D01*
X6970466Y6900000D01*
X6950687Y7050236D01*
X6892698Y7190233D01*
X6800451Y7310451D01*
X6680233Y7402698D01*
X6540236Y7460687D01*
X6427720Y7475500D01*
X6352280Y7475500D01*
X6239764Y7460687D01*
X6099767Y7402698D01*
X5979549Y7310451D01*
X5887302Y7190233D01*
X5829313Y7050236D01*
X5809534Y6900000D01*
X5829313Y6749764D01*
X5887302Y6609767D01*
X5979549Y6489549D01*
X6099767Y6397302D01*
X6139225Y6380958D01*
X6180689Y6363783D01*
X6235969Y6319234D01*
X6258390Y6251871D01*
X6240832Y6183079D01*
X6188869Y6134701D01*
X6146077Y6122111D01*
X6119379Y6119211D01*
X6104133Y6115586D01*
X5985823Y6071233D01*
X5970237Y6062701D01*
X5869991Y5987570D01*
X5857430Y5975009D01*
X5782299Y5874763D01*
X5773767Y5859177D01*
X5729414Y5740867D01*
X5725789Y5725621D01*
X5720369Y5675729D01*
X5720000Y5668915D01*
X5720000Y5547115D01*
X4090000Y5547115D01*
X4090000Y5668915D01*
X4089631Y5675729D01*
X4084211Y5725621D01*
X4080586Y5740867D01*
X4036233Y5859177D01*
X4027701Y5874763D01*
X3952570Y5975009D01*
X3940009Y5987570D01*
X3839763Y6062701D01*
X3824177Y6071233D01*
X3705867Y6115586D01*
X3690621Y6119211D01*
X3640729Y6124631D01*
X3633915Y6125000D01*
X3212115Y6125000D01*
X3196876Y6120525D01*
X3195671Y6119135D01*
X3194000Y6111452D01*
X3194000Y5547115D01*
X2686000Y5547115D01*
X2686000Y6106885D01*
X2681525Y6122124D01*
X2680135Y6123329D01*
X2672452Y6125000D01*
X2246085Y6125000D01*
X2239271Y6124631D01*
X2189379Y6119211D01*
X2174133Y6115586D01*
X2055823Y6071233D01*
X2040237Y6062701D01*
X1939991Y5987570D01*
X1927430Y5975009D01*
X1852299Y5874763D01*
X1843767Y5859177D01*
X1799414Y5740867D01*
X1795789Y5725621D01*
X1790369Y5675729D01*
X1790000Y5668915D01*
X1790000Y5547115D01*
X150500Y5547115D01*
X150500Y13931085D01*
X1790000Y13931085D01*
X1790369Y13924271D01*
X1795789Y13874379D01*
X1799414Y13859133D01*
X1843767Y13740823D01*
X1852299Y13725237D01*
X1927430Y13624991D01*
X1939991Y13612430D01*
X2040237Y13537299D01*
X2055823Y13528767D01*
X2174133Y13484414D01*
X2189379Y13480789D01*
X2239271Y13475369D01*
X2246085Y13475000D01*
X2667885Y13475000D01*
X2683124Y13479475D01*
X2684329Y13480865D01*
X2686000Y13488548D01*
X2686000Y13493115D01*
X3194000Y13493115D01*
X3198475Y13477876D01*
X3199865Y13476671D01*
X3207548Y13475000D01*
X3633915Y13475000D01*
X3640729Y13475369D01*
X3690621Y13480789D01*
X3705867Y13484414D01*
X3824177Y13528767D01*
X3839763Y13537299D01*
X3940009Y13612430D01*
X3952570Y13624991D01*
X4027701Y13725237D01*
X4036233Y13740823D01*
X4080586Y13859133D01*
X4084211Y13874379D01*
X4089631Y13924271D01*
X4090000Y13931085D01*
X5720000Y13931085D01*
X5720369Y13924271D01*
X5725789Y13874379D01*
X5729414Y13859133D01*
X5773767Y13740823D01*
X5782299Y13725237D01*
X5857430Y13624991D01*
X5869991Y13612430D01*
X5970237Y13537299D01*
X5985823Y13528767D01*
X6104133Y13484414D01*
X6119379Y13480789D01*
X6146077Y13477889D01*
X6211639Y13450648D01*
X6252066Y13392285D01*
X6254522Y13321331D01*
X6218227Y13260313D01*
X6180690Y13236218D01*
X6099767Y13202698D01*
X5979549Y13110451D01*
X5887302Y12990233D01*
X5829313Y12850236D01*
X5809534Y12700000D01*
X5829313Y12549764D01*
X5887302Y12409767D01*
X5979549Y12289549D01*
X6099767Y12197302D01*
X6239764Y12139313D01*
X6352280Y12124500D01*
X6427720Y12124500D01*
X6540236Y12139313D01*
X6680233Y12197302D01*
X6800451Y12289549D01*
X6892698Y12409767D01*
X6950687Y12549764D01*
X6970466Y12700000D01*
X6950687Y12850236D01*
X6892698Y12990233D01*
X6800451Y13110451D01*
X6680233Y13202698D01*
X6608065Y13232591D01*
X6552784Y13277139D01*
X6530363Y13344503D01*
X6547921Y13413294D01*
X6599883Y13461672D01*
X6630773Y13468972D01*
X6630502Y13469896D01*
X6663124Y13479475D01*
X6664329Y13480865D01*
X6666000Y13488548D01*
X6666000Y13493115D01*
X7174000Y13493115D01*
X7178475Y13477876D01*
X7179865Y13476671D01*
X7187548Y13475000D01*
X7663915Y13475000D01*
X7670729Y13475369D01*
X7720621Y13480789D01*
X7735867Y13484414D01*
X7854177Y13528767D01*
X7869763Y13537299D01*
X7970009Y13612430D01*
X7982570Y13624991D01*
X8057701Y13725237D01*
X8066233Y13740823D01*
X8110586Y13859133D01*
X8114211Y13874379D01*
X8119631Y13924271D01*
X8120000Y13931085D01*
X8120000Y14052885D01*
X8115525Y14068124D01*
X8114135Y14069329D01*
X8106452Y14071000D01*
X7192115Y14071000D01*
X7176876Y14066525D01*
X7175671Y14065135D01*
X7174000Y14057452D01*
X7174000Y13493115D01*
X6666000Y13493115D01*
X6666000Y14052885D01*
X6661525Y14068124D01*
X6660135Y14069329D01*
X6652452Y14071000D01*
X5738115Y14071000D01*
X5722876Y14066525D01*
X5721671Y14065135D01*
X5720000Y14057452D01*
X5720000Y13931085D01*
X4090000Y13931085D01*
X4090000Y14052885D01*
X4085525Y14068124D01*
X4084135Y14069329D01*
X4076452Y14071000D01*
X3212115Y14071000D01*
X3196876Y14066525D01*
X3195671Y14065135D01*
X3194000Y14057452D01*
X3194000Y13493115D01*
X2686000Y13493115D01*
X2686000Y14052885D01*
X2681525Y14068124D01*
X2680135Y14069329D01*
X2672452Y14071000D01*
X1808115Y14071000D01*
X1792876Y14066525D01*
X1791671Y14065135D01*
X1790000Y14057452D01*
X1790000Y13931085D01*
X150500Y13931085D01*
X150500Y14597115D01*
X1790000Y14597115D01*
X1794475Y14581876D01*
X1795865Y14580671D01*
X1803548Y14579000D01*
X2667885Y14579000D01*
X2683124Y14583475D01*
X2684329Y14584865D01*
X2686000Y14592548D01*
X2686000Y14597115D01*
X3194000Y14597115D01*
X3198475Y14581876D01*
X3199865Y14580671D01*
X3207548Y14579000D01*
X4071885Y14579000D01*
X4087124Y14583475D01*
X4088329Y14584865D01*
X4090000Y14592548D01*
X4090000Y14597115D01*
X5720000Y14597115D01*
X5724475Y14581876D01*
X5725865Y14580671D01*
X5733548Y14579000D01*
X6647885Y14579000D01*
X6663124Y14583475D01*
X6664329Y14584865D01*
X6666000Y14592548D01*
X6666000Y14597115D01*
X7174000Y14597115D01*
X7178475Y14581876D01*
X7179865Y14580671D01*
X7187548Y14579000D01*
X8101885Y14579000D01*
X8117124Y14583475D01*
X8118329Y14584865D01*
X8120000Y14592548D01*
X8120000Y14718915D01*
X8119631Y14725729D01*
X8114211Y14775621D01*
X8110586Y14790867D01*
X8066233Y14909177D01*
X8057701Y14924763D01*
X7982570Y15025009D01*
X7970009Y15037570D01*
X7869763Y15112701D01*
X7854177Y15121233D01*
X7735867Y15165586D01*
X7720621Y15169211D01*
X7670729Y15174631D01*
X7663915Y15175000D01*
X7192115Y15175000D01*
X7176876Y15170525D01*
X7175671Y15169135D01*
X7174000Y15161452D01*
X7174000Y14597115D01*
X6666000Y14597115D01*
X6666000Y15156885D01*
X6661525Y15172124D01*
X6660135Y15173329D01*
X6652452Y15175000D01*
X6176085Y15175000D01*
X6169271Y15174631D01*
X6119379Y15169211D01*
X6104133Y15165586D01*
X5985823Y15121233D01*
X5970237Y15112701D01*
X5869991Y15037570D01*
X5857430Y15025009D01*
X5782299Y14924763D01*
X5773767Y14909177D01*
X5729414Y14790867D01*
X5725789Y14775621D01*
X5720369Y14725729D01*
X5720000Y14718915D01*
X5720000Y14597115D01*
X4090000Y14597115D01*
X4090000Y14718915D01*
X4089631Y14725729D01*
X4084211Y14775621D01*
X4080586Y14790867D01*
X4036233Y14909177D01*
X4027701Y14924763D01*
X3952570Y15025009D01*
X3940009Y15037570D01*
X3839763Y15112701D01*
X3824177Y15121233D01*
X3705867Y15165586D01*
X3690621Y15169211D01*
X3640729Y15174631D01*
X3633915Y15175000D01*
X3212115Y15175000D01*
X3196876Y15170525D01*
X3195671Y15169135D01*
X3194000Y15161452D01*
X3194000Y14597115D01*
X2686000Y14597115D01*
X2686000Y15156885D01*
X2681525Y15172124D01*
X2680135Y15173329D01*
X2672452Y15175000D01*
X2246085Y15175000D01*
X2239271Y15174631D01*
X2189379Y15169211D01*
X2174133Y15165586D01*
X2055823Y15121233D01*
X2040237Y15112701D01*
X1939991Y15037570D01*
X1927430Y15025009D01*
X1852299Y14924763D01*
X1843767Y14909177D01*
X1799414Y14790867D01*
X1795789Y14775621D01*
X1790369Y14725729D01*
X1790000Y14718915D01*
X1790000Y14597115D01*
X150500Y14597115D01*
X150500Y17382601D01*
X23632940Y17382601D01*
X23653794Y17296072D01*
X23657677Y17284793D01*
X23739597Y17104622D01*
X23745543Y17094282D01*
X23860051Y16932854D01*
X23867844Y16923826D01*
X24010812Y16786964D01*
X24020177Y16779568D01*
X24186440Y16672213D01*
X24197043Y16666717D01*
X24380596Y16592743D01*
X24392051Y16589350D01*
X24587722Y16551139D01*
X24596557Y16550065D01*
X24599242Y16550000D01*
X25127885Y16550000D01*
X25143124Y16554475D01*
X25144329Y16555865D01*
X25146000Y16563548D01*
X25146000Y16568115D01*
X25654000Y16568115D01*
X25658475Y16552876D01*
X25659865Y16551671D01*
X25667548Y16550000D01*
X26149454Y16550000D01*
X26155430Y16550285D01*
X26302974Y16564362D01*
X26314709Y16566621D01*
X26504615Y16622333D01*
X26515691Y16626763D01*
X26691637Y16717381D01*
X26701683Y16723831D01*
X26857314Y16846081D01*
X26865967Y16854321D01*
X26995670Y17003791D01*
X27002604Y17013511D01*
X27101704Y17184812D01*
X27106678Y17195676D01*
X27171482Y17382292D01*
X27170097Y17392009D01*
X27156532Y17396000D01*
X25672115Y17396000D01*
X25656876Y17391525D01*
X25655671Y17390135D01*
X25654000Y17382452D01*
X25654000Y16568115D01*
X25146000Y16568115D01*
X25146000Y17377885D01*
X25141525Y17393124D01*
X25140135Y17394329D01*
X25132452Y17396000D01*
X23647826Y17396000D01*
X23634295Y17392027D01*
X23632940Y17382601D01*
X150500Y17382601D01*
X150500Y17917708D01*
X23628518Y17917708D01*
X23629903Y17907991D01*
X23643468Y17904000D01*
X25127885Y17904000D01*
X25143124Y17908475D01*
X25144329Y17909865D01*
X25146000Y17917548D01*
X25146000Y17922115D01*
X25654000Y17922115D01*
X25658475Y17906876D01*
X25659865Y17905671D01*
X25667548Y17904000D01*
X27152174Y17904000D01*
X27165705Y17907973D01*
X27167060Y17917399D01*
X27146206Y18003928D01*
X27142323Y18015207D01*
X27060403Y18195378D01*
X27054457Y18205718D01*
X26939949Y18367146D01*
X26932156Y18376174D01*
X26789188Y18513036D01*
X26779823Y18520432D01*
X26613560Y18627787D01*
X26602957Y18633283D01*
X26419404Y18707257D01*
X26407949Y18710650D01*
X26212278Y18748861D01*
X26203443Y18749935D01*
X26200758Y18750000D01*
X25672115Y18750000D01*
X25656876Y18745525D01*
X25655671Y18744135D01*
X25654000Y18736452D01*
X25654000Y17922115D01*
X25146000Y17922115D01*
X25146000Y18731885D01*
X25141525Y18747124D01*
X25140135Y18748329D01*
X25132452Y18750000D01*
X24650546Y18750000D01*
X24644570Y18749715D01*
X24497026Y18735638D01*
X24485291Y18733379D01*
X24295385Y18677667D01*
X24284309Y18673237D01*
X24108363Y18582619D01*
X24098317Y18576169D01*
X23942686Y18453919D01*
X23934033Y18445679D01*
X23804330Y18296209D01*
X23797396Y18286489D01*
X23698296Y18115188D01*
X23693322Y18104324D01*
X23628518Y17917708D01*
X150500Y17917708D01*
X150500Y18763598D01*
X151516Y18771315D01*
X151516Y18783978D01*
X155809Y18800000D01*
X152170Y18813583D01*
X152308Y18816043D01*
X165195Y18930420D01*
X171474Y18957928D01*
X210132Y19068407D01*
X222369Y19093820D01*
X284651Y19192943D01*
X302241Y19214998D01*
X385002Y19297759D01*
X407057Y19315349D01*
X506180Y19377631D01*
X531593Y19389868D01*
X642072Y19428526D01*
X669580Y19434805D01*
X783957Y19447692D01*
X786417Y19447830D01*
X800000Y19444191D01*
X816022Y19448484D01*
X828685Y19448484D01*
X836402Y19449500D01*
X8485211Y19449500D01*
X8553332Y19429498D01*
G37*
%TD.AperFunction*%
%TD*%
M02*
