M48
; DRILL file {KiCad (5.1.12-1-10_14)} date Monday, 29 August 2022 at 02:47:29
; FORMAT={-:-/ absolute / metric / decimal}
; #@! TF.CreationDate,2022-08-29T02:47:29+08:00
; #@! TF.GenerationSoftware,Kicad,Pcbnew,(5.1.12-1-10_14)
; #@! TF.FileFunction,Plated,1,2,PTH
FMAT,2
METRIC
T1C0.300
T2C0.400
T3C0.600
T4C0.800
T5C0.920
T6C2.300
%
G90
G05
T1
X3.3Y19.8
X3.3Y17.3
X3.3Y14.8
X3.3Y9.8
X3.3Y7.3
X3.3Y4.8
X4.8Y21.3
X4.8Y3.3
X7.3Y21.3
X7.3Y18.3
X7.3Y17.3
X7.3Y7.3
X7.3Y6.3
X7.3Y3.3
X8.3Y18.3
X8.3Y17.3
X8.3Y7.3
X8.3Y6.3
X9.8Y19.8
X9.8Y4.8
X12.3Y18.8
X12.3Y5.8
X13.3Y17.3
X13.3Y16.3
X13.3Y8.3
X13.3Y7.3
X14.3Y17.3
X14.3Y16.3
X14.3Y8.3
X14.3Y7.3
X14.8Y19.8
X14.8Y4.8
X16.8Y14.8
X16.8Y13.8
X16.8Y10.8
X16.8Y9.8
X17.3Y21.3
X17.3Y3.3
X17.8Y14.8
X17.8Y13.8
X17.8Y10.8
X17.8Y9.8
X18.8Y14.8
X18.8Y13.8
X18.8Y10.8
X18.8Y9.8
X19.8Y21.3
X19.8Y14.8
X19.8Y13.8
X19.8Y10.8
X19.8Y9.8
X19.8Y3.3
X22.3Y21.3
X22.3Y3.3
X24.8Y21.3
X24.8Y3.3
X27.3Y21.3
X27.3Y3.3
X29.8Y21.3
X29.8Y3.3
X31.8Y17.3
X31.8Y16.3
X31.8Y8.3
X31.8Y7.3
X32.8Y17.3
X32.8Y16.3
X32.8Y8.3
X32.8Y7.3
X34.8Y21.3
X34.8Y3.3
X37.3Y21.3
X37.3Y3.3
X37.8Y19.8
X37.8Y18.8
X37.8Y5.8
X37.8Y4.8
X38.8Y19.8
X38.8Y18.8
X38.8Y12.3
X38.8Y5.8
X38.8Y4.8
X39.8Y21.3
X39.8Y14.8
X39.8Y9.8
X39.8Y3.3
X41.3Y19.8
X41.3Y17.3
X41.3Y7.3
X41.3Y4.8
T2
X9.1Y15.55
X9.1Y14.6
X9.1Y12.75
X9.1Y11.85
X9.1Y10.95
X9.1Y10.0
X9.1Y9.05
X10.5Y15.55
X10.5Y14.6
X10.5Y13.65
X10.5Y12.75
X10.5Y11.85
X10.5Y10.0
X10.5Y9.05
T4
X24.8Y15.0
X24.8Y9.6
X27.3Y15.0
X27.3Y9.6
X29.8Y15.0
X29.8Y9.6
T5
X37.3Y15.8
X37.3Y13.3
X37.3Y11.3
X37.3Y8.8
T6
X34.8Y18.87
X34.8Y5.73
T3
G00X7.87Y13.85
M15
G01X7.87Y14.75
M16
G05
G00X7.87Y9.85
M15
G01X7.87Y10.75
M16
G05
G00X11.73Y13.85
M15
G01X11.73Y14.75
M16
G05
G00X11.73Y9.85
M15
G01X11.73Y10.75
M16
G05
T0
M30
