%TF.GenerationSoftware,KiCad,Pcbnew,(5.1.12-1-10_14)*%
%TF.CreationDate,2022-08-29T02:47:29+08:00*%
%TF.ProjectId,0102_USB-C,30313032-5f55-4534-922d-432e6b696361,rev?*%
%TF.SameCoordinates,Original*%
%TF.FileFunction,Soldermask,Top*%
%TF.FilePolarity,Negative*%
%FSLAX46Y46*%
G04 Gerber Fmt 4.6, Leading zero omitted, Abs format (unit mm)*
G04 Created by KiCad (PCBNEW (5.1.12-1-10_14)) date 2022-08-29 02:47:29*
%MOMM*%
%LPD*%
G01*
G04 APERTURE LIST*
%ADD10C,3.400000*%
%ADD11C,1.600000*%
%ADD12C,1.500000*%
%ADD13C,2.300000*%
%ADD14C,0.800000*%
%ADD15O,1.300000X2.200000*%
G04 APERTURE END LIST*
D10*
%TO.C,J2*%
X34800000Y5730000D03*
X34800000Y18870000D03*
D11*
X37300000Y8800000D03*
X37300000Y11300000D03*
X37300000Y13300000D03*
X37300000Y15800000D03*
%TD*%
%TO.C,R4*%
G36*
G01*
X9990000Y17090000D02*
X9990000Y17510000D01*
G75*
G02*
X10150000Y17670000I160000J0D01*
G01*
X10470000Y17670000D01*
G75*
G02*
X10630000Y17510000I0J-160000D01*
G01*
X10630000Y17090000D01*
G75*
G02*
X10470000Y16930000I-160000J0D01*
G01*
X10150000Y16930000D01*
G75*
G02*
X9990000Y17090000I0J160000D01*
G01*
G37*
G36*
G01*
X8970000Y17090000D02*
X8970000Y17510000D01*
G75*
G02*
X9130000Y17670000I160000J0D01*
G01*
X9450000Y17670000D01*
G75*
G02*
X9610000Y17510000I0J-160000D01*
G01*
X9610000Y17090000D01*
G75*
G02*
X9450000Y16930000I-160000J0D01*
G01*
X9130000Y16930000D01*
G75*
G02*
X8970000Y17090000I0J160000D01*
G01*
G37*
%TD*%
%TO.C,R3*%
G36*
G01*
X9610000Y7510000D02*
X9610000Y7090000D01*
G75*
G02*
X9450000Y6930000I-160000J0D01*
G01*
X9130000Y6930000D01*
G75*
G02*
X8970000Y7090000I0J160000D01*
G01*
X8970000Y7510000D01*
G75*
G02*
X9130000Y7670000I160000J0D01*
G01*
X9450000Y7670000D01*
G75*
G02*
X9610000Y7510000I0J-160000D01*
G01*
G37*
G36*
G01*
X10630000Y7510000D02*
X10630000Y7090000D01*
G75*
G02*
X10470000Y6930000I-160000J0D01*
G01*
X10150000Y6930000D01*
G75*
G02*
X9990000Y7090000I0J160000D01*
G01*
X9990000Y7510000D01*
G75*
G02*
X10150000Y7670000I160000J0D01*
G01*
X10470000Y7670000D01*
G75*
G02*
X10630000Y7510000I0J-160000D01*
G01*
G37*
%TD*%
D12*
%TO.C,SW1*%
X29800000Y15000000D03*
X27300000Y15000000D03*
X24800000Y15000000D03*
X29800000Y9600000D03*
X27300000Y9600000D03*
G36*
G01*
X25450000Y8900000D02*
X24150000Y8900000D01*
G75*
G02*
X24100000Y8950000I0J50000D01*
G01*
X24100000Y10250000D01*
G75*
G02*
X24150000Y10300000I50000J0D01*
G01*
X25450000Y10300000D01*
G75*
G02*
X25500000Y10250000I0J-50000D01*
G01*
X25500000Y8950000D01*
G75*
G02*
X25450000Y8900000I-50000J0D01*
G01*
G37*
%TD*%
D13*
%TO.C,H3*%
X32300000Y2300000D03*
%TD*%
%TO.C,H2*%
X2300000Y12300000D03*
%TD*%
%TO.C,H1*%
X32300000Y22300000D03*
%TD*%
D14*
%TO.C,J1*%
X10500000Y9050000D03*
X10500000Y10000000D03*
X10500000Y11850000D03*
X10500000Y12750000D03*
X10500000Y13650000D03*
X10500000Y14600000D03*
X10500000Y15550000D03*
X9100000Y15550000D03*
X9100000Y14600000D03*
X9100000Y12750000D03*
X9100000Y11850000D03*
X9100000Y10950000D03*
X9100000Y10000000D03*
X9100000Y9050000D03*
D15*
X11730000Y14300000D03*
X7870000Y14300000D03*
X11730000Y10300000D03*
X7870000Y10300000D03*
%TD*%
%TO.C,R2*%
G36*
G01*
X26110000Y7510000D02*
X26110000Y7090000D01*
G75*
G02*
X25950000Y6930000I-160000J0D01*
G01*
X25630000Y6930000D01*
G75*
G02*
X25470000Y7090000I0J160000D01*
G01*
X25470000Y7510000D01*
G75*
G02*
X25630000Y7670000I160000J0D01*
G01*
X25950000Y7670000D01*
G75*
G02*
X26110000Y7510000I0J-160000D01*
G01*
G37*
G36*
G01*
X27130000Y7510000D02*
X27130000Y7090000D01*
G75*
G02*
X26970000Y6930000I-160000J0D01*
G01*
X26650000Y6930000D01*
G75*
G02*
X26490000Y7090000I0J160000D01*
G01*
X26490000Y7510000D01*
G75*
G02*
X26650000Y7670000I160000J0D01*
G01*
X26970000Y7670000D01*
G75*
G02*
X27130000Y7510000I0J-160000D01*
G01*
G37*
%TD*%
%TO.C,R1*%
G36*
G01*
X28110000Y7510000D02*
X28110000Y7090000D01*
G75*
G02*
X27950000Y6930000I-160000J0D01*
G01*
X27630000Y6930000D01*
G75*
G02*
X27470000Y7090000I0J160000D01*
G01*
X27470000Y7510000D01*
G75*
G02*
X27630000Y7670000I160000J0D01*
G01*
X27950000Y7670000D01*
G75*
G02*
X28110000Y7510000I0J-160000D01*
G01*
G37*
G36*
G01*
X29130000Y7510000D02*
X29130000Y7090000D01*
G75*
G02*
X28970000Y6930000I-160000J0D01*
G01*
X28650000Y6930000D01*
G75*
G02*
X28490000Y7090000I0J160000D01*
G01*
X28490000Y7510000D01*
G75*
G02*
X28650000Y7670000I160000J0D01*
G01*
X28970000Y7670000D01*
G75*
G02*
X29130000Y7510000I0J-160000D01*
G01*
G37*
%TD*%
%TO.C,D1*%
G36*
G01*
X27000000Y6081250D02*
X27000000Y5518750D01*
G75*
G02*
X26756250Y5275000I-243750J0D01*
G01*
X26268750Y5275000D01*
G75*
G02*
X26025000Y5518750I0J243750D01*
G01*
X26025000Y6081250D01*
G75*
G02*
X26268750Y6325000I243750J0D01*
G01*
X26756250Y6325000D01*
G75*
G02*
X27000000Y6081250I0J-243750D01*
G01*
G37*
G36*
G01*
X28575000Y6081250D02*
X28575000Y5518750D01*
G75*
G02*
X28331250Y5275000I-243750J0D01*
G01*
X27843750Y5275000D01*
G75*
G02*
X27600000Y5518750I0J243750D01*
G01*
X27600000Y6081250D01*
G75*
G02*
X27843750Y6325000I243750J0D01*
G01*
X28331250Y6325000D01*
G75*
G02*
X28575000Y6081250I0J-243750D01*
G01*
G37*
%TD*%
M02*
